NotoSansCham-Bold.ufo
<glyph name="uni25CC" format="2">
  <advance width="594"/>
  <unicode hex="25CC"/>
  <outline>
    <contour>
      <point x="213" y="543" type="curve" smooth="yes"/>
      <point x="199" y="543"/>
      <point x="187" y="531"/>
      <point x="187" y="517" type="curve" smooth="yes"/>
      <point x="187" y="503"/>
      <point x="199" y="491"/>
      <point x="213" y="491" type="curve" smooth="yes"/>
      <point x="227" y="491"/>
      <point x="239" y="503"/>
      <point x="239" y="517" type="curve" smooth="yes"/>
      <point x="239" y="531"/>
      <point x="227" y="543"/>
    </contour>
    <contour>
      <point x="381" y="543" type="curve" smooth="yes"/>
      <point x="367" y="543"/>
      <point x="355" y="531"/>
      <point x="355" y="517" type="curve" smooth="yes"/>
      <point x="355" y="503"/>
      <point x="367" y="491"/>
      <point x="381" y="491" type="curve" smooth="yes"/>
      <point x="395" y="491"/>
      <point x="407" y="503"/>
      <point x="407" y="517" type="curve" smooth="yes"/>
      <point x="407" y="531"/>
      <point x="395" y="543"/>
    </contour>
    <contour>
      <point x="213" y="133" type="curve" smooth="yes"/>
      <point x="199" y="133"/>
      <point x="187" y="121"/>
      <point x="187" y="107" type="curve" smooth="yes"/>
      <point x="187" y="93"/>
      <point x="199" y="81"/>
      <point x="213" y="81" type="curve" smooth="yes"/>
      <point x="227" y="81"/>
      <point x="239" y="93"/>
      <point x="239" y="107" type="curve" smooth="yes"/>
      <point x="239" y="121"/>
      <point x="227" y="133"/>
    </contour>
    <contour>
      <point x="381" y="133" type="curve" smooth="yes"/>
      <point x="367" y="133"/>
      <point x="355" y="121"/>
      <point x="355" y="107" type="curve" smooth="yes"/>
      <point x="355" y="93"/>
      <point x="367" y="81"/>
      <point x="381" y="81" type="curve" smooth="yes"/>
      <point x="395" y="81"/>
      <point x="407" y="93"/>
      <point x="407" y="107" type="curve" smooth="yes"/>
      <point x="407" y="121"/>
      <point x="395" y="133"/>
    </contour>
    <contour>
      <point x="297" y="561" type="curve" smooth="yes"/>
      <point x="283" y="561"/>
      <point x="271" y="549"/>
      <point x="271" y="535" type="curve" smooth="yes"/>
      <point x="271" y="521"/>
      <point x="283" y="509"/>
      <point x="297" y="509" type="curve" smooth="yes"/>
      <point x="311" y="509"/>
      <point x="323" y="521"/>
      <point x="323" y="535" type="curve" smooth="yes"/>
      <point x="323" y="549"/>
      <point x="311" y="561"/>
    </contour>
    <contour>
      <point x="297" y="115" type="curve" smooth="yes"/>
      <point x="283" y="115"/>
      <point x="271" y="103"/>
      <point x="271" y="89" type="curve" smooth="yes"/>
      <point x="271" y="75"/>
      <point x="283" y="63"/>
      <point x="297" y="63" type="curve" smooth="yes"/>
      <point x="311" y="63"/>
      <point x="323" y="75"/>
      <point x="323" y="89" type="curve" smooth="yes"/>
      <point x="323" y="103"/>
      <point x="311" y="115"/>
    </contour>
    <contour>
      <point x="48" y="312" type="curve" smooth="yes"/>
      <point x="48" y="298"/>
      <point x="60" y="286"/>
      <point x="74" y="286" type="curve" smooth="yes"/>
      <point x="88" y="286"/>
      <point x="100" y="298"/>
      <point x="100" y="312" type="curve" smooth="yes"/>
      <point x="100" y="326"/>
      <point x="88" y="338"/>
      <point x="74" y="338" type="curve" smooth="yes"/>
      <point x="60" y="338"/>
      <point x="48" y="326"/>
    </contour>
    <contour>
      <point x="494" y="312" type="curve" smooth="yes"/>
      <point x="494" y="298"/>
      <point x="506" y="286"/>
      <point x="520" y="286" type="curve" smooth="yes"/>
      <point x="534" y="286"/>
      <point x="546" y="298"/>
      <point x="546" y="312" type="curve" smooth="yes"/>
      <point x="546" y="326"/>
      <point x="534" y="338"/>
      <point x="520" y="338" type="curve" smooth="yes"/>
      <point x="506" y="338"/>
      <point x="494" y="326"/>
    </contour>
    <contour>
      <point x="113" y="154" type="curve" smooth="yes"/>
      <point x="113" y="140"/>
      <point x="125" y="128"/>
      <point x="139" y="128" type="curve" smooth="yes"/>
      <point x="153" y="128"/>
      <point x="165" y="140"/>
      <point x="165" y="154" type="curve" smooth="yes"/>
      <point x="165" y="168"/>
      <point x="153" y="180"/>
      <point x="139" y="180" type="curve" smooth="yes"/>
      <point x="125" y="180"/>
      <point x="113" y="168"/>
    </contour>
    <contour>
      <point x="113" y="470" type="curve" smooth="yes"/>
      <point x="113" y="456"/>
      <point x="125" y="444"/>
      <point x="139" y="444" type="curve" smooth="yes"/>
      <point x="153" y="444"/>
      <point x="165" y="456"/>
      <point x="165" y="470" type="curve" smooth="yes"/>
      <point x="165" y="484"/>
      <point x="153" y="496"/>
      <point x="139" y="496" type="curve" smooth="yes"/>
      <point x="125" y="496"/>
      <point x="113" y="484"/>
    </contour>
    <contour>
      <point x="429" y="154" type="curve" smooth="yes"/>
      <point x="429" y="140"/>
      <point x="441" y="128"/>
      <point x="455" y="128" type="curve" smooth="yes"/>
      <point x="469" y="128"/>
      <point x="481" y="140"/>
      <point x="481" y="154" type="curve" smooth="yes"/>
      <point x="481" y="168"/>
      <point x="469" y="180"/>
      <point x="455" y="180" type="curve" smooth="yes"/>
      <point x="441" y="180"/>
      <point x="429" y="168"/>
    </contour>
    <contour>
      <point x="429" y="470" type="curve" smooth="yes"/>
      <point x="429" y="456"/>
      <point x="441" y="444"/>
      <point x="455" y="444" type="curve" smooth="yes"/>
      <point x="469" y="444"/>
      <point x="481" y="456"/>
      <point x="481" y="470" type="curve" smooth="yes"/>
      <point x="481" y="484"/>
      <point x="469" y="496"/>
      <point x="455" y="496" type="curve" smooth="yes"/>
      <point x="441" y="496"/>
      <point x="429" y="484"/>
    </contour>
    <contour>
      <point x="66" y="228" type="curve" smooth="yes"/>
      <point x="66" y="214"/>
      <point x="78" y="202"/>
      <point x="92" y="202" type="curve" smooth="yes"/>
      <point x="106" y="202"/>
      <point x="118" y="214"/>
      <point x="118" y="228" type="curve" smooth="yes"/>
      <point x="118" y="242"/>
      <point x="106" y="254"/>
      <point x="92" y="254" type="curve" smooth="yes"/>
      <point x="78" y="254"/>
      <point x="66" y="242"/>
    </contour>
    <contour>
      <point x="66" y="396" type="curve" smooth="yes"/>
      <point x="66" y="382"/>
      <point x="78" y="370"/>
      <point x="92" y="370" type="curve" smooth="yes"/>
      <point x="106" y="370"/>
      <point x="118" y="382"/>
      <point x="118" y="396" type="curve" smooth="yes"/>
      <point x="118" y="410"/>
      <point x="106" y="422"/>
      <point x="92" y="422" type="curve" smooth="yes"/>
      <point x="78" y="422"/>
      <point x="66" y="410"/>
    </contour>
    <contour>
      <point x="476" y="228" type="curve" smooth="yes"/>
      <point x="476" y="214"/>
      <point x="488" y="202"/>
      <point x="502" y="202" type="curve" smooth="yes"/>
      <point x="516" y="202"/>
      <point x="528" y="214"/>
      <point x="528" y="228" type="curve" smooth="yes"/>
      <point x="528" y="242"/>
      <point x="516" y="254"/>
      <point x="502" y="254" type="curve" smooth="yes"/>
      <point x="488" y="254"/>
      <point x="476" y="242"/>
    </contour>
    <contour>
      <point x="476" y="396" type="curve" smooth="yes"/>
      <point x="476" y="382"/>
      <point x="488" y="370"/>
      <point x="502" y="370" type="curve" smooth="yes"/>
      <point x="516" y="370"/>
      <point x="528" y="382"/>
      <point x="528" y="396" type="curve" smooth="yes"/>
      <point x="528" y="410"/>
      <point x="516" y="422"/>
      <point x="502" y="422" type="curve" smooth="yes"/>
      <point x="488" y="422"/>
      <point x="476" y="410"/>
    </contour>
  </outline>
</glyph>
<glyph name="i_cham" format="2">
  <advance width="1002"/>
  <unicode hex="AA01"/>
  <note>
uniAA01
</note>
  <outline>
    <contour>
      <point x="937" y="369" type="curve" smooth="yes"/>
      <point x="937" y="544"/>
      <point x="843" y="653"/>
      <point x="699" y="653" type="curve" smooth="yes"/>
      <point x="577" y="653"/>
      <point x="558" y="574"/>
      <point x="499" y="574" type="curve" smooth="yes"/>
      <point x="440" y="574"/>
      <point x="421" y="653"/>
      <point x="299" y="653" type="curve" smooth="yes"/>
      <point x="162" y="653"/>
      <point x="65" y="532"/>
      <point x="65" y="337" type="curve" smooth="yes"/>
      <point x="65" y="119"/>
      <point x="157" y="-14"/>
      <point x="330" y="-14" type="curve" smooth="yes"/>
      <point x="426" y="-14"/>
      <point x="483" y="41"/>
      <point x="483" y="119" type="curve" smooth="yes"/>
      <point x="483" y="199"/>
      <point x="424" y="249"/>
      <point x="341" y="249" type="curve" smooth="yes"/>
      <point x="251" y="249"/>
      <point x="187" y="179"/>
      <point x="176" y="79" type="curve"/>
      <point x="258" y="79" type="line"/>
      <point x="263" y="119"/>
      <point x="289" y="166"/>
      <point x="339" y="166" type="curve" smooth="yes"/>
      <point x="363" y="166"/>
      <point x="389" y="155"/>
      <point x="389" y="119" type="curve" smooth="yes"/>
      <point x="389" y="93"/>
      <point x="372" y="76"/>
      <point x="344" y="76" type="curve" smooth="yes"/>
      <point x="261" y="76"/>
      <point x="247" y="184"/>
      <point x="247" y="311" type="curve" smooth="yes"/>
      <point x="247" y="445"/>
      <point x="287" y="502"/>
      <point x="341" y="502" type="curve" smooth="yes"/>
      <point x="404" y="502"/>
      <point x="426" y="422"/>
      <point x="499" y="422" type="curve" smooth="yes"/>
      <point x="572" y="422"/>
      <point x="594" y="502"/>
      <point x="657" y="502" type="curve" smooth="yes"/>
      <point x="717" y="502"/>
      <point x="755" y="456"/>
      <point x="755" y="370" type="curve" smooth="yes"/>
      <point x="755" y="246"/>
      <point x="713" y="138"/>
      <point x="563" y="47" type="curve" smooth="yes"/>
      <point x="410" y="-46"/>
      <point x="379" y="-108"/>
      <point x="379" y="-190" type="curve" smooth="yes"/>
      <point x="379" y="-282"/>
      <point x="454" y="-346"/>
      <point x="538" y="-346" type="curve" smooth="yes"/>
      <point x="672" y="-346"/>
      <point x="702" y="-215"/>
      <point x="747" y="-215" type="curve" smooth="yes"/>
      <point x="763" y="-215"/>
      <point x="772" y="-223"/>
      <point x="772" y="-238" type="curve" smooth="yes"/>
      <point x="772" y="-248"/>
      <point x="769" y="-258"/>
      <point x="762" y="-269" type="curve"/>
      <point x="883" y="-320" type="line"/>
      <point x="907" y="-288"/>
      <point x="915" y="-242"/>
      <point x="915" y="-215" type="curve" smooth="yes"/>
      <point x="915" y="-144"/>
      <point x="857" y="-84"/>
      <point x="774" y="-84" type="curve" smooth="yes"/>
      <point x="658" y="-84"/>
      <point x="600" y="-214"/>
      <point x="557" y="-214" type="curve" smooth="yes"/>
      <point x="540" y="-214"/>
      <point x="527" y="-198"/>
      <point x="527" y="-175" type="curve" smooth="yes"/>
      <point x="527" y="-131"/>
      <point x="573" y="-108"/>
      <point x="685" y="-40" type="curve" smooth="yes"/>
      <point x="864" y="69"/>
      <point x="937" y="204"/>
    </contour>
  </outline>
</glyph>
<glyph name="u_cham" format="2">
  <advance width="675"/>
  <unicode hex="AA02"/>
  <note>
uniAA02
</note>
  <outline>
    <contour>
      <point x="633" y="425" type="curve" smooth="yes"/>
      <point x="633" y="560"/>
      <point x="515" y="653"/>
      <point x="333" y="653" type="curve" smooth="yes"/>
      <point x="157" y="653"/>
      <point x="36" y="556"/>
      <point x="36" y="411" type="curve" smooth="yes"/>
      <point x="36" y="370"/>
      <point x="53" y="312"/>
      <point x="85" y="266" type="curve"/>
      <point x="230" y="336" type="line"/>
      <point x="217" y="360"/>
      <point x="207" y="391"/>
      <point x="207" y="417" type="curve" smooth="yes"/>
      <point x="207" y="476"/>
      <point x="245" y="511"/>
      <point x="332" y="511" type="curve" smooth="yes"/>
      <point x="412" y="511"/>
      <point x="451" y="477"/>
      <point x="451" y="418" type="curve" smooth="yes"/>
      <point x="451" y="350"/>
      <point x="390" y="325"/>
      <point x="297" y="289" type="curve" smooth="yes"/>
      <point x="199" y="251"/>
      <point x="122" y="217"/>
      <point x="122" y="119" type="curve" smooth="yes"/>
      <point x="122" y="14"/>
      <point x="218" y="-29"/>
      <point x="353" y="-29" type="curve" smooth="yes"/>
      <point x="495" y="-29"/>
      <point x="574" y="42"/>
      <point x="574" y="147" type="curve"/>
      <point x="408" y="147" type="line"/>
      <point x="408" y="119"/>
      <point x="405" y="98"/>
      <point x="359" y="98" type="curve" smooth="yes"/>
      <point x="321" y="98"/>
      <point x="299" y="107"/>
      <point x="299" y="126" type="curve" smooth="yes"/>
      <point x="299" y="153"/>
      <point x="331" y="165"/>
      <point x="422" y="199" type="curve" smooth="yes"/>
      <point x="534" y="241"/>
      <point x="633" y="287"/>
    </contour>
  </outline>
</glyph>
<glyph name="e_cham" format="2">
  <advance width="1135"/>
  <unicode hex="AA03"/>
  <note>
uniAA03
</note>
  <outline>
    <contour>
      <point x="1093" y="719" type="curve" smooth="yes"/>
      <point x="1093" y="830"/>
      <point x="995" y="917"/>
      <point x="842" y="917" type="curve" smooth="yes"/>
      <point x="690" y="917"/>
      <point x="595" y="837"/>
      <point x="595" y="724" type="curve" smooth="yes"/>
      <point x="595" y="557"/>
      <point x="811" y="476"/>
      <point x="811" y="357" type="curve" smooth="yes"/>
      <point x="811" y="317"/>
      <point x="795" y="274"/>
      <point x="707" y="274" type="curve" smooth="yes"/>
      <point x="656" y="274"/>
      <point x="645" y="290"/>
      <point x="645" y="308" type="curve" smooth="yes"/>
      <point x="645" y="323"/>
      <point x="654" y="333"/>
      <point x="677" y="333" type="curve" smooth="yes"/>
      <point x="708" y="333"/>
      <point x="721" y="310"/>
      <point x="721" y="293" type="curve" smooth="yes"/>
      <point x="721" y="253"/>
      <point x="688" y="230"/>
      <point x="623" y="209" type="curve" smooth="yes"/>
      <point x="538" y="181"/>
      <point x="498" y="151"/>
      <point x="498" y="87" type="curve" smooth="yes"/>
      <point x="498" y="34"/>
      <point x="539" y="3"/>
      <point x="590" y="3" type="curve"/>
      <point x="547" y="101" type="line"/>
      <point x="544" y="101"/>
      <point x="539" y="101"/>
      <point x="537" y="101" type="curve"/>
      <point x="485" y="101"/>
      <point x="456" y="151"/>
      <point x="456" y="193" type="curve" smooth="yes"/>
      <point x="456" y="283"/>
      <point x="551" y="339"/>
      <point x="551" y="455" type="curve" smooth="yes"/>
      <point x="551" y="573"/>
      <point x="446" y="653"/>
      <point x="300" y="653" type="curve" smooth="yes"/>
      <point x="147" y="653"/>
      <point x="42" y="564"/>
      <point x="42" y="434" type="curve" smooth="yes"/>
      <point x="42" y="377"/>
      <point x="64" y="307"/>
      <point x="120" y="266" type="curve"/>
      <point x="253" y="366" type="line"/>
      <point x="237" y="380"/>
      <point x="220" y="410"/>
      <point x="220" y="440" type="curve" smooth="yes"/>
      <point x="220" y="481"/>
      <point x="249" y="512"/>
      <point x="295" y="512" type="curve" smooth="yes"/>
      <point x="342" y="512"/>
      <point x="369" y="479"/>
      <point x="369" y="439" type="curve" smooth="yes"/>
      <point x="369" y="363"/>
      <point x="275" y="304"/>
      <point x="275" y="194" type="curve" smooth="yes"/>
      <point x="275" y="70"/>
      <point x="388" y="-29"/>
      <point x="544" y="-29" type="curve" smooth="yes"/>
      <point x="575" y="-29"/>
      <point x="606" y="-28"/>
      <point x="624" y="-25" type="curve"/>
      <point x="663" y="66" type="line"/>
      <point x="642" y="79"/>
      <point x="633" y="86"/>
      <point x="633" y="97" type="curve" smooth="yes"/>
      <point x="633" y="107"/>
      <point x="640" y="115"/>
      <point x="706" y="137" type="curve" smooth="yes"/>
      <point x="780" y="162"/>
      <point x="831" y="203"/>
      <point x="831" y="287" type="curve" smooth="yes"/>
      <point x="831" y="359"/>
      <point x="766" y="411"/>
      <point x="683" y="411" type="curve" smooth="yes"/>
      <point x="601" y="411"/>
      <point x="553" y="367"/>
      <point x="553" y="309" type="curve" smooth="yes"/>
      <point x="553" y="244"/>
      <point x="617" y="192"/>
      <point x="733" y="192" type="curve" smooth="yes"/>
      <point x="856" y="192"/>
      <point x="957" y="264"/>
      <point x="957" y="382" type="curve" smooth="yes"/>
      <point x="957" y="544"/>
      <point x="774" y="622"/>
      <point x="774" y="713" type="curve" smooth="yes"/>
      <point x="774" y="750"/>
      <point x="801" y="775"/>
      <point x="847" y="775" type="curve" smooth="yes"/>
      <point x="888" y="775"/>
      <point x="919" y="755"/>
      <point x="919" y="716" type="curve" smooth="yes"/>
      <point x="919" y="694"/>
      <point x="908" y="678"/>
      <point x="896" y="668" type="curve"/>
      <point x="1012" y="567" type="line"/>
      <point x="1065" y="604"/>
      <point x="1093" y="661"/>
    </contour>
  </outline>
</glyph>
<glyph name="ai_cham" format="2">
  <advance width="1002"/>
  <unicode hex="AA04"/>
  <outline>
    <contour>
      <point x="937" y="351" type="curve" smooth="yes"/>
      <point x="937" y="544"/>
      <point x="843" y="653"/>
      <point x="699" y="653" type="curve" smooth="yes"/>
      <point x="577" y="653"/>
      <point x="558" y="574"/>
      <point x="499" y="574" type="curve" smooth="yes"/>
      <point x="440" y="574"/>
      <point x="421" y="653"/>
      <point x="299" y="653" type="curve" smooth="yes"/>
      <point x="162" y="653"/>
      <point x="65" y="534"/>
      <point x="65" y="342" type="curve" smooth="yes"/>
      <point x="65" y="139"/>
      <point x="157" y="15"/>
      <point x="330" y="15" type="curve" smooth="yes"/>
      <point x="426" y="15"/>
      <point x="483" y="70"/>
      <point x="483" y="148" type="curve" smooth="yes"/>
      <point x="483" y="228"/>
      <point x="424" y="278"/>
      <point x="341" y="278" type="curve" smooth="yes"/>
      <point x="251" y="278"/>
      <point x="187" y="208"/>
      <point x="176" y="108" type="curve"/>
      <point x="258" y="108" type="line"/>
      <point x="263" y="148"/>
      <point x="289" y="195"/>
      <point x="339" y="195" type="curve" smooth="yes"/>
      <point x="363" y="195"/>
      <point x="389" y="184"/>
      <point x="389" y="148" type="curve" smooth="yes"/>
      <point x="389" y="122"/>
      <point x="372" y="105"/>
      <point x="344" y="105" type="curve" smooth="yes"/>
      <point x="261" y="105"/>
      <point x="247" y="216"/>
      <point x="247" y="316" type="curve" smooth="yes"/>
      <point x="247" y="446"/>
      <point x="287" y="502"/>
      <point x="341" y="502" type="curve" smooth="yes"/>
      <point x="404" y="502"/>
      <point x="426" y="422"/>
      <point x="499" y="422" type="curve" smooth="yes"/>
      <point x="572" y="422"/>
      <point x="594" y="502"/>
      <point x="657" y="502" type="curve" smooth="yes"/>
      <point x="717" y="502"/>
      <point x="755" y="456"/>
      <point x="755" y="346" type="curve" smooth="yes"/>
      <point x="755" y="154"/>
      <point x="678" y="79"/>
      <point x="477" y="-10" type="curve" smooth="yes"/>
      <point x="371" y="-57"/>
      <point x="305" y="-113"/>
      <point x="305" y="-198" type="curve" smooth="yes"/>
      <point x="305" y="-297"/>
      <point x="401" y="-346"/>
      <point x="536" y="-346" type="curve" smooth="yes"/>
      <point x="678" y="-346"/>
      <point x="757" y="-275"/>
      <point x="757" y="-170" type="curve"/>
      <point x="591" y="-170" type="line"/>
      <point x="591" y="-198"/>
      <point x="588" y="-219"/>
      <point x="542" y="-219" type="curve" smooth="yes"/>
      <point x="504" y="-219"/>
      <point x="482" y="-210"/>
      <point x="482" y="-191" type="curve" smooth="yes"/>
      <point x="482" y="-164"/>
      <point x="514" y="-137"/>
      <point x="603" y="-99" type="curve" smooth="yes"/>
      <point x="836" y="1"/>
      <point x="937" y="118"/>
    </contour>
  </outline>
</glyph>
<glyph name="o_cham" format="2">
  <advance width="687"/>
  <unicode hex="AA05"/>
  <outline>
    <contour>
      <point x="630" y="430" type="curve" smooth="yes"/>
      <point x="630" y="567"/>
      <point x="512" y="653"/>
      <point x="337" y="653" type="curve" smooth="yes"/>
      <point x="159" y="653"/>
      <point x="49" y="565"/>
      <point x="49" y="413" type="curve" smooth="yes"/>
      <point x="49" y="292"/>
      <point x="132" y="219"/>
      <point x="238" y="219" type="curve" smooth="yes"/>
      <point x="314" y="219"/>
      <point x="358" y="259"/>
      <point x="358" y="319" type="curve" smooth="yes"/>
      <point x="358" y="377"/>
      <point x="317" y="413"/>
      <point x="259" y="413" type="curve" smooth="yes"/>
      <point x="200" y="413"/>
      <point x="156" y="378"/>
      <point x="137" y="327" type="curve"/>
      <point x="193" y="270" type="line"/>
      <point x="198" y="316"/>
      <point x="220" y="346"/>
      <point x="251" y="346" type="curve" smooth="yes"/>
      <point x="264" y="346"/>
      <point x="281" y="338"/>
      <point x="281" y="319" type="curve" smooth="yes"/>
      <point x="281" y="306"/>
      <point x="276" y="291"/>
      <point x="253" y="291" type="curve" smooth="yes"/>
      <point x="220" y="291"/>
      <point x="200" y="323"/>
      <point x="200" y="391" type="curve" smooth="yes"/>
      <point x="200" y="467"/>
      <point x="246" y="511"/>
      <point x="327" y="511" type="curve" smooth="yes"/>
      <point x="396" y="511"/>
      <point x="447" y="474"/>
      <point x="447" y="406" type="curve" smooth="yes"/>
      <point x="447" y="370"/>
      <point x="434" y="332"/>
      <point x="392" y="311" type="curve"/>
      <point x="392" y="238" type="line"/>
      <point x="450" y="219"/>
      <point x="485" y="183"/>
      <point x="485" y="138" type="curve" smooth="yes"/>
      <point x="485" y="81"/>
      <point x="440" y="53"/>
      <point x="379" y="53" type="curve" smooth="yes"/>
      <point x="302" y="53"/>
      <point x="280" y="69"/>
      <point x="280" y="91" type="curve" smooth="yes"/>
      <point x="280" y="107"/>
      <point x="293" y="116"/>
      <point x="313" y="116" type="curve" smooth="yes"/>
      <point x="345" y="116"/>
      <point x="365" y="94"/>
      <point x="365" y="57" type="curve" smooth="yes"/>
      <point x="365" y="40"/>
      <point x="362" y="21"/>
      <point x="357" y="3" type="curve"/>
      <point x="443" y="14" type="line"/>
      <point x="445" y="28"/>
      <point x="446" y="43"/>
      <point x="446" y="53" type="curve" smooth="yes"/>
      <point x="446" y="120"/>
      <point x="400" y="193"/>
      <point x="306" y="193" type="curve" smooth="yes"/>
      <point x="238" y="193"/>
      <point x="187" y="152"/>
      <point x="187" y="93" type="curve" smooth="yes"/>
      <point x="187" y="19"/>
      <point x="259" y="-29"/>
      <point x="394" y="-29" type="curve" smooth="yes"/>
      <point x="564" y="-29"/>
      <point x="630" y="54"/>
      <point x="630" y="142" type="curve" smooth="yes"/>
      <point x="630" y="200"/>
      <point x="600" y="268"/>
      <point x="479" y="303" type="curve"/>
      <point x="479" y="236" type="line"/>
      <point x="595" y="280"/>
      <point x="630" y="360"/>
    </contour>
  </outline>
</glyph>
<glyph name="ka_cham" format="2">
  <advance width="954"/>
  <unicode hex="AA06"/>
  <note>
uniAA06
</note>
  <outline>
    <contour>
      <point x="912" y="441" type="curve" smooth="yes"/>
      <point x="912" y="567"/>
      <point x="821" y="653"/>
      <point x="689" y="653" type="curve" smooth="yes"/>
      <point x="550" y="653"/>
      <point x="457" y="560"/>
      <point x="457" y="414" type="curve"/>
      <point x="564" y="414" type="line"/>
      <point x="564" y="560"/>
      <point x="466" y="653"/>
      <point x="327" y="653" type="curve" smooth="yes"/>
      <point x="197" y="653"/>
      <point x="108" y="569"/>
      <point x="108" y="454" type="curve" smooth="yes"/>
      <point x="108" y="353"/>
      <point x="170" y="272"/>
      <point x="170" y="207" type="curve" smooth="yes"/>
      <point x="170" y="138"/>
      <point x="119" y="104"/>
      <point x="45" y="84" type="curve"/>
      <point x="76" y="-64" type="line"/>
      <point x="249" y="-36"/>
      <point x="352" y="60"/>
      <point x="352" y="195" type="curve" smooth="yes"/>
      <point x="352" y="295"/>
      <point x="290" y="378"/>
      <point x="290" y="443" type="curve" smooth="yes"/>
      <point x="290" y="481"/>
      <point x="316" y="511"/>
      <point x="359" y="511" type="curve" smooth="yes"/>
      <point x="408" y="511"/>
      <point x="440" y="476"/>
      <point x="434" y="391" type="curve"/>
      <point x="587" y="391" type="line"/>
      <point x="581" y="478"/>
      <point x="617" y="511"/>
      <point x="665" y="511" type="curve" smooth="yes"/>
      <point x="706" y="511"/>
      <point x="734" y="484"/>
      <point x="734" y="443" type="curve" smooth="yes"/>
      <point x="734" y="412"/>
      <point x="723" y="390"/>
      <point x="699" y="367" type="curve"/>
      <point x="835" y="272" type="line"/>
      <point x="892" y="329"/>
      <point x="912" y="379"/>
    </contour>
  </outline>
</glyph>
<glyph name="kha_cham" format="2">
  <advance width="1456"/>
  <unicode hex="AA07"/>
  <note>
uniAA07
</note>
  <outline>
    <contour>
      <point x="1414" y="441" type="curve" smooth="yes"/>
      <point x="1414" y="567"/>
      <point x="1324" y="653"/>
      <point x="1186" y="653" type="curve" smooth="yes"/>
      <point x="1073" y="653"/>
      <point x="988" y="608"/>
      <point x="963" y="490" type="curve" smooth="yes"/>
      <point x="938" y="374"/>
      <point x="892" y="359"/>
      <point x="791" y="352" type="curve" smooth="yes"/>
      <point x="623" y="340"/>
      <point x="499" y="267"/>
      <point x="499" y="143" type="curve" smooth="yes"/>
      <point x="499" y="34"/>
      <point x="574" y="-29"/>
      <point x="682" y="-29" type="curve" smooth="yes"/>
      <point x="827" y="-29"/>
      <point x="929" y="101"/>
      <point x="929" y="328" type="curve" smooth="yes"/>
      <point x="929" y="537"/>
      <point x="839" y="653"/>
      <point x="689" y="653" type="curve" smooth="yes"/>
      <point x="552" y="653"/>
      <point x="457" y="560"/>
      <point x="457" y="414" type="curve"/>
      <point x="564" y="414" type="line"/>
      <point x="564" y="560"/>
      <point x="466" y="653"/>
      <point x="327" y="653" type="curve" smooth="yes"/>
      <point x="197" y="653"/>
      <point x="108" y="569"/>
      <point x="108" y="454" type="curve" smooth="yes"/>
      <point x="108" y="353"/>
      <point x="170" y="272"/>
      <point x="170" y="207" type="curve" smooth="yes"/>
      <point x="170" y="138"/>
      <point x="119" y="104"/>
      <point x="45" y="84" type="curve"/>
      <point x="76" y="-64" type="line"/>
      <point x="249" y="-36"/>
      <point x="352" y="60"/>
      <point x="352" y="195" type="curve" smooth="yes"/>
      <point x="352" y="295"/>
      <point x="290" y="378"/>
      <point x="290" y="443" type="curve" smooth="yes"/>
      <point x="290" y="481"/>
      <point x="316" y="511"/>
      <point x="359" y="511" type="curve" smooth="yes"/>
      <point x="408" y="511"/>
      <point x="440" y="476"/>
      <point x="434" y="391" type="curve"/>
      <point x="587" y="391" type="line"/>
      <point x="582" y="480"/>
      <point x="622" y="511"/>
      <point x="666" y="511" type="curve" smooth="yes"/>
      <point x="722" y="511"/>
      <point x="752" y="453"/>
      <point x="752" y="330" type="curve" smooth="yes"/>
      <point x="752" y="179"/>
      <point x="721" y="109"/>
      <point x="685" y="109" type="curve" smooth="yes"/>
      <point x="664" y="109"/>
      <point x="653" y="125"/>
      <point x="653" y="149" type="curve" smooth="yes"/>
      <point x="653" y="187"/>
      <point x="685" y="228"/>
      <point x="864" y="255" type="curve" smooth="yes"/>
      <point x="1010" y="277"/>
      <point x="1064" y="310"/>
      <point x="1085" y="415" type="curve" smooth="yes"/>
      <point x="1098" y="479"/>
      <point x="1118" y="511"/>
      <point x="1168" y="511" type="curve" smooth="yes"/>
      <point x="1209" y="511"/>
      <point x="1236" y="484"/>
      <point x="1236" y="443" type="curve" smooth="yes"/>
      <point x="1236" y="412"/>
      <point x="1225" y="390"/>
      <point x="1201" y="367" type="curve"/>
      <point x="1337" y="272" type="line"/>
      <point x="1394" y="329"/>
      <point x="1414" y="379"/>
    </contour>
  </outline>
</glyph>
<glyph name="ga_cham" format="2">
  <advance width="945"/>
  <unicode hex="AA08"/>
  <note>
uniAA08
</note>
  <outline>
    <contour>
      <point x="903" y="441" type="curve" smooth="yes"/>
      <point x="903" y="567"/>
      <point x="812" y="653"/>
      <point x="681" y="653" type="curve" smooth="yes"/>
      <point x="540" y="653"/>
      <point x="447" y="560"/>
      <point x="447" y="414" type="curve"/>
      <point x="554" y="414" type="line"/>
      <point x="554" y="560"/>
      <point x="467" y="653"/>
      <point x="331" y="653" type="curve" smooth="yes"/>
      <point x="168" y="653"/>
      <point x="65" y="529"/>
      <point x="65" y="330" type="curve" smooth="yes"/>
      <point x="65" y="107"/>
      <point x="197" y="-29"/>
      <point x="377" y="-29" type="curve" smooth="yes"/>
      <point x="477" y="-29"/>
      <point x="534" y="26"/>
      <point x="534" y="104" type="curve" smooth="yes"/>
      <point x="534" y="184"/>
      <point x="475" y="234"/>
      <point x="392" y="234" type="curve" smooth="yes"/>
      <point x="302" y="234"/>
      <point x="238" y="164"/>
      <point x="227" y="64" type="curve"/>
      <point x="309" y="64" type="line"/>
      <point x="314" y="104"/>
      <point x="340" y="151"/>
      <point x="390" y="151" type="curve" smooth="yes"/>
      <point x="414" y="151"/>
      <point x="440" y="140"/>
      <point x="440" y="104" type="curve" smooth="yes"/>
      <point x="440" y="78"/>
      <point x="423" y="61"/>
      <point x="395" y="61" type="curve" smooth="yes"/>
      <point x="312" y="61"/>
      <point x="247" y="147"/>
      <point x="247" y="332" type="curve" smooth="yes"/>
      <point x="247" y="446"/>
      <point x="287" y="511"/>
      <point x="349" y="511" type="curve" smooth="yes"/>
      <point x="397" y="511"/>
      <point x="430" y="475"/>
      <point x="424" y="391" type="curve"/>
      <point x="577" y="391" type="line"/>
      <point x="571" y="478"/>
      <point x="606" y="511"/>
      <point x="656" y="511" type="curve" smooth="yes"/>
      <point x="697" y="511"/>
      <point x="727" y="484"/>
      <point x="727" y="442" type="curve" smooth="yes"/>
      <point x="727" y="410"/>
      <point x="716" y="388"/>
      <point x="692" y="364" type="curve"/>
      <point x="829" y="269" type="line"/>
      <point x="884" y="332"/>
      <point x="903" y="379"/>
    </contour>
  </outline>
</glyph>
<glyph name="gha_cham" format="2">
  <advance width="1492"/>
  <unicode hex="AA09"/>
  <note>
uniAA09
</note>
  <outline>
    <contour>
      <point x="1450" y="441" type="curve" smooth="yes"/>
      <point x="1450" y="567"/>
      <point x="1359" y="653"/>
      <point x="1227" y="653" type="curve" smooth="yes"/>
      <point x="1088" y="653"/>
      <point x="995" y="560"/>
      <point x="995" y="414" type="curve"/>
      <point x="1102" y="414" type="line"/>
      <point x="1102" y="560"/>
      <point x="1004" y="653"/>
      <point x="865" y="653" type="curve" smooth="yes"/>
      <point x="733" y="653"/>
      <point x="651" y="579"/>
      <point x="651" y="475" type="curve" smooth="yes"/>
      <point x="651" y="437"/>
      <point x="663" y="401"/>
      <point x="663" y="376" type="curve" smooth="yes"/>
      <point x="663" y="276"/>
      <point x="520" y="280"/>
      <point x="520" y="144" type="curve" smooth="yes"/>
      <point x="520" y="112"/>
      <point x="527" y="91"/>
      <point x="559" y="68" type="curve"/>
      <point x="542" y="106" type="line"/>
      <point x="538" y="106"/>
      <point x="533" y="106"/>
      <point x="531" y="106" type="curve" smooth="yes"/>
      <point x="503" y="106"/>
      <point x="481" y="150"/>
      <point x="481" y="193" type="curve" smooth="yes"/>
      <point x="481" y="269"/>
      <point x="551" y="340"/>
      <point x="551" y="445" type="curve" smooth="yes"/>
      <point x="551" y="573"/>
      <point x="446" y="653"/>
      <point x="299" y="653" type="curve" smooth="yes"/>
      <point x="145" y="653"/>
      <point x="42" y="567"/>
      <point x="42" y="437" type="curve" smooth="yes"/>
      <point x="42" y="381"/>
      <point x="63" y="320"/>
      <point x="121" y="269" type="curve"/>
      <point x="254" y="368" type="line"/>
      <point x="233" y="387"/>
      <point x="220" y="413"/>
      <point x="220" y="441" type="curve" smooth="yes"/>
      <point x="220" y="485"/>
      <point x="251" y="511"/>
      <point x="296" y="511" type="curve" smooth="yes"/>
      <point x="344" y="511"/>
      <point x="369" y="476"/>
      <point x="369" y="437" type="curve" smooth="yes"/>
      <point x="369" y="355"/>
      <point x="299" y="287"/>
      <point x="299" y="189" type="curve" smooth="yes"/>
      <point x="299" y="69"/>
      <point x="404" y="-29"/>
      <point x="568" y="-29" type="curve" smooth="yes"/>
      <point x="600" y="-29"/>
      <point x="631" y="-28"/>
      <point x="650" y="-25" type="curve"/>
      <point x="689" y="66" type="line"/>
      <point x="667" y="91"/>
      <point x="658" y="105"/>
      <point x="658" y="126" type="curve" smooth="yes"/>
      <point x="658" y="224"/>
      <point x="837" y="210"/>
      <point x="837" y="356" type="curve" smooth="yes"/>
      <point x="837" y="394"/>
      <point x="825" y="423"/>
      <point x="825" y="446" type="curve" smooth="yes"/>
      <point x="825" y="486"/>
      <point x="853" y="511"/>
      <point x="897" y="511" type="curve" smooth="yes"/>
      <point x="946" y="511"/>
      <point x="978" y="476"/>
      <point x="972" y="391" type="curve"/>
      <point x="1125" y="391" type="line"/>
      <point x="1119" y="478"/>
      <point x="1155" y="511"/>
      <point x="1203" y="511" type="curve" smooth="yes"/>
      <point x="1244" y="511"/>
      <point x="1272" y="484"/>
      <point x="1272" y="443" type="curve" smooth="yes"/>
      <point x="1272" y="412"/>
      <point x="1261" y="390"/>
      <point x="1237" y="367" type="curve"/>
      <point x="1373" y="272" type="line"/>
      <point x="1430" y="329"/>
      <point x="1450" y="379"/>
    </contour>
  </outline>
</glyph>
<glyph name="nga_cham" format="2">
  <advance width="1265"/>
  <unicode hex="AA0B"/>
  <note>
uniAA0B
</note>
  <outline>
    <contour>
      <point x="1223" y="415" type="curve" smooth="yes"/>
      <point x="1223" y="558"/>
      <point x="1109" y="653"/>
      <point x="943" y="653" type="curve" smooth="yes"/>
      <point x="776" y="653"/>
      <point x="662" y="558"/>
      <point x="662" y="415" type="curve" smooth="yes"/>
      <point x="662" y="293"/>
      <point x="745" y="212"/>
      <point x="855" y="212" type="curve" smooth="yes"/>
      <point x="937" y="212"/>
      <point x="980" y="252"/>
      <point x="980" y="320" type="curve" smooth="yes"/>
      <point x="980" y="380"/>
      <point x="939" y="421"/>
      <point x="870" y="421" type="curve" smooth="yes"/>
      <point x="763" y="421"/>
      <point x="700" y="370"/>
      <point x="700" y="282" type="curve" smooth="yes"/>
      <point x="700" y="271"/>
      <point x="701" y="256"/>
      <point x="701" y="250" type="curve" smooth="yes"/>
      <point x="701" y="201"/>
      <point x="698" y="149"/>
      <point x="663" y="127" type="curve" smooth="yes"/>
      <point x="639" y="112"/>
      <point x="553" y="89"/>
      <point x="495" y="73" type="curve"/>
      <point x="490" y="30" type="line"/>
      <point x="583" y="84"/>
      <point x="616" y="145"/>
      <point x="616" y="209" type="curve" smooth="yes"/>
      <point x="616" y="310"/>
      <point x="532" y="363"/>
      <point x="428" y="363" type="curve" smooth="yes"/>
      <point x="404" y="363"/>
      <point x="379" y="360"/>
      <point x="354" y="355" type="curve"/>
      <point x="399" y="256" type="line"/>
      <point x="496" y="289"/>
      <point x="551" y="368"/>
      <point x="551" y="449" type="curve" smooth="yes"/>
      <point x="551" y="573"/>
      <point x="446" y="653"/>
      <point x="299" y="653" type="curve" smooth="yes"/>
      <point x="145" y="653"/>
      <point x="42" y="567"/>
      <point x="42" y="437" type="curve" smooth="yes"/>
      <point x="42" y="381"/>
      <point x="63" y="320"/>
      <point x="121" y="269" type="curve"/>
      <point x="254" y="368" type="line"/>
      <point x="233" y="387"/>
      <point x="220" y="413"/>
      <point x="220" y="441" type="curve" smooth="yes"/>
      <point x="220" y="485"/>
      <point x="251" y="511"/>
      <point x="296" y="511" type="curve" smooth="yes"/>
      <point x="344" y="511"/>
      <point x="369" y="476"/>
      <point x="369" y="437" type="curve" smooth="yes"/>
      <point x="369" y="390"/>
      <point x="337" y="355"/>
      <point x="278" y="336" type="curve"/>
      <point x="312" y="236" type="line"/>
      <point x="328" y="243"/>
      <point x="346" y="247"/>
      <point x="363" y="247" type="curve" smooth="yes"/>
      <point x="400" y="247"/>
      <point x="438" y="226"/>
      <point x="438" y="168" type="curve" smooth="yes"/>
      <point x="438" y="126"/>
      <point x="425" y="63"/>
      <point x="360" y="-6" type="curve" smooth="yes"/>
      <point x="285" y="-85"/>
      <point x="239" y="-135"/>
      <point x="239" y="-209" type="curve" smooth="yes"/>
      <point x="239" y="-294"/>
      <point x="314" y="-346"/>
      <point x="398" y="-346" type="curve" smooth="yes"/>
      <point x="532" y="-346"/>
      <point x="562" y="-215"/>
      <point x="607" y="-215" type="curve" smooth="yes"/>
      <point x="623" y="-215"/>
      <point x="632" y="-223"/>
      <point x="632" y="-238" type="curve" smooth="yes"/>
      <point x="632" y="-248"/>
      <point x="629" y="-258"/>
      <point x="622" y="-269" type="curve"/>
      <point x="743" y="-320" type="line"/>
      <point x="767" y="-288"/>
      <point x="775" y="-242"/>
      <point x="775" y="-215" type="curve" smooth="yes"/>
      <point x="775" y="-144"/>
      <point x="717" y="-84"/>
      <point x="634" y="-84" type="curve" smooth="yes"/>
      <point x="518" y="-84"/>
      <point x="460" y="-214"/>
      <point x="417" y="-214" type="curve" smooth="yes"/>
      <point x="400" y="-214"/>
      <point x="387" y="-199"/>
      <point x="387" y="-181" type="curve" smooth="yes"/>
      <point x="387" y="-161"/>
      <point x="403" y="-129"/>
      <point x="462" y="-91" type="curve" smooth="yes"/>
      <point x="547" y="-36"/>
      <point x="633" y="-25"/>
      <point x="706" y="0" type="curve" smooth="yes"/>
      <point x="800" y="32"/>
      <point x="834" y="83"/>
      <point x="834" y="207" type="curve" smooth="yes"/>
      <point x="834" y="244"/>
      <point x="832" y="273"/>
      <point x="832" y="304" type="curve" smooth="yes"/>
      <point x="832" y="328"/>
      <point x="848" y="343"/>
      <point x="867" y="343" type="curve" smooth="yes"/>
      <point x="884" y="343"/>
      <point x="897" y="333"/>
      <point x="897" y="317" type="curve" smooth="yes"/>
      <point x="897" y="302"/>
      <point x="887" y="289"/>
      <point x="867" y="289" type="curve" smooth="yes"/>
      <point x="842" y="289"/>
      <point x="821" y="324"/>
      <point x="821" y="406" type="curve" smooth="yes"/>
      <point x="821" y="478"/>
      <point x="867" y="511"/>
      <point x="933" y="511" type="curve" smooth="yes"/>
      <point x="998" y="511"/>
      <point x="1045" y="478"/>
      <point x="1045" y="419" type="curve" smooth="yes"/>
      <point x="1045" y="385"/>
      <point x="1029" y="353"/>
      <point x="1004" y="330" type="curve"/>
      <point x="1137" y="231" type="line"/>
      <point x="1200" y="287"/>
      <point x="1223" y="354"/>
    </contour>
  </outline>
</glyph>
<glyph name="cha_cham" format="2">
  <advance width="1104"/>
  <unicode hex="AA0C"/>
  <note>
uniAA0C
</note>
  <outline>
    <contour>
      <point x="1062" y="441" type="curve" smooth="yes"/>
      <point x="1062" y="567"/>
      <point x="972" y="653"/>
      <point x="834" y="653" type="curve" smooth="yes"/>
      <point x="721" y="653"/>
      <point x="636" y="608"/>
      <point x="611" y="490" type="curve" smooth="yes"/>
      <point x="586" y="374"/>
      <point x="540" y="359"/>
      <point x="439" y="352" type="curve" smooth="yes"/>
      <point x="271" y="340"/>
      <point x="147" y="267"/>
      <point x="147" y="143" type="curve" smooth="yes"/>
      <point x="147" y="34"/>
      <point x="222" y="-29"/>
      <point x="330" y="-29" type="curve" smooth="yes"/>
      <point x="475" y="-29"/>
      <point x="577" y="101"/>
      <point x="577" y="296" type="curve" smooth="yes"/>
      <point x="577" y="524"/>
      <point x="463" y="653"/>
      <point x="286" y="653" type="curve" smooth="yes"/>
      <point x="147" y="653"/>
      <point x="56" y="578"/>
      <point x="56" y="470" type="curve" smooth="yes"/>
      <point x="56" y="395"/>
      <point x="91" y="339"/>
      <point x="137" y="309" type="curve"/>
      <point x="251" y="404" type="line"/>
      <point x="241" y="411"/>
      <point x="228" y="429"/>
      <point x="228" y="455" type="curve" smooth="yes"/>
      <point x="228" y="494"/>
      <point x="259" y="511"/>
      <point x="290" y="511" type="curve" smooth="yes"/>
      <point x="359" y="511"/>
      <point x="400" y="443"/>
      <point x="400" y="305" type="curve" smooth="yes"/>
      <point x="400" y="179"/>
      <point x="369" y="109"/>
      <point x="333" y="109" type="curve" smooth="yes"/>
      <point x="312" y="109"/>
      <point x="301" y="125"/>
      <point x="301" y="149" type="curve" smooth="yes"/>
      <point x="301" y="187"/>
      <point x="333" y="228"/>
      <point x="512" y="255" type="curve" smooth="yes"/>
      <point x="658" y="277"/>
      <point x="712" y="310"/>
      <point x="733" y="415" type="curve" smooth="yes"/>
      <point x="746" y="479"/>
      <point x="766" y="511"/>
      <point x="816" y="511" type="curve" smooth="yes"/>
      <point x="857" y="511"/>
      <point x="884" y="484"/>
      <point x="884" y="443" type="curve" smooth="yes"/>
      <point x="884" y="412"/>
      <point x="873" y="390"/>
      <point x="849" y="367" type="curve"/>
      <point x="985" y="272" type="line"/>
      <point x="1042" y="329"/>
      <point x="1062" y="379"/>
    </contour>
  </outline>
</glyph>
<glyph name="chha_cham" format="2">
  <advance width="1772"/>
  <unicode hex="AA0D"/>
  <note>
uniAA0D
</note>
  <outline>
    <contour>
      <point x="1730" y="443" type="curve" smooth="yes"/>
      <point x="1730" y="567"/>
      <point x="1634" y="653"/>
      <point x="1480" y="653" type="curve" smooth="yes"/>
      <point x="1329" y="653"/>
      <point x="1235" y="582"/>
      <point x="1235" y="480" type="curve" smooth="yes"/>
      <point x="1235" y="406"/>
      <point x="1282" y="345"/>
      <point x="1282" y="297" type="curve" smooth="yes"/>
      <point x="1282" y="263"/>
      <point x="1233" y="234"/>
      <point x="1200" y="234" type="curve" smooth="yes"/>
      <point x="1160" y="234"/>
      <point x="1142" y="249"/>
      <point x="1142" y="268" type="curve" smooth="yes"/>
      <point x="1142" y="285"/>
      <point x="1154" y="293"/>
      <point x="1168" y="293" type="curve" smooth="yes"/>
      <point x="1197" y="293"/>
      <point x="1213" y="265"/>
      <point x="1213" y="212" type="curve" smooth="yes"/>
      <point x="1213" y="137"/>
      <point x="1171" y="109"/>
      <point x="1107" y="109" type="curve" smooth="yes"/>
      <point x="1033" y="109"/>
      <point x="991" y="151"/>
      <point x="991" y="208" type="curve" smooth="yes"/>
      <point x="991" y="271"/>
      <point x="1069" y="343"/>
      <point x="1069" y="455" type="curve" smooth="yes"/>
      <point x="1069" y="573"/>
      <point x="967" y="653"/>
      <point x="834" y="653" type="curve" smooth="yes"/>
      <point x="721" y="653"/>
      <point x="636" y="608"/>
      <point x="611" y="490" type="curve" smooth="yes"/>
      <point x="586" y="374"/>
      <point x="540" y="359"/>
      <point x="439" y="352" type="curve" smooth="yes"/>
      <point x="271" y="340"/>
      <point x="147" y="267"/>
      <point x="147" y="143" type="curve" smooth="yes"/>
      <point x="147" y="34"/>
      <point x="222" y="-29"/>
      <point x="330" y="-29" type="curve" smooth="yes"/>
      <point x="475" y="-29"/>
      <point x="577" y="101"/>
      <point x="577" y="296" type="curve" smooth="yes"/>
      <point x="577" y="524"/>
      <point x="463" y="653"/>
      <point x="286" y="653" type="curve" smooth="yes"/>
      <point x="147" y="653"/>
      <point x="56" y="578"/>
      <point x="56" y="470" type="curve" smooth="yes"/>
      <point x="56" y="395"/>
      <point x="91" y="339"/>
      <point x="137" y="309" type="curve"/>
      <point x="251" y="404" type="line"/>
      <point x="241" y="411"/>
      <point x="228" y="429"/>
      <point x="228" y="455" type="curve" smooth="yes"/>
      <point x="228" y="494"/>
      <point x="259" y="511"/>
      <point x="290" y="511" type="curve" smooth="yes"/>
      <point x="359" y="511"/>
      <point x="400" y="443"/>
      <point x="400" y="305" type="curve" smooth="yes"/>
      <point x="400" y="179"/>
      <point x="369" y="109"/>
      <point x="333" y="109" type="curve" smooth="yes"/>
      <point x="312" y="109"/>
      <point x="301" y="125"/>
      <point x="301" y="149" type="curve" smooth="yes"/>
      <point x="301" y="187"/>
      <point x="333" y="228"/>
      <point x="512" y="255" type="curve" smooth="yes"/>
      <point x="658" y="277"/>
      <point x="712" y="310"/>
      <point x="733" y="415" type="curve" smooth="yes"/>
      <point x="746" y="479"/>
      <point x="766" y="511"/>
      <point x="816" y="511" type="curve" smooth="yes"/>
      <point x="864" y="511"/>
      <point x="887" y="479"/>
      <point x="887" y="438" type="curve" smooth="yes"/>
      <point x="887" y="364"/>
      <point x="809" y="291"/>
      <point x="809" y="188" type="curve" smooth="yes"/>
      <point x="809" y="59"/>
      <point x="910" y="-29"/>
      <point x="1081" y="-29" type="curve" smooth="yes"/>
      <point x="1242" y="-29"/>
      <point x="1335" y="53"/>
      <point x="1335" y="203" type="curve" smooth="yes"/>
      <point x="1335" y="305"/>
      <point x="1258" y="371"/>
      <point x="1170" y="371" type="curve" smooth="yes"/>
      <point x="1100" y="371"/>
      <point x="1049" y="334"/>
      <point x="1049" y="267" type="curve" smooth="yes"/>
      <point x="1049" y="195"/>
      <point x="1114" y="152"/>
      <point x="1216" y="152" type="curve" smooth="yes"/>
      <point x="1319" y="152"/>
      <point x="1430" y="209"/>
      <point x="1430" y="306" type="curve" smooth="yes"/>
      <point x="1430" y="358"/>
      <point x="1403" y="405"/>
      <point x="1403" y="443" type="curve" smooth="yes"/>
      <point x="1403" y="485"/>
      <point x="1433" y="511"/>
      <point x="1480" y="511" type="curve" smooth="yes"/>
      <point x="1523" y="511"/>
      <point x="1552" y="488"/>
      <point x="1552" y="442" type="curve" smooth="yes"/>
      <point x="1552" y="414"/>
      <point x="1541" y="390"/>
      <point x="1517" y="367" type="curve"/>
      <point x="1655" y="272" type="line"/>
      <point x="1711" y="334"/>
      <point x="1730" y="380"/>
    </contour>
  </outline>
</glyph>
<glyph name="ja_cham" format="2">
  <advance width="1491"/>
  <unicode hex="AA0E"/>
  <note>
uniAA0E
</note>
  <outline>
    <contour>
      <point x="1449" y="441" type="curve" smooth="yes"/>
      <point x="1449" y="567"/>
      <point x="1358" y="653"/>
      <point x="1226" y="653" type="curve" smooth="yes"/>
      <point x="1087" y="653"/>
      <point x="994" y="560"/>
      <point x="994" y="414" type="curve"/>
      <point x="1101" y="414" type="line"/>
      <point x="1101" y="560"/>
      <point x="1003" y="653"/>
      <point x="864" y="653" type="curve" smooth="yes"/>
      <point x="734" y="653"/>
      <point x="645" y="572"/>
      <point x="645" y="451" type="curve" smooth="yes"/>
      <point x="645" y="358"/>
      <point x="684" y="293"/>
      <point x="684" y="238" type="curve" smooth="yes"/>
      <point x="684" y="152"/>
      <point x="624" y="121"/>
      <point x="504" y="104" type="curve"/>
      <point x="490" y="5" type="line"/>
      <point x="582" y="66"/>
      <point x="616" y="138"/>
      <point x="616" y="207" type="curve" smooth="yes"/>
      <point x="616" y="310"/>
      <point x="532" y="363"/>
      <point x="428" y="363" type="curve" smooth="yes"/>
      <point x="404" y="363"/>
      <point x="379" y="360"/>
      <point x="354" y="355" type="curve"/>
      <point x="399" y="256" type="line"/>
      <point x="496" y="289"/>
      <point x="551" y="368"/>
      <point x="551" y="449" type="curve" smooth="yes"/>
      <point x="551" y="573"/>
      <point x="446" y="653"/>
      <point x="299" y="653" type="curve" smooth="yes"/>
      <point x="145" y="653"/>
      <point x="42" y="567"/>
      <point x="42" y="437" type="curve" smooth="yes"/>
      <point x="42" y="381"/>
      <point x="63" y="320"/>
      <point x="121" y="269" type="curve"/>
      <point x="254" y="368" type="line"/>
      <point x="233" y="387"/>
      <point x="220" y="413"/>
      <point x="220" y="441" type="curve" smooth="yes"/>
      <point x="220" y="485"/>
      <point x="251" y="511"/>
      <point x="296" y="511" type="curve" smooth="yes"/>
      <point x="344" y="511"/>
      <point x="369" y="476"/>
      <point x="369" y="437" type="curve" smooth="yes"/>
      <point x="369" y="390"/>
      <point x="337" y="355"/>
      <point x="278" y="336" type="curve"/>
      <point x="312" y="236" type="line"/>
      <point x="328" y="243"/>
      <point x="346" y="247"/>
      <point x="363" y="247" type="curve" smooth="yes"/>
      <point x="400" y="247"/>
      <point x="438" y="227"/>
      <point x="438" y="175" type="curve" smooth="yes"/>
      <point x="438" y="125"/>
      <point x="420" y="92"/>
      <point x="367" y="24" type="curve"/>
      <point x="396" y="-61" type="line"/>
      <point x="666" y="-10"/>
      <point x="868" y="86"/>
      <point x="868" y="241" type="curve" smooth="yes"/>
      <point x="868" y="318"/>
      <point x="827" y="380"/>
      <point x="827" y="445" type="curve" smooth="yes"/>
      <point x="827" y="480"/>
      <point x="853" y="511"/>
      <point x="896" y="511" type="curve" smooth="yes"/>
      <point x="945" y="511"/>
      <point x="977" y="476"/>
      <point x="971" y="391" type="curve"/>
      <point x="1124" y="391" type="line"/>
      <point x="1118" y="478"/>
      <point x="1154" y="511"/>
      <point x="1202" y="511" type="curve" smooth="yes"/>
      <point x="1243" y="511"/>
      <point x="1271" y="484"/>
      <point x="1271" y="443" type="curve" smooth="yes"/>
      <point x="1271" y="412"/>
      <point x="1260" y="390"/>
      <point x="1236" y="367" type="curve"/>
      <point x="1372" y="272" type="line"/>
      <point x="1429" y="329"/>
      <point x="1449" y="379"/>
    </contour>
  </outline>
</glyph>
<glyph name="jha_cham" format="2">
  <advance width="1690"/>
  <unicode hex="AA0F"/>
  <note>
uniAA0F
</note>
  <outline>
    <contour>
      <point x="979" y="457" type="curve" smooth="yes"/>
      <point x="979" y="578"/>
      <point x="864" y="653"/>
      <point x="702" y="653" type="curve" smooth="yes"/>
      <point x="540" y="653"/>
      <point x="437" y="570"/>
      <point x="437" y="454" type="curve" smooth="yes"/>
      <point x="437" y="365"/>
      <point x="480" y="302"/>
      <point x="480" y="224" type="curve" smooth="yes"/>
      <point x="480" y="132"/>
      <point x="419" y="85"/>
      <point x="325" y="85" type="curve" smooth="yes"/>
      <point x="235" y="85"/>
      <point x="181" y="130"/>
      <point x="181" y="187" type="curve" smooth="yes"/>
      <point x="181" y="224"/>
      <point x="204" y="249"/>
      <point x="241" y="249" type="curve" smooth="yes"/>
      <point x="280" y="249"/>
      <point x="303" y="220"/>
      <point x="303" y="171" type="curve" smooth="yes"/>
      <point x="303" y="142"/>
      <point x="294" y="106"/>
      <point x="280" y="80" type="curve"/>
      <point x="393" y="80" type="line"/>
      <point x="407" y="102"/>
      <point x="426" y="145"/>
      <point x="426" y="196" type="curve" smooth="yes"/>
      <point x="426" y="298"/>
      <point x="347" y="361"/>
      <point x="236" y="361" type="curve" smooth="yes"/>
      <point x="112" y="361"/>
      <point x="42" y="284"/>
      <point x="42" y="184" type="curve" smooth="yes"/>
      <point x="42" y="58"/>
      <point x="159" y="-29"/>
      <point x="357" y="-29" type="curve" smooth="yes"/>
      <point x="545" y="-29"/>
      <point x="658" y="70"/>
      <point x="658" y="213" type="curve" smooth="yes"/>
      <point x="658" y="312"/>
      <point x="618" y="375"/>
      <point x="618" y="436" type="curve" smooth="yes"/>
      <point x="618" y="482"/>
      <point x="653" y="511"/>
      <point x="709" y="511" type="curve" smooth="yes"/>
      <point x="766" y="511"/>
      <point x="797" y="479"/>
      <point x="797" y="436" type="curve" smooth="yes"/>
      <point x="797" y="364"/>
      <point x="745" y="291"/>
      <point x="745" y="184" type="curve"/>
      <point x="877" y="208" type="line"/>
      <point x="877" y="271"/>
      <point x="979" y="348"/>
    </contour>
    <component base="ra_cham" xOffset="703"/>
  </outline>
</glyph>
<glyph name="nhue_cham" format="2">
  <advance width="1460"/>
  <unicode hex="AA10"/>
  <note>
uniAA10
</note>
  <outline>
    <contour>
      <point x="1418" y="441" type="curve" smooth="yes"/>
      <point x="1418" y="567"/>
      <point x="1328" y="653"/>
      <point x="1190" y="653" type="curve" smooth="yes"/>
      <point x="1077" y="653"/>
      <point x="992" y="608"/>
      <point x="967" y="490" type="curve" smooth="yes"/>
      <point x="942" y="374"/>
      <point x="896" y="359"/>
      <point x="795" y="352" type="curve" smooth="yes"/>
      <point x="627" y="340"/>
      <point x="503" y="267"/>
      <point x="503" y="143" type="curve" smooth="yes"/>
      <point x="503" y="34"/>
      <point x="578" y="-29"/>
      <point x="686" y="-29" type="curve" smooth="yes"/>
      <point x="831" y="-29"/>
      <point x="933" y="101"/>
      <point x="933" y="296" type="curve" smooth="yes"/>
      <point x="933" y="524"/>
      <point x="829" y="653"/>
      <point x="699" y="653" type="curve" smooth="yes"/>
      <point x="577" y="653"/>
      <point x="558" y="574"/>
      <point x="499" y="574" type="curve" smooth="yes"/>
      <point x="440" y="574"/>
      <point x="421" y="653"/>
      <point x="299" y="653" type="curve" smooth="yes"/>
      <point x="162" y="653"/>
      <point x="65" y="530"/>
      <point x="65" y="331" type="curve" smooth="yes"/>
      <point x="65" y="107"/>
      <point x="157" y="-29"/>
      <point x="330" y="-29" type="curve" smooth="yes"/>
      <point x="426" y="-29"/>
      <point x="483" y="26"/>
      <point x="483" y="104" type="curve" smooth="yes"/>
      <point x="483" y="184"/>
      <point x="424" y="234"/>
      <point x="341" y="234" type="curve" smooth="yes"/>
      <point x="251" y="234"/>
      <point x="187" y="164"/>
      <point x="176" y="64" type="curve"/>
      <point x="258" y="64" type="line"/>
      <point x="263" y="104"/>
      <point x="289" y="151"/>
      <point x="339" y="151" type="curve" smooth="yes"/>
      <point x="363" y="151"/>
      <point x="389" y="140"/>
      <point x="389" y="104" type="curve" smooth="yes"/>
      <point x="389" y="78"/>
      <point x="372" y="61"/>
      <point x="344" y="61" type="curve" smooth="yes"/>
      <point x="261" y="61"/>
      <point x="247" y="166"/>
      <point x="247" y="305" type="curve" smooth="yes"/>
      <point x="247" y="443"/>
      <point x="287" y="502"/>
      <point x="341" y="502" type="curve" smooth="yes"/>
      <point x="404" y="502"/>
      <point x="426" y="422"/>
      <point x="499" y="422" type="curve" smooth="yes"/>
      <point x="572" y="422"/>
      <point x="594" y="502"/>
      <point x="657" y="502" type="curve" smooth="yes"/>
      <point x="711" y="502"/>
      <point x="756" y="443"/>
      <point x="756" y="305" type="curve" smooth="yes"/>
      <point x="756" y="179"/>
      <point x="725" y="109"/>
      <point x="689" y="109" type="curve" smooth="yes"/>
      <point x="668" y="109"/>
      <point x="657" y="125"/>
      <point x="657" y="149" type="curve" smooth="yes"/>
      <point x="657" y="187"/>
      <point x="689" y="228"/>
      <point x="868" y="255" type="curve" smooth="yes"/>
      <point x="1014" y="277"/>
      <point x="1068" y="310"/>
      <point x="1089" y="415" type="curve" smooth="yes"/>
      <point x="1102" y="479"/>
      <point x="1122" y="511"/>
      <point x="1172" y="511" type="curve" smooth="yes"/>
      <point x="1213" y="511"/>
      <point x="1240" y="484"/>
      <point x="1240" y="443" type="curve" smooth="yes"/>
      <point x="1240" y="412"/>
      <point x="1229" y="390"/>
      <point x="1205" y="367" type="curve"/>
      <point x="1341" y="272" type="line"/>
      <point x="1398" y="329"/>
      <point x="1418" y="379"/>
    </contour>
  </outline>
</glyph>
<glyph name="nha_cham" format="2">
  <advance width="1460"/>
  <unicode hex="AA11"/>
  <note>
uniAA11
</note>
  <outline>
    <contour>
      <point x="1418" y="441" type="curve" smooth="yes"/>
      <point x="1418" y="567"/>
      <point x="1328" y="653"/>
      <point x="1190" y="653" type="curve" smooth="yes"/>
      <point x="1077" y="653"/>
      <point x="992" y="608"/>
      <point x="967" y="490" type="curve" smooth="yes"/>
      <point x="942" y="374"/>
      <point x="896" y="359"/>
      <point x="795" y="352" type="curve" smooth="yes"/>
      <point x="627" y="340"/>
      <point x="503" y="267"/>
      <point x="503" y="143" type="curve" smooth="yes"/>
      <point x="503" y="34"/>
      <point x="578" y="-29"/>
      <point x="686" y="-29" type="curve" smooth="yes"/>
      <point x="706" y="-29"/>
      <point x="724" y="-27"/>
      <point x="743" y="-24" type="curve"/>
      <point x="694" y="73" type="line"/>
      <point x="475" y="-61"/>
      <point x="449" y="-130"/>
      <point x="449" y="-195" type="curve" smooth="yes"/>
      <point x="449" y="-286"/>
      <point x="524" y="-346"/>
      <point x="608" y="-346" type="curve" smooth="yes"/>
      <point x="742" y="-346"/>
      <point x="772" y="-215"/>
      <point x="817" y="-215" type="curve" smooth="yes"/>
      <point x="833" y="-215"/>
      <point x="842" y="-223"/>
      <point x="842" y="-238" type="curve" smooth="yes"/>
      <point x="842" y="-248"/>
      <point x="839" y="-258"/>
      <point x="832" y="-269" type="curve"/>
      <point x="953" y="-320" type="line"/>
      <point x="977" y="-288"/>
      <point x="985" y="-242"/>
      <point x="985" y="-215" type="curve" smooth="yes"/>
      <point x="985" y="-144"/>
      <point x="927" y="-84"/>
      <point x="844" y="-84" type="curve" smooth="yes"/>
      <point x="728" y="-84"/>
      <point x="670" y="-214"/>
      <point x="627" y="-214" type="curve" smooth="yes"/>
      <point x="610" y="-214"/>
      <point x="597" y="-199"/>
      <point x="597" y="-181" type="curve" smooth="yes"/>
      <point x="597" y="-149"/>
      <point x="627" y="-108"/>
      <point x="771" y="-20" type="curve" smooth="yes"/>
      <point x="904" y="61"/>
      <point x="933" y="167"/>
      <point x="933" y="296" type="curve" smooth="yes"/>
      <point x="933" y="524"/>
      <point x="829" y="653"/>
      <point x="699" y="653" type="curve" smooth="yes"/>
      <point x="577" y="653"/>
      <point x="558" y="574"/>
      <point x="499" y="574" type="curve" smooth="yes"/>
      <point x="440" y="574"/>
      <point x="421" y="653"/>
      <point x="299" y="653" type="curve" smooth="yes"/>
      <point x="162" y="653"/>
      <point x="65" y="530"/>
      <point x="65" y="331" type="curve" smooth="yes"/>
      <point x="65" y="107"/>
      <point x="157" y="-29"/>
      <point x="330" y="-29" type="curve" smooth="yes"/>
      <point x="426" y="-29"/>
      <point x="483" y="26"/>
      <point x="483" y="104" type="curve" smooth="yes"/>
      <point x="483" y="184"/>
      <point x="424" y="234"/>
      <point x="341" y="234" type="curve" smooth="yes"/>
      <point x="251" y="234"/>
      <point x="187" y="164"/>
      <point x="176" y="64" type="curve"/>
      <point x="258" y="64" type="line"/>
      <point x="263" y="104"/>
      <point x="289" y="151"/>
      <point x="339" y="151" type="curve" smooth="yes"/>
      <point x="363" y="151"/>
      <point x="389" y="140"/>
      <point x="389" y="104" type="curve" smooth="yes"/>
      <point x="389" y="78"/>
      <point x="372" y="61"/>
      <point x="344" y="61" type="curve" smooth="yes"/>
      <point x="261" y="61"/>
      <point x="247" y="166"/>
      <point x="247" y="305" type="curve" smooth="yes"/>
      <point x="247" y="443"/>
      <point x="287" y="502"/>
      <point x="341" y="502" type="curve" smooth="yes"/>
      <point x="404" y="502"/>
      <point x="426" y="422"/>
      <point x="499" y="422" type="curve" smooth="yes"/>
      <point x="572" y="422"/>
      <point x="594" y="502"/>
      <point x="657" y="502" type="curve" smooth="yes"/>
      <point x="711" y="502"/>
      <point x="756" y="443"/>
      <point x="756" y="305" type="curve" smooth="yes"/>
      <point x="756" y="179"/>
      <point x="725" y="109"/>
      <point x="689" y="109" type="curve" smooth="yes"/>
      <point x="668" y="109"/>
      <point x="657" y="125"/>
      <point x="657" y="149" type="curve" smooth="yes"/>
      <point x="657" y="187"/>
      <point x="689" y="228"/>
      <point x="868" y="255" type="curve" smooth="yes"/>
      <point x="1014" y="277"/>
      <point x="1068" y="310"/>
      <point x="1089" y="415" type="curve" smooth="yes"/>
      <point x="1102" y="479"/>
      <point x="1122" y="511"/>
      <point x="1172" y="511" type="curve" smooth="yes"/>
      <point x="1213" y="511"/>
      <point x="1240" y="484"/>
      <point x="1240" y="443" type="curve" smooth="yes"/>
      <point x="1240" y="412"/>
      <point x="1229" y="390"/>
      <point x="1205" y="367" type="curve"/>
      <point x="1341" y="272" type="line"/>
      <point x="1398" y="329"/>
      <point x="1418" y="379"/>
    </contour>
  </outline>
</glyph>
<glyph name="nhja_cham" format="2">
  <advance width="1460"/>
  <unicode hex="AA12"/>
  <note>
uniAA12
</note>
  <outline>
    <contour>
      <point x="1418" y="441" type="curve" smooth="yes"/>
      <point x="1418" y="567"/>
      <point x="1328" y="653"/>
      <point x="1192" y="653" type="curve" smooth="yes"/>
      <point x="1077" y="653"/>
      <point x="992" y="608"/>
      <point x="967" y="490" type="curve" smooth="yes"/>
      <point x="942" y="374"/>
      <point x="896" y="363"/>
      <point x="777" y="351" type="curve" smooth="yes"/>
      <point x="622" y="335"/>
      <point x="518" y="252"/>
      <point x="518" y="142" type="curve" smooth="yes"/>
      <point x="518" y="47"/>
      <point x="580" y="-6"/>
      <point x="686" y="-6" type="curve" smooth="yes"/>
      <point x="706" y="-6"/>
      <point x="724" y="-4"/>
      <point x="743" y="-1" type="curve"/>
      <point x="704" y="73" type="line"/>
      <point x="496" y="-52"/>
      <point x="450" y="-137"/>
      <point x="450" y="-205" type="curve" smooth="yes"/>
      <point x="450" y="-293"/>
      <point x="524" y="-346"/>
      <point x="608" y="-346" type="curve" smooth="yes"/>
      <point x="742" y="-346"/>
      <point x="772" y="-215"/>
      <point x="817" y="-215" type="curve" smooth="yes"/>
      <point x="833" y="-215"/>
      <point x="842" y="-223"/>
      <point x="842" y="-238" type="curve" smooth="yes"/>
      <point x="842" y="-248"/>
      <point x="839" y="-258"/>
      <point x="832" y="-269" type="curve"/>
      <point x="953" y="-320" type="line"/>
      <point x="977" y="-288"/>
      <point x="985" y="-242"/>
      <point x="985" y="-215" type="curve" smooth="yes"/>
      <point x="985" y="-144"/>
      <point x="927" y="-84"/>
      <point x="844" y="-84" type="curve" smooth="yes"/>
      <point x="728" y="-84"/>
      <point x="670" y="-214"/>
      <point x="627" y="-214" type="curve" smooth="yes"/>
      <point x="610" y="-214"/>
      <point x="597" y="-198"/>
      <point x="597" y="-180" type="curve" smooth="yes"/>
      <point x="597" y="-148"/>
      <point x="625" y="-109"/>
      <point x="771" y="-20" type="curve" smooth="yes"/>
      <point x="904" y="61"/>
      <point x="933" y="167"/>
      <point x="933" y="296" type="curve" smooth="yes"/>
      <point x="933" y="524"/>
      <point x="829" y="653"/>
      <point x="699" y="653" type="curve" smooth="yes"/>
      <point x="577" y="653"/>
      <point x="558" y="574"/>
      <point x="499" y="574" type="curve" smooth="yes"/>
      <point x="440" y="574"/>
      <point x="421" y="653"/>
      <point x="299" y="653" type="curve" smooth="yes"/>
      <point x="162" y="653"/>
      <point x="65" y="530"/>
      <point x="65" y="331" type="curve" smooth="yes"/>
      <point x="65" y="107"/>
      <point x="157" y="-29"/>
      <point x="330" y="-29" type="curve" smooth="yes"/>
      <point x="426" y="-29"/>
      <point x="483" y="26"/>
      <point x="483" y="104" type="curve" smooth="yes"/>
      <point x="483" y="184"/>
      <point x="424" y="234"/>
      <point x="341" y="234" type="curve" smooth="yes"/>
      <point x="251" y="234"/>
      <point x="187" y="164"/>
      <point x="176" y="64" type="curve"/>
      <point x="258" y="64" type="line"/>
      <point x="263" y="104"/>
      <point x="289" y="151"/>
      <point x="339" y="151" type="curve" smooth="yes"/>
      <point x="363" y="151"/>
      <point x="389" y="140"/>
      <point x="389" y="104" type="curve" smooth="yes"/>
      <point x="389" y="78"/>
      <point x="372" y="61"/>
      <point x="344" y="61" type="curve" smooth="yes"/>
      <point x="261" y="61"/>
      <point x="247" y="166"/>
      <point x="247" y="305" type="curve" smooth="yes"/>
      <point x="247" y="443"/>
      <point x="287" y="502"/>
      <point x="341" y="502" type="curve" smooth="yes"/>
      <point x="404" y="502"/>
      <point x="426" y="422"/>
      <point x="499" y="422" type="curve" smooth="yes"/>
      <point x="572" y="422"/>
      <point x="594" y="502"/>
      <point x="657" y="502" type="curve" smooth="yes"/>
      <point x="711" y="502"/>
      <point x="756" y="443"/>
      <point x="756" y="305" type="curve" smooth="yes"/>
      <point x="756" y="179"/>
      <point x="725" y="109"/>
      <point x="688" y="109" type="curve" smooth="yes"/>
      <point x="668" y="109"/>
      <point x="657" y="125"/>
      <point x="657" y="147" type="curve" smooth="yes"/>
      <point x="657" y="185"/>
      <point x="685" y="231"/>
      <point x="868" y="255" type="curve" smooth="yes"/>
      <point x="1014" y="274"/>
      <point x="1068" y="310"/>
      <point x="1089" y="415" type="curve" smooth="yes"/>
      <point x="1102" y="479"/>
      <point x="1122" y="511"/>
      <point x="1172" y="511" type="curve" smooth="yes"/>
      <point x="1213" y="511"/>
      <point x="1240" y="484"/>
      <point x="1240" y="443" type="curve" smooth="yes"/>
      <point x="1240" y="412"/>
      <point x="1229" y="390"/>
      <point x="1205" y="367" type="curve"/>
      <point x="1341" y="272" type="line"/>
      <point x="1398" y="329"/>
      <point x="1418" y="379"/>
    </contour>
    <contour>
      <point x="635" y="-51" type="line"/>
      <point x="635" y="51" type="line"/>
      <point x="438" y="51" type="line" smooth="yes"/>
      <point x="297" y="51"/>
      <point x="257" y="26"/>
      <point x="228" y="-120" type="curve" smooth="yes"/>
      <point x="209" y="-216"/>
      <point x="199" y="-244"/>
      <point x="118" y="-244" type="curve" smooth="yes"/>
      <point x="97" y="-244" type="line"/>
      <point x="97" y="-346" type="line"/>
      <point x="164" y="-346" type="line" smooth="yes"/>
      <point x="305" y="-346"/>
      <point x="345" y="-321"/>
      <point x="374" y="-175" type="curve" smooth="yes"/>
      <point x="393" y="-79"/>
      <point x="403" y="-51"/>
      <point x="480" y="-51" type="curve" smooth="yes"/>
    </contour>
  </outline>
</glyph>
<glyph name="ta_cham" format="2">
  <advance width="944"/>
  <unicode hex="AA13"/>
  <note>
uniAA13
</note>
  <outline>
    <contour>
      <point x="902" y="441" type="curve" smooth="yes"/>
      <point x="902" y="567"/>
      <point x="811" y="653"/>
      <point x="679" y="653" type="curve" smooth="yes"/>
      <point x="540" y="653"/>
      <point x="447" y="560"/>
      <point x="447" y="414" type="curve"/>
      <point x="554" y="414" type="line"/>
      <point x="554" y="560"/>
      <point x="467" y="653"/>
      <point x="331" y="653" type="curve" smooth="yes"/>
      <point x="169" y="653"/>
      <point x="65" y="529"/>
      <point x="65" y="330" type="curve" smooth="yes"/>
      <point x="65" y="107"/>
      <point x="182" y="-29"/>
      <point x="355" y="-29" type="curve" smooth="yes"/>
      <point x="487" y="-29"/>
      <point x="563" y="48"/>
      <point x="563" y="154" type="curve" smooth="yes"/>
      <point x="563" y="268"/>
      <point x="475" y="337"/>
      <point x="365" y="337" type="curve" smooth="yes"/>
      <point x="277" y="337"/>
      <point x="205" y="291"/>
      <point x="158" y="214" type="curve"/>
      <point x="233" y="126" type="line"/>
      <point x="256" y="192"/>
      <point x="298" y="225"/>
      <point x="354" y="225" type="curve" smooth="yes"/>
      <point x="387" y="225"/>
      <point x="424" y="208"/>
      <point x="424" y="152" type="curve" smooth="yes"/>
      <point x="424" y="112"/>
      <point x="398" y="85"/>
      <point x="356" y="85" type="curve" smooth="yes"/>
      <point x="286" y="85"/>
      <point x="247" y="168"/>
      <point x="247" y="334" type="curve" smooth="yes"/>
      <point x="247" y="445"/>
      <point x="287" y="511"/>
      <point x="349" y="511" type="curve" smooth="yes"/>
      <point x="397" y="511"/>
      <point x="430" y="474"/>
      <point x="424" y="391" type="curve"/>
      <point x="577" y="391" type="line"/>
      <point x="571" y="478"/>
      <point x="607" y="511"/>
      <point x="655" y="511" type="curve" smooth="yes"/>
      <point x="696" y="511"/>
      <point x="724" y="484"/>
      <point x="724" y="443" type="curve" smooth="yes"/>
      <point x="724" y="412"/>
      <point x="713" y="390"/>
      <point x="689" y="367" type="curve"/>
      <point x="825" y="272" type="line"/>
      <point x="882" y="329"/>
      <point x="902" y="379"/>
    </contour>
  </outline>
</glyph>
<glyph name="tha_cham" format="2">
  <advance width="1265"/>
  <unicode hex="AA14"/>
  <note>
uniAA14
</note>
  <outline>
    <contour>
      <point x="1223" y="443" type="curve" smooth="yes"/>
      <point x="1223" y="567"/>
      <point x="1127" y="653"/>
      <point x="973" y="653" type="curve" smooth="yes"/>
      <point x="822" y="653"/>
      <point x="728" y="582"/>
      <point x="728" y="480" type="curve" smooth="yes"/>
      <point x="728" y="406"/>
      <point x="775" y="345"/>
      <point x="775" y="297" type="curve" smooth="yes"/>
      <point x="775" y="263"/>
      <point x="726" y="234"/>
      <point x="693" y="234" type="curve" smooth="yes"/>
      <point x="653" y="234"/>
      <point x="635" y="249"/>
      <point x="635" y="268" type="curve" smooth="yes"/>
      <point x="635" y="285"/>
      <point x="647" y="293"/>
      <point x="661" y="293" type="curve" smooth="yes"/>
      <point x="690" y="293"/>
      <point x="706" y="265"/>
      <point x="706" y="212" type="curve" smooth="yes"/>
      <point x="706" y="137"/>
      <point x="664" y="109"/>
      <point x="600" y="109" type="curve" smooth="yes"/>
      <point x="526" y="109"/>
      <point x="484" y="151"/>
      <point x="484" y="208" type="curve" smooth="yes"/>
      <point x="484" y="271"/>
      <point x="551" y="343"/>
      <point x="551" y="455" type="curve" smooth="yes"/>
      <point x="551" y="573"/>
      <point x="446" y="653"/>
      <point x="300" y="653" type="curve" smooth="yes"/>
      <point x="147" y="653"/>
      <point x="42" y="564"/>
      <point x="42" y="434" type="curve" smooth="yes"/>
      <point x="42" y="377"/>
      <point x="64" y="307"/>
      <point x="120" y="266" type="curve"/>
      <point x="253" y="366" type="line"/>
      <point x="237" y="380"/>
      <point x="220" y="410"/>
      <point x="220" y="440" type="curve" smooth="yes"/>
      <point x="220" y="481"/>
      <point x="249" y="511"/>
      <point x="295" y="511" type="curve" smooth="yes"/>
      <point x="342" y="511"/>
      <point x="369" y="479"/>
      <point x="369" y="438" type="curve" smooth="yes"/>
      <point x="369" y="364"/>
      <point x="302" y="291"/>
      <point x="302" y="188" type="curve" smooth="yes"/>
      <point x="302" y="59"/>
      <point x="403" y="-29"/>
      <point x="574" y="-29" type="curve" smooth="yes"/>
      <point x="735" y="-29"/>
      <point x="828" y="53"/>
      <point x="828" y="203" type="curve" smooth="yes"/>
      <point x="828" y="305"/>
      <point x="751" y="371"/>
      <point x="663" y="371" type="curve" smooth="yes"/>
      <point x="593" y="371"/>
      <point x="542" y="334"/>
      <point x="542" y="267" type="curve" smooth="yes"/>
      <point x="542" y="195"/>
      <point x="607" y="152"/>
      <point x="709" y="152" type="curve" smooth="yes"/>
      <point x="812" y="152"/>
      <point x="923" y="209"/>
      <point x="923" y="306" type="curve" smooth="yes"/>
      <point x="923" y="358"/>
      <point x="896" y="405"/>
      <point x="896" y="443" type="curve" smooth="yes"/>
      <point x="896" y="485"/>
      <point x="926" y="511"/>
      <point x="973" y="511" type="curve" smooth="yes"/>
      <point x="1016" y="511"/>
      <point x="1045" y="488"/>
      <point x="1045" y="442" type="curve" smooth="yes"/>
      <point x="1045" y="414"/>
      <point x="1034" y="390"/>
      <point x="1010" y="367" type="curve"/>
      <point x="1148" y="272" type="line"/>
      <point x="1204" y="334"/>
      <point x="1223" y="380"/>
    </contour>
  </outline>
</glyph>
<glyph name="da_cham" format="2">
  <advance width="1192"/>
  <unicode hex="AA15"/>
  <note>
uniAA15
</note>
  <outline>
    <contour>
      <point x="1150" y="442" type="curve" smooth="yes"/>
      <point x="1150" y="567"/>
      <point x="1051" y="653"/>
      <point x="898" y="653" type="curve" smooth="yes"/>
      <point x="746" y="653"/>
      <point x="643" y="580"/>
      <point x="643" y="450" type="curve" smooth="yes"/>
      <point x="643" y="364"/>
      <point x="685" y="286"/>
      <point x="685" y="224" type="curve" smooth="yes"/>
      <point x="685" y="153"/>
      <point x="624" y="121"/>
      <point x="504" y="104" type="curve"/>
      <point x="490" y="5" type="line"/>
      <point x="582" y="66"/>
      <point x="616" y="138"/>
      <point x="616" y="207" type="curve" smooth="yes"/>
      <point x="616" y="310"/>
      <point x="532" y="363"/>
      <point x="428" y="363" type="curve" smooth="yes"/>
      <point x="404" y="363"/>
      <point x="379" y="360"/>
      <point x="354" y="355" type="curve"/>
      <point x="399" y="256" type="line"/>
      <point x="496" y="289"/>
      <point x="551" y="368"/>
      <point x="551" y="449" type="curve" smooth="yes"/>
      <point x="551" y="573"/>
      <point x="446" y="653"/>
      <point x="299" y="653" type="curve" smooth="yes"/>
      <point x="145" y="653"/>
      <point x="42" y="567"/>
      <point x="42" y="437" type="curve" smooth="yes"/>
      <point x="42" y="381"/>
      <point x="63" y="320"/>
      <point x="121" y="269" type="curve"/>
      <point x="254" y="368" type="line"/>
      <point x="233" y="387"/>
      <point x="220" y="413"/>
      <point x="220" y="441" type="curve" smooth="yes"/>
      <point x="220" y="485"/>
      <point x="251" y="511"/>
      <point x="296" y="511" type="curve" smooth="yes"/>
      <point x="344" y="511"/>
      <point x="369" y="476"/>
      <point x="369" y="437" type="curve" smooth="yes"/>
      <point x="369" y="390"/>
      <point x="337" y="355"/>
      <point x="278" y="336" type="curve"/>
      <point x="312" y="236" type="line"/>
      <point x="328" y="243"/>
      <point x="346" y="247"/>
      <point x="363" y="247" type="curve" smooth="yes"/>
      <point x="400" y="247"/>
      <point x="438" y="227"/>
      <point x="438" y="175" type="curve" smooth="yes"/>
      <point x="438" y="125"/>
      <point x="420" y="92"/>
      <point x="367" y="24" type="curve"/>
      <point x="396" y="-61" type="line"/>
      <point x="666" y="-10"/>
      <point x="869" y="89"/>
      <point x="869" y="234" type="curve" smooth="yes"/>
      <point x="869" y="316"/>
      <point x="825" y="381"/>
      <point x="825" y="445" type="curve" smooth="yes"/>
      <point x="825" y="486"/>
      <point x="853" y="511"/>
      <point x="897" y="511" type="curve" smooth="yes"/>
      <point x="942" y="511"/>
      <point x="972" y="485"/>
      <point x="972" y="443" type="curve" smooth="yes"/>
      <point x="972" y="413"/>
      <point x="957" y="389"/>
      <point x="935" y="369" type="curve"/>
      <point x="1069" y="269" type="line"/>
      <point x="1129" y="320"/>
      <point x="1150" y="380"/>
    </contour>
  </outline>
</glyph>
<glyph name="dha_cham" format="2">
  <advance width="1192"/>
  <unicode hex="AA16"/>
  <note>
uniAA16
</note>
  <outline>
    <contour>
      <point x="1150" y="442" type="curve" smooth="yes"/>
      <point x="1150" y="567"/>
      <point x="1051" y="653"/>
      <point x="898" y="653" type="curve" smooth="yes"/>
      <point x="746" y="653"/>
      <point x="651" y="579"/>
      <point x="651" y="475" type="curve" smooth="yes"/>
      <point x="651" y="437"/>
      <point x="663" y="401"/>
      <point x="663" y="376" type="curve" smooth="yes"/>
      <point x="663" y="276"/>
      <point x="520" y="280"/>
      <point x="520" y="144" type="curve" smooth="yes"/>
      <point x="520" y="112"/>
      <point x="527" y="91"/>
      <point x="559" y="68" type="curve"/>
      <point x="542" y="106" type="line"/>
      <point x="538" y="106"/>
      <point x="533" y="106"/>
      <point x="531" y="106" type="curve" smooth="yes"/>
      <point x="503" y="106"/>
      <point x="481" y="150"/>
      <point x="481" y="193" type="curve" smooth="yes"/>
      <point x="481" y="269"/>
      <point x="551" y="340"/>
      <point x="551" y="445" type="curve" smooth="yes"/>
      <point x="551" y="573"/>
      <point x="446" y="653"/>
      <point x="299" y="653" type="curve" smooth="yes"/>
      <point x="145" y="653"/>
      <point x="42" y="567"/>
      <point x="42" y="437" type="curve" smooth="yes"/>
      <point x="42" y="381"/>
      <point x="63" y="320"/>
      <point x="121" y="269" type="curve"/>
      <point x="254" y="368" type="line"/>
      <point x="233" y="387"/>
      <point x="220" y="413"/>
      <point x="220" y="441" type="curve" smooth="yes"/>
      <point x="220" y="485"/>
      <point x="251" y="511"/>
      <point x="296" y="511" type="curve" smooth="yes"/>
      <point x="344" y="511"/>
      <point x="369" y="476"/>
      <point x="369" y="437" type="curve" smooth="yes"/>
      <point x="369" y="355"/>
      <point x="299" y="287"/>
      <point x="299" y="189" type="curve" smooth="yes"/>
      <point x="299" y="69"/>
      <point x="404" y="-29"/>
      <point x="568" y="-29" type="curve" smooth="yes"/>
      <point x="600" y="-29"/>
      <point x="631" y="-28"/>
      <point x="650" y="-25" type="curve"/>
      <point x="689" y="66" type="line"/>
      <point x="667" y="91"/>
      <point x="658" y="105"/>
      <point x="658" y="126" type="curve" smooth="yes"/>
      <point x="658" y="224"/>
      <point x="837" y="210"/>
      <point x="837" y="356" type="curve" smooth="yes"/>
      <point x="837" y="394"/>
      <point x="825" y="423"/>
      <point x="825" y="446" type="curve" smooth="yes"/>
      <point x="825" y="486"/>
      <point x="853" y="511"/>
      <point x="897" y="511" type="curve" smooth="yes"/>
      <point x="942" y="511"/>
      <point x="972" y="485"/>
      <point x="972" y="443" type="curve" smooth="yes"/>
      <point x="972" y="413"/>
      <point x="957" y="389"/>
      <point x="935" y="369" type="curve"/>
      <point x="1069" y="269" type="line"/>
      <point x="1129" y="320"/>
      <point x="1150" y="380"/>
    </contour>
  </outline>
</glyph>
<glyph name="na_cham" format="2">
  <advance width="1193"/>
  <unicode hex="AA18"/>
  <note>
uniAA18
</note>
  <outline>
    <contour>
      <point x="577" y="296" type="curve" smooth="yes"/>
      <point x="577" y="524"/>
      <point x="463" y="653"/>
      <point x="286" y="653" type="curve" smooth="yes"/>
      <point x="147" y="653"/>
      <point x="56" y="578"/>
      <point x="56" y="470" type="curve" smooth="yes"/>
      <point x="56" y="395"/>
      <point x="91" y="339"/>
      <point x="137" y="309" type="curve"/>
      <point x="251" y="404" type="line"/>
      <point x="241" y="411"/>
      <point x="228" y="429"/>
      <point x="228" y="455" type="curve" smooth="yes"/>
      <point x="228" y="494"/>
      <point x="259" y="511"/>
      <point x="290" y="511" type="curve" smooth="yes"/>
      <point x="359" y="511"/>
      <point x="400" y="443"/>
      <point x="400" y="305" type="curve" smooth="yes"/>
      <point x="400" y="179"/>
      <point x="369" y="109"/>
      <point x="333" y="109" type="curve" smooth="yes"/>
      <point x="312" y="109"/>
      <point x="301" y="125"/>
      <point x="301" y="149" type="curve" smooth="yes"/>
      <point x="301" y="197"/>
      <point x="348" y="249"/>
      <point x="439" y="249" type="curve" smooth="yes"/>
      <point x="521" y="249"/>
      <point x="621" y="182"/>
      <point x="618" y="24" type="curve"/>
      <point x="714" y="23" type="line"/>
      <point x="748" y="209"/>
      <point x="617" y="362"/>
      <point x="415" y="362" type="curve" smooth="yes"/>
      <point x="272" y="362"/>
      <point x="147" y="280"/>
      <point x="147" y="143" type="curve" smooth="yes"/>
      <point x="147" y="34"/>
      <point x="222" y="-29"/>
      <point x="330" y="-29" type="curve" smooth="yes"/>
      <point x="475" y="-29"/>
      <point x="577" y="101"/>
    </contour>
    <contour>
      <point x="1151" y="441" type="curve" smooth="yes"/>
      <point x="1151" y="567"/>
      <point x="1054" y="653"/>
      <point x="904" y="653" type="curve" smooth="yes"/>
      <point x="750" y="653"/>
      <point x="658" y="567"/>
      <point x="658" y="448" type="curve" smooth="yes"/>
      <point x="658" y="365"/>
      <point x="696" y="299"/>
      <point x="696" y="230" type="curve" smooth="yes"/>
      <point x="696" y="170"/>
      <point x="667" y="96"/>
      <point x="590" y="51" type="curve" smooth="yes"/>
      <point x="400" y="-60"/>
      <point x="374" y="-130"/>
      <point x="374" y="-195" type="curve" smooth="yes"/>
      <point x="374" y="-286"/>
      <point x="449" y="-346"/>
      <point x="533" y="-346" type="curve" smooth="yes"/>
      <point x="667" y="-346"/>
      <point x="697" y="-215"/>
      <point x="742" y="-215" type="curve" smooth="yes"/>
      <point x="758" y="-215"/>
      <point x="767" y="-223"/>
      <point x="767" y="-238" type="curve" smooth="yes"/>
      <point x="767" y="-248"/>
      <point x="764" y="-258"/>
      <point x="757" y="-269" type="curve"/>
      <point x="878" y="-320" type="line"/>
      <point x="902" y="-288"/>
      <point x="910" y="-242"/>
      <point x="910" y="-215" type="curve" smooth="yes"/>
      <point x="910" y="-144"/>
      <point x="852" y="-84"/>
      <point x="769" y="-84" type="curve" smooth="yes"/>
      <point x="653" y="-84"/>
      <point x="595" y="-214"/>
      <point x="552" y="-214" type="curve" smooth="yes"/>
      <point x="535" y="-214"/>
      <point x="522" y="-199"/>
      <point x="522" y="-181" type="curve" smooth="yes"/>
      <point x="522" y="-149"/>
      <point x="549" y="-102"/>
      <point x="669" y="-38" type="curve" smooth="yes"/>
      <point x="807" y="36"/>
      <point x="868" y="131"/>
      <point x="868" y="245" type="curve" smooth="yes"/>
      <point x="868" y="342"/>
      <point x="840" y="386"/>
      <point x="840" y="441" type="curve" smooth="yes"/>
      <point x="840" y="485"/>
      <point x="863" y="511"/>
      <point x="906" y="511" type="curve" smooth="yes"/>
      <point x="942" y="511"/>
      <point x="973" y="490"/>
      <point x="973" y="443" type="curve" smooth="yes"/>
      <point x="973" y="416"/>
      <point x="962" y="390"/>
      <point x="938" y="367" type="curve"/>
      <point x="1074" y="272" type="line"/>
      <point x="1131" y="330"/>
      <point x="1151" y="379"/>
    </contour>
  </outline>
</glyph>
<glyph name="ppa_cham" format="2">
  <advance width="1192"/>
  <unicode hex="AA1B"/>
  <note>
uniAA1B
</note>
  <outline>
    <contour>
      <point x="1150" y="442" type="curve" smooth="yes"/>
      <point x="1150" y="567"/>
      <point x="1051" y="653"/>
      <point x="898" y="653" type="curve" smooth="yes"/>
      <point x="746" y="653"/>
      <point x="643" y="580"/>
      <point x="643" y="450" type="curve" smooth="yes"/>
      <point x="643" y="364"/>
      <point x="708" y="280"/>
      <point x="708" y="212" type="curve" smooth="yes"/>
      <point x="708" y="166"/>
      <point x="691" y="116"/>
      <point x="622" y="116" type="curve" smooth="yes"/>
      <point x="527" y="116"/>
      <point x="438" y="188"/>
      <point x="334" y="188" type="curve" smooth="yes"/>
      <point x="257" y="188"/>
      <point x="205" y="139"/>
      <point x="205" y="75" type="curve" smooth="yes"/>
      <point x="205" y="-4"/>
      <point x="273" y="-41"/>
      <point x="349" y="-41" type="curve" smooth="yes"/>
      <point x="504" y="-41"/>
      <point x="616" y="82"/>
      <point x="616" y="207" type="curve" smooth="yes"/>
      <point x="616" y="310"/>
      <point x="532" y="363"/>
      <point x="428" y="363" type="curve" smooth="yes"/>
      <point x="404" y="363"/>
      <point x="379" y="360"/>
      <point x="354" y="355" type="curve"/>
      <point x="399" y="256" type="line"/>
      <point x="496" y="289"/>
      <point x="551" y="368"/>
      <point x="551" y="449" type="curve" smooth="yes"/>
      <point x="551" y="573"/>
      <point x="446" y="653"/>
      <point x="299" y="653" type="curve" smooth="yes"/>
      <point x="145" y="653"/>
      <point x="42" y="567"/>
      <point x="42" y="437" type="curve" smooth="yes"/>
      <point x="42" y="381"/>
      <point x="63" y="320"/>
      <point x="121" y="269" type="curve"/>
      <point x="254" y="368" type="line"/>
      <point x="233" y="387"/>
      <point x="220" y="413"/>
      <point x="220" y="441" type="curve" smooth="yes"/>
      <point x="220" y="485"/>
      <point x="251" y="511"/>
      <point x="296" y="511" type="curve" smooth="yes"/>
      <point x="344" y="511"/>
      <point x="369" y="476"/>
      <point x="369" y="437" type="curve" smooth="yes"/>
      <point x="369" y="390"/>
      <point x="337" y="355"/>
      <point x="278" y="336" type="curve"/>
      <point x="312" y="236" type="line"/>
      <point x="328" y="243"/>
      <point x="346" y="247"/>
      <point x="363" y="247" type="curve" smooth="yes"/>
      <point x="400" y="247"/>
      <point x="438" y="227"/>
      <point x="438" y="175" type="curve" smooth="yes"/>
      <point x="438" y="105"/>
      <point x="406" y="37"/>
      <point x="341" y="37" type="curve" smooth="yes"/>
      <point x="309" y="37"/>
      <point x="290" y="52"/>
      <point x="290" y="73" type="curve" smooth="yes"/>
      <point x="290" y="97"/>
      <point x="310" y="110"/>
      <point x="340" y="110" type="curve" smooth="yes"/>
      <point x="443" y="110"/>
      <point x="522" y="-17"/>
      <point x="689" y="-17" type="curve" smooth="yes"/>
      <point x="816" y="-17"/>
      <point x="890" y="63"/>
      <point x="890" y="192" type="curve" smooth="yes"/>
      <point x="890" y="301"/>
      <point x="825" y="381"/>
      <point x="825" y="445" type="curve" smooth="yes"/>
      <point x="825" y="486"/>
      <point x="853" y="511"/>
      <point x="897" y="511" type="curve" smooth="yes"/>
      <point x="942" y="511"/>
      <point x="972" y="485"/>
      <point x="972" y="443" type="curve" smooth="yes"/>
      <point x="972" y="413"/>
      <point x="957" y="389"/>
      <point x="935" y="369" type="curve"/>
      <point x="1069" y="269" type="line"/>
      <point x="1129" y="320"/>
      <point x="1150" y="380"/>
    </contour>
  </outline>
</glyph>
<glyph name="pha_cham" format="2">
  <advance width="1708"/>
  <unicode hex="AA1C"/>
  <note>
uniAA1C
</note>
  <outline>
    <contour>
      <point x="1666" y="443" type="curve" smooth="yes"/>
      <point x="1666" y="567"/>
      <point x="1570" y="653"/>
      <point x="1416" y="653" type="curve" smooth="yes"/>
      <point x="1265" y="653"/>
      <point x="1171" y="582"/>
      <point x="1171" y="480" type="curve" smooth="yes"/>
      <point x="1171" y="406"/>
      <point x="1218" y="345"/>
      <point x="1218" y="297" type="curve" smooth="yes"/>
      <point x="1218" y="263"/>
      <point x="1169" y="234"/>
      <point x="1136" y="234" type="curve" smooth="yes"/>
      <point x="1096" y="234"/>
      <point x="1078" y="249"/>
      <point x="1078" y="268" type="curve" smooth="yes"/>
      <point x="1078" y="285"/>
      <point x="1090" y="293"/>
      <point x="1104" y="293" type="curve" smooth="yes"/>
      <point x="1133" y="293"/>
      <point x="1149" y="265"/>
      <point x="1149" y="212" type="curve" smooth="yes"/>
      <point x="1149" y="137"/>
      <point x="1107" y="109"/>
      <point x="1043" y="109" type="curve" smooth="yes"/>
      <point x="969" y="109"/>
      <point x="927" y="151"/>
      <point x="927" y="208" type="curve" smooth="yes"/>
      <point x="927" y="271"/>
      <point x="979" y="348"/>
      <point x="979" y="457" type="curve" smooth="yes"/>
      <point x="979" y="578"/>
      <point x="864" y="653"/>
      <point x="702" y="653" type="curve" smooth="yes"/>
      <point x="540" y="653"/>
      <point x="437" y="570"/>
      <point x="437" y="454" type="curve" smooth="yes"/>
      <point x="437" y="365"/>
      <point x="480" y="302"/>
      <point x="480" y="224" type="curve" smooth="yes"/>
      <point x="480" y="132"/>
      <point x="419" y="85"/>
      <point x="325" y="85" type="curve" smooth="yes"/>
      <point x="235" y="85"/>
      <point x="181" y="130"/>
      <point x="181" y="187" type="curve" smooth="yes"/>
      <point x="181" y="224"/>
      <point x="204" y="249"/>
      <point x="241" y="249" type="curve" smooth="yes"/>
      <point x="280" y="249"/>
      <point x="303" y="220"/>
      <point x="303" y="171" type="curve" smooth="yes"/>
      <point x="303" y="142"/>
      <point x="294" y="106"/>
      <point x="280" y="80" type="curve"/>
      <point x="393" y="80" type="line"/>
      <point x="407" y="102"/>
      <point x="426" y="145"/>
      <point x="426" y="196" type="curve" smooth="yes"/>
      <point x="426" y="298"/>
      <point x="347" y="361"/>
      <point x="236" y="361" type="curve" smooth="yes"/>
      <point x="112" y="361"/>
      <point x="42" y="284"/>
      <point x="42" y="184" type="curve" smooth="yes"/>
      <point x="42" y="58"/>
      <point x="159" y="-29"/>
      <point x="357" y="-29" type="curve" smooth="yes"/>
      <point x="545" y="-29"/>
      <point x="658" y="70"/>
      <point x="658" y="213" type="curve" smooth="yes"/>
      <point x="658" y="312"/>
      <point x="618" y="375"/>
      <point x="618" y="436" type="curve" smooth="yes"/>
      <point x="618" y="481"/>
      <point x="653" y="511"/>
      <point x="709" y="511" type="curve" smooth="yes"/>
      <point x="766" y="511"/>
      <point x="797" y="479"/>
      <point x="797" y="436" type="curve" smooth="yes"/>
      <point x="797" y="364"/>
      <point x="745" y="291"/>
      <point x="745" y="188" type="curve" smooth="yes"/>
      <point x="745" y="59"/>
      <point x="846" y="-29"/>
      <point x="1017" y="-29" type="curve" smooth="yes"/>
      <point x="1178" y="-29"/>
      <point x="1271" y="53"/>
      <point x="1271" y="203" type="curve" smooth="yes"/>
      <point x="1271" y="305"/>
      <point x="1194" y="371"/>
      <point x="1106" y="371" type="curve" smooth="yes"/>
      <point x="1036" y="371"/>
      <point x="985" y="334"/>
      <point x="985" y="267" type="curve" smooth="yes"/>
      <point x="985" y="195"/>
      <point x="1050" y="152"/>
      <point x="1152" y="152" type="curve" smooth="yes"/>
      <point x="1255" y="152"/>
      <point x="1366" y="209"/>
      <point x="1366" y="306" type="curve" smooth="yes"/>
      <point x="1366" y="358"/>
      <point x="1339" y="405"/>
      <point x="1339" y="443" type="curve" smooth="yes"/>
      <point x="1339" y="485"/>
      <point x="1369" y="511"/>
      <point x="1416" y="511" type="curve" smooth="yes"/>
      <point x="1459" y="511"/>
      <point x="1488" y="488"/>
      <point x="1488" y="442" type="curve" smooth="yes"/>
      <point x="1488" y="414"/>
      <point x="1477" y="390"/>
      <point x="1453" y="367" type="curve"/>
      <point x="1591" y="272" type="line"/>
      <point x="1647" y="334"/>
      <point x="1666" y="380"/>
    </contour>
  </outline>
</glyph>
<glyph name="ba_cham" format="2">
  <advance width="1154"/>
  <unicode hex="AA1D"/>
  <note>
uniAA1D
</note>
  <outline>
    <contour>
      <point x="1112" y="434" type="curve" smooth="yes"/>
      <point x="1112" y="564"/>
      <point x="1007" y="653"/>
      <point x="854" y="653" type="curve" smooth="yes"/>
      <point x="708" y="653"/>
      <point x="603" y="573"/>
      <point x="603" y="455" type="curve" smooth="yes"/>
      <point x="603" y="338"/>
      <point x="660" y="260"/>
      <point x="660" y="193" type="curve" smooth="yes"/>
      <point x="660" y="140"/>
      <point x="634" y="113"/>
      <point x="579" y="113" type="curve" smooth="yes"/>
      <point x="524" y="113"/>
      <point x="494" y="140"/>
      <point x="494" y="193" type="curve" smooth="yes"/>
      <point x="494" y="260"/>
      <point x="551" y="338"/>
      <point x="551" y="455" type="curve" smooth="yes"/>
      <point x="551" y="573"/>
      <point x="446" y="653"/>
      <point x="300" y="653" type="curve" smooth="yes"/>
      <point x="147" y="653"/>
      <point x="42" y="564"/>
      <point x="42" y="434" type="curve" smooth="yes"/>
      <point x="42" y="377"/>
      <point x="64" y="307"/>
      <point x="120" y="266" type="curve"/>
      <point x="253" y="366" type="line"/>
      <point x="237" y="380"/>
      <point x="220" y="410"/>
      <point x="220" y="440" type="curve" smooth="yes"/>
      <point x="220" y="481"/>
      <point x="249" y="511"/>
      <point x="295" y="511" type="curve" smooth="yes"/>
      <point x="342" y="511"/>
      <point x="369" y="479"/>
      <point x="369" y="438" type="curve" smooth="yes"/>
      <point x="369" y="364"/>
      <point x="302" y="291"/>
      <point x="302" y="188" type="curve" smooth="yes"/>
      <point x="302" y="59"/>
      <point x="406" y="-29"/>
      <point x="580" y="-29" type="curve" smooth="yes"/>
      <point x="754" y="-29"/>
      <point x="852" y="59"/>
      <point x="852" y="188" type="curve" smooth="yes"/>
      <point x="852" y="291"/>
      <point x="785" y="364"/>
      <point x="785" y="438" type="curve" smooth="yes"/>
      <point x="785" y="479"/>
      <point x="812" y="511"/>
      <point x="859" y="511" type="curve" smooth="yes"/>
      <point x="905" y="511"/>
      <point x="934" y="481"/>
      <point x="934" y="440" type="curve" smooth="yes"/>
      <point x="934" y="410"/>
      <point x="917" y="380"/>
      <point x="901" y="366" type="curve"/>
      <point x="1034" y="266" type="line"/>
      <point x="1090" y="307"/>
      <point x="1112" y="377"/>
    </contour>
  </outline>
</glyph>
<glyph name="bha_cham" format="2">
  <advance width="1446"/>
  <unicode hex="AA1E"/>
  <note>
uniAA1E
</note>
  <outline>
    <contour>
      <point x="1404" y="441" type="curve" smooth="yes"/>
      <point x="1404" y="567"/>
      <point x="1313" y="653"/>
      <point x="1181" y="653" type="curve" smooth="yes"/>
      <point x="1042" y="653"/>
      <point x="949" y="560"/>
      <point x="949" y="414" type="curve"/>
      <point x="1056" y="414" type="line"/>
      <point x="1056" y="560"/>
      <point x="958" y="653"/>
      <point x="819" y="653" type="curve" smooth="yes"/>
      <point x="689" y="653"/>
      <point x="603" y="574"/>
      <point x="603" y="455" type="curve" smooth="yes"/>
      <point x="603" y="351"/>
      <point x="660" y="268"/>
      <point x="660" y="197" type="curve" smooth="yes"/>
      <point x="660" y="139"/>
      <point x="632" y="113"/>
      <point x="579" y="113" type="curve" smooth="yes"/>
      <point x="524" y="113"/>
      <point x="494" y="140"/>
      <point x="494" y="193" type="curve" smooth="yes"/>
      <point x="494" y="260"/>
      <point x="551" y="338"/>
      <point x="551" y="455" type="curve" smooth="yes"/>
      <point x="551" y="573"/>
      <point x="446" y="653"/>
      <point x="300" y="653" type="curve" smooth="yes"/>
      <point x="147" y="653"/>
      <point x="42" y="564"/>
      <point x="42" y="434" type="curve" smooth="yes"/>
      <point x="42" y="377"/>
      <point x="64" y="307"/>
      <point x="120" y="266" type="curve"/>
      <point x="253" y="366" type="line"/>
      <point x="237" y="380"/>
      <point x="220" y="410"/>
      <point x="220" y="440" type="curve" smooth="yes"/>
      <point x="220" y="481"/>
      <point x="249" y="511"/>
      <point x="295" y="511" type="curve" smooth="yes"/>
      <point x="342" y="511"/>
      <point x="369" y="479"/>
      <point x="369" y="438" type="curve" smooth="yes"/>
      <point x="369" y="364"/>
      <point x="302" y="291"/>
      <point x="302" y="188" type="curve" smooth="yes"/>
      <point x="302" y="59"/>
      <point x="406" y="-29"/>
      <point x="580" y="-29" type="curve" smooth="yes"/>
      <point x="751" y="-29"/>
      <point x="852" y="58"/>
      <point x="852" y="193" type="curve" smooth="yes"/>
      <point x="852" y="299"/>
      <point x="785" y="379"/>
      <point x="785" y="448" type="curve" smooth="yes"/>
      <point x="785" y="481"/>
      <point x="808" y="511"/>
      <point x="851" y="511" type="curve" smooth="yes"/>
      <point x="900" y="511"/>
      <point x="932" y="476"/>
      <point x="926" y="391" type="curve"/>
      <point x="1079" y="391" type="line"/>
      <point x="1073" y="478"/>
      <point x="1109" y="511"/>
      <point x="1157" y="511" type="curve" smooth="yes"/>
      <point x="1198" y="511"/>
      <point x="1226" y="484"/>
      <point x="1226" y="443" type="curve" smooth="yes"/>
      <point x="1226" y="412"/>
      <point x="1215" y="390"/>
      <point x="1191" y="367" type="curve"/>
      <point x="1327" y="272" type="line"/>
      <point x="1384" y="329"/>
      <point x="1404" y="379"/>
    </contour>
  </outline>
</glyph>
<glyph name="mue_cham" format="2">
  <advance width="1192"/>
  <unicode hex="AA1F"/>
  <note>
uniAA1F
</note>
  <outline>
    <contour>
      <point x="596" y="384" type="line"/>
      <point x="516" y="276" type="line"/>
      <point x="740" y="110" type="line"/>
      <point x="819" y="216" type="line"/>
    </contour>
    <contour>
      <point x="1150" y="442" type="curve" smooth="yes"/>
      <point x="1150" y="567"/>
      <point x="1051" y="653"/>
      <point x="898" y="653" type="curve" smooth="yes"/>
      <point x="746" y="653"/>
      <point x="651" y="579"/>
      <point x="651" y="475" type="curve" smooth="yes"/>
      <point x="651" y="434"/>
      <point x="663" y="394"/>
      <point x="663" y="367" type="curve" smooth="yes"/>
      <point x="663" y="218"/>
      <point x="520" y="263"/>
      <point x="520" y="137" type="curve" smooth="yes"/>
      <point x="520" y="108"/>
      <point x="527" y="91"/>
      <point x="559" y="68" type="curve"/>
      <point x="542" y="106" type="line"/>
      <point x="538" y="106"/>
      <point x="528" y="106"/>
      <point x="526" y="106" type="curve" smooth="yes"/>
      <point x="498" y="106"/>
      <point x="476" y="153"/>
      <point x="476" y="200" type="curve" smooth="yes"/>
      <point x="476" y="276"/>
      <point x="546" y="347"/>
      <point x="546" y="452" type="curve" smooth="yes"/>
      <point x="546" y="575"/>
      <point x="446" y="653"/>
      <point x="299" y="653" type="curve" smooth="yes"/>
      <point x="145" y="653"/>
      <point x="42" y="567"/>
      <point x="42" y="437" type="curve" smooth="yes"/>
      <point x="42" y="381"/>
      <point x="63" y="320"/>
      <point x="121" y="269" type="curve"/>
      <point x="254" y="368" type="line"/>
      <point x="233" y="387"/>
      <point x="220" y="413"/>
      <point x="220" y="441" type="curve" smooth="yes"/>
      <point x="220" y="485"/>
      <point x="251" y="511"/>
      <point x="296" y="511" type="curve" smooth="yes"/>
      <point x="344" y="511"/>
      <point x="369" y="476"/>
      <point x="369" y="437" type="curve" smooth="yes"/>
      <point x="369" y="355"/>
      <point x="299" y="287"/>
      <point x="299" y="189" type="curve" smooth="yes"/>
      <point x="299" y="69"/>
      <point x="404" y="-29"/>
      <point x="568" y="-29" type="curve" smooth="yes"/>
      <point x="600" y="-29"/>
      <point x="631" y="-28"/>
      <point x="650" y="-25" type="curve"/>
      <point x="689" y="66" type="line"/>
      <point x="660" y="91"/>
      <point x="648" y="109"/>
      <point x="648" y="151" type="curve" smooth="yes"/>
      <point x="648" y="255"/>
      <point x="834" y="250"/>
      <point x="834" y="376" type="curve" smooth="yes"/>
      <point x="834" y="408"/>
      <point x="825" y="427"/>
      <point x="825" y="446" type="curve" smooth="yes"/>
      <point x="825" y="486"/>
      <point x="853" y="511"/>
      <point x="897" y="511" type="curve" smooth="yes"/>
      <point x="942" y="511"/>
      <point x="972" y="485"/>
      <point x="972" y="443" type="curve" smooth="yes"/>
      <point x="972" y="413"/>
      <point x="957" y="389"/>
      <point x="935" y="369" type="curve"/>
      <point x="1069" y="269" type="line"/>
      <point x="1129" y="320"/>
      <point x="1150" y="380"/>
    </contour>
  </outline>
</glyph>
<glyph name="ma_cham" format="2">
  <advance width="1192"/>
  <unicode hex="AA20"/>
  <note>
uniAA20
</note>
  <outline>
    <contour>
      <point x="1068" y="-215" type="curve" smooth="yes"/>
      <point x="1068" y="-144"/>
      <point x="1010" y="-84"/>
      <point x="927" y="-84" type="curve" smooth="yes"/>
      <point x="811" y="-84"/>
      <point x="755" y="-214"/>
      <point x="715" y="-214" type="curve" smooth="yes"/>
      <point x="698" y="-214"/>
      <point x="685" y="-199"/>
      <point x="685" y="-181" type="curve" smooth="yes"/>
      <point x="685" y="-124"/>
      <point x="810" y="16"/>
      <point x="810" y="158" type="curve" smooth="yes"/>
      <point x="810" y="267"/>
      <point x="715" y="360"/>
      <point x="567" y="387" type="curve"/>
      <point x="544" y="293" type="line"/>
      <point x="623" y="279"/>
      <point x="692" y="226"/>
      <point x="692" y="150" type="curve" smooth="yes"/>
      <point x="692" y="12"/>
      <point x="537" y="-88"/>
      <point x="537" y="-205" type="curve" smooth="yes"/>
      <point x="537" y="-290"/>
      <point x="612" y="-346"/>
      <point x="696" y="-346" type="curve" smooth="yes"/>
      <point x="827" y="-346"/>
      <point x="855" y="-215"/>
      <point x="900" y="-215" type="curve" smooth="yes"/>
      <point x="916" y="-215"/>
      <point x="925" y="-223"/>
      <point x="925" y="-238" type="curve" smooth="yes"/>
      <point x="925" y="-248"/>
      <point x="922" y="-258"/>
      <point x="915" y="-269" type="curve"/>
      <point x="1036" y="-320" type="line"/>
      <point x="1060" y="-288"/>
      <point x="1068" y="-242"/>
    </contour>
    <component base="dha_withcrossstroke"/>
  </outline>
</glyph>
<glyph name="ra_cham" format="2">
  <advance width="987"/>
  <unicode hex="AA23"/>
  <note>
uniAA23
</note>
  <outline>
    <contour>
      <point x="945" y="434" type="curve" smooth="yes"/>
      <point x="945" y="564"/>
      <point x="840" y="653"/>
      <point x="687" y="653" type="curve" smooth="yes"/>
      <point x="541" y="653"/>
      <point x="436" y="573"/>
      <point x="436" y="454" type="curve" smooth="yes"/>
      <point x="436" y="365"/>
      <point x="480" y="302"/>
      <point x="480" y="224" type="curve" smooth="yes"/>
      <point x="480" y="132"/>
      <point x="419" y="85"/>
      <point x="325" y="85" type="curve" smooth="yes"/>
      <point x="235" y="85"/>
      <point x="181" y="130"/>
      <point x="181" y="187" type="curve" smooth="yes"/>
      <point x="181" y="224"/>
      <point x="204" y="249"/>
      <point x="241" y="249" type="curve" smooth="yes"/>
      <point x="280" y="249"/>
      <point x="303" y="220"/>
      <point x="303" y="171" type="curve" smooth="yes"/>
      <point x="303" y="142"/>
      <point x="294" y="106"/>
      <point x="280" y="80" type="curve"/>
      <point x="393" y="80" type="line"/>
      <point x="407" y="102"/>
      <point x="426" y="145"/>
      <point x="426" y="196" type="curve" smooth="yes"/>
      <point x="426" y="298"/>
      <point x="347" y="361"/>
      <point x="236" y="361" type="curve" smooth="yes"/>
      <point x="112" y="361"/>
      <point x="42" y="284"/>
      <point x="42" y="184" type="curve" smooth="yes"/>
      <point x="42" y="58"/>
      <point x="159" y="-29"/>
      <point x="357" y="-29" type="curve" smooth="yes"/>
      <point x="545" y="-29"/>
      <point x="658" y="70"/>
      <point x="658" y="213" type="curve" smooth="yes"/>
      <point x="658" y="312"/>
      <point x="618" y="373"/>
      <point x="618" y="438" type="curve" smooth="yes"/>
      <point x="618" y="479"/>
      <point x="645" y="511"/>
      <point x="692" y="511" type="curve" smooth="yes"/>
      <point x="738" y="511"/>
      <point x="767" y="481"/>
      <point x="767" y="440" type="curve" smooth="yes"/>
      <point x="767" y="410"/>
      <point x="750" y="380"/>
      <point x="734" y="366" type="curve"/>
      <point x="867" y="266" type="line"/>
      <point x="923" y="307"/>
      <point x="945" y="377"/>
    </contour>
  </outline>
</glyph>
<glyph name="la_cham" format="2">
  <advance width="947"/>
  <unicode hex="AA24"/>
  <note>
uniAA24
</note>
  <outline>
    <contour>
      <point x="905" y="451" type="curve" smooth="yes"/>
      <point x="905" y="578"/>
      <point x="821" y="653"/>
      <point x="708" y="653" type="curve" smooth="yes"/>
      <point x="591" y="653"/>
      <point x="565" y="573"/>
      <point x="503" y="573" type="curve" smooth="yes"/>
      <point x="441" y="573"/>
      <point x="411" y="653"/>
      <point x="294" y="653" type="curve" smooth="yes"/>
      <point x="162" y="653"/>
      <point x="65" y="530"/>
      <point x="65" y="331" type="curve" smooth="yes"/>
      <point x="65" y="107"/>
      <point x="197" y="-29"/>
      <point x="377" y="-29" type="curve" smooth="yes"/>
      <point x="477" y="-29"/>
      <point x="534" y="26"/>
      <point x="534" y="104" type="curve" smooth="yes"/>
      <point x="534" y="184"/>
      <point x="475" y="234"/>
      <point x="392" y="234" type="curve" smooth="yes"/>
      <point x="302" y="234"/>
      <point x="238" y="164"/>
      <point x="227" y="64" type="curve"/>
      <point x="309" y="64" type="line"/>
      <point x="314" y="104"/>
      <point x="340" y="151"/>
      <point x="390" y="151" type="curve" smooth="yes"/>
      <point x="414" y="151"/>
      <point x="440" y="140"/>
      <point x="440" y="104" type="curve" smooth="yes"/>
      <point x="440" y="78"/>
      <point x="423" y="61"/>
      <point x="395" y="61" type="curve" smooth="yes"/>
      <point x="312" y="61"/>
      <point x="247" y="147"/>
      <point x="247" y="333" type="curve" smooth="yes"/>
      <point x="247" y="439"/>
      <point x="287" y="501"/>
      <point x="341" y="501" type="curve" smooth="yes"/>
      <point x="408" y="501"/>
      <point x="430" y="421"/>
      <point x="503" y="421" type="curve" smooth="yes"/>
      <point x="576" y="421"/>
      <point x="598" y="501"/>
      <point x="665" y="501" type="curve" smooth="yes"/>
      <point x="701" y="501"/>
      <point x="727" y="478"/>
      <point x="727" y="438" type="curve" smooth="yes"/>
      <point x="727" y="410"/>
      <point x="716" y="389"/>
      <point x="692" y="367" type="curve"/>
      <point x="828" y="272" type="line"/>
      <point x="885" y="329"/>
      <point x="905" y="389"/>
    </contour>
  </outline>
</glyph>
<glyph name="va_cham" format="2">
  <advance width="1192"/>
  <unicode hex="AA25"/>
  <note>
uniAA25
</note>
  <outline>
    <contour>
      <point x="900" y="-126" type="curve" smooth="yes"/>
      <point x="900" y="26"/>
      <point x="833" y="150"/>
      <point x="699" y="270" type="curve"/>
      <point x="626" y="197" type="line"/>
      <point x="764" y="84"/>
      <point x="784" y="-35"/>
      <point x="784" y="-123" type="curve" smooth="yes"/>
      <point x="784" y="-211"/>
      <point x="764" y="-243"/>
      <point x="732" y="-243" type="curve" smooth="yes"/>
      <point x="702" y="-243"/>
      <point x="685" y="-210"/>
      <point x="685" y="-163" type="curve" smooth="yes"/>
      <point x="685" y="-110"/>
      <point x="728" y="14"/>
      <point x="907" y="190" type="curve"/>
      <point x="835" y="264" type="line"/>
      <point x="643" y="83"/>
      <point x="571" y="-57"/>
      <point x="571" y="-166" type="curve" smooth="yes"/>
      <point x="571" y="-275"/>
      <point x="635" y="-346"/>
      <point x="735" y="-346" type="curve" smooth="yes"/>
      <point x="835" y="-346"/>
      <point x="900" y="-268"/>
    </contour>
    <component base="dha_withcrossstroke"/>
  </outline>
</glyph>
<glyph name="ssa_cham" format="2">
  <advance width="1231"/>
  <unicode hex="AA26"/>
  <note>
uniAA26
</note>
  <outline>
    <contour>
      <point x="1189" y="442" type="curve" smooth="yes"/>
      <point x="1189" y="567"/>
      <point x="1090" y="653"/>
      <point x="937" y="653" type="curve" smooth="yes"/>
      <point x="785" y="653"/>
      <point x="690" y="579"/>
      <point x="690" y="475" type="curve" smooth="yes"/>
      <point x="690" y="437"/>
      <point x="702" y="401"/>
      <point x="702" y="376" type="curve" smooth="yes"/>
      <point x="702" y="276"/>
      <point x="559" y="280"/>
      <point x="559" y="144" type="curve" smooth="yes"/>
      <point x="559" y="112"/>
      <point x="566" y="91"/>
      <point x="598" y="68" type="curve"/>
      <point x="581" y="106" type="line"/>
      <point x="577" y="106"/>
      <point x="572" y="106"/>
      <point x="570" y="106" type="curve" smooth="yes"/>
      <point x="542" y="106"/>
      <point x="520" y="150"/>
      <point x="520" y="193" type="curve" smooth="yes"/>
      <point x="520" y="267"/>
      <point x="590" y="336"/>
      <point x="590" y="436" type="curve" smooth="yes"/>
      <point x="590" y="568"/>
      <point x="475" y="653"/>
      <point x="314" y="653" type="curve" smooth="yes"/>
      <point x="144" y="653"/>
      <point x="42" y="555"/>
      <point x="42" y="415" type="curve" smooth="yes"/>
      <point x="42" y="279"/>
      <point x="132" y="214"/>
      <point x="234" y="214" type="curve" smooth="yes"/>
      <point x="307" y="214"/>
      <point x="352" y="254"/>
      <point x="352" y="314" type="curve" smooth="yes"/>
      <point x="352" y="371"/>
      <point x="311" y="408"/>
      <point x="248" y="408" type="curve" smooth="yes"/>
      <point x="146" y="408"/>
      <point x="88" y="303"/>
      <point x="78" y="172" type="curve"/>
      <point x="157" y="168" type="line"/>
      <point x="168" y="257"/>
      <point x="191" y="341"/>
      <point x="245" y="341" type="curve" smooth="yes"/>
      <point x="259" y="341"/>
      <point x="275" y="334"/>
      <point x="275" y="312" type="curve" smooth="yes"/>
      <point x="275" y="302"/>
      <point x="271" y="286"/>
      <point x="248" y="286" type="curve" smooth="yes"/>
      <point x="215" y="286"/>
      <point x="193" y="321"/>
      <point x="193" y="398" type="curve" smooth="yes"/>
      <point x="193" y="471"/>
      <point x="235" y="511"/>
      <point x="307" y="511" type="curve" smooth="yes"/>
      <point x="368" y="511"/>
      <point x="408" y="473"/>
      <point x="408" y="421" type="curve" smooth="yes"/>
      <point x="408" y="350"/>
      <point x="338" y="281"/>
      <point x="338" y="189" type="curve" smooth="yes"/>
      <point x="338" y="69"/>
      <point x="443" y="-29"/>
      <point x="607" y="-29" type="curve" smooth="yes"/>
      <point x="639" y="-29"/>
      <point x="670" y="-28"/>
      <point x="689" y="-25" type="curve"/>
      <point x="728" y="66" type="line"/>
      <point x="706" y="91"/>
      <point x="697" y="105"/>
      <point x="697" y="126" type="curve" smooth="yes"/>
      <point x="697" y="224"/>
      <point x="876" y="210"/>
      <point x="876" y="356" type="curve" smooth="yes"/>
      <point x="876" y="394"/>
      <point x="864" y="423"/>
      <point x="864" y="446" type="curve" smooth="yes"/>
      <point x="864" y="486"/>
      <point x="892" y="511"/>
      <point x="936" y="511" type="curve" smooth="yes"/>
      <point x="981" y="511"/>
      <point x="1011" y="485"/>
      <point x="1011" y="443" type="curve" smooth="yes"/>
      <point x="1011" y="413"/>
      <point x="996" y="389"/>
      <point x="974" y="369" type="curve"/>
      <point x="1108" y="269" type="line"/>
      <point x="1168" y="320"/>
      <point x="1189" y="380"/>
    </contour>
  </outline>
</glyph>
<glyph name="sa_cham" format="2">
  <advance width="1286"/>
  <unicode hex="AA27"/>
  <note>
uniAA27
</note>
  <outline>
    <contour>
      <point x="1244" y="451" type="curve" smooth="yes"/>
      <point x="1244" y="578"/>
      <point x="1160" y="653"/>
      <point x="1047" y="653" type="curve" smooth="yes"/>
      <point x="930" y="653"/>
      <point x="904" y="573"/>
      <point x="842" y="573" type="curve" smooth="yes"/>
      <point x="780" y="573"/>
      <point x="750" y="653"/>
      <point x="633" y="653" type="curve" smooth="yes"/>
      <point x="520" y="653"/>
      <point x="436" y="584"/>
      <point x="436" y="467" type="curve" smooth="yes"/>
      <point x="436" y="375"/>
      <point x="480" y="300"/>
      <point x="480" y="224" type="curve" smooth="yes"/>
      <point x="480" y="132"/>
      <point x="419" y="85"/>
      <point x="325" y="85" type="curve" smooth="yes"/>
      <point x="235" y="85"/>
      <point x="181" y="130"/>
      <point x="181" y="187" type="curve" smooth="yes"/>
      <point x="181" y="224"/>
      <point x="204" y="249"/>
      <point x="241" y="249" type="curve" smooth="yes"/>
      <point x="280" y="249"/>
      <point x="303" y="220"/>
      <point x="303" y="171" type="curve" smooth="yes"/>
      <point x="303" y="142"/>
      <point x="294" y="106"/>
      <point x="280" y="80" type="curve"/>
      <point x="393" y="80" type="line"/>
      <point x="407" y="102"/>
      <point x="426" y="145"/>
      <point x="426" y="196" type="curve" smooth="yes"/>
      <point x="426" y="298"/>
      <point x="347" y="361"/>
      <point x="236" y="361" type="curve" smooth="yes"/>
      <point x="112" y="361"/>
      <point x="42" y="284"/>
      <point x="42" y="184" type="curve" smooth="yes"/>
      <point x="42" y="58"/>
      <point x="159" y="-29"/>
      <point x="357" y="-29" type="curve" smooth="yes"/>
      <point x="545" y="-29"/>
      <point x="658" y="70"/>
      <point x="658" y="213" type="curve" smooth="yes"/>
      <point x="658" y="312"/>
      <point x="618" y="381"/>
      <point x="618" y="439" type="curve" smooth="yes"/>
      <point x="618" y="479"/>
      <point x="644" y="501"/>
      <point x="680" y="501" type="curve" smooth="yes"/>
      <point x="747" y="501"/>
      <point x="769" y="421"/>
      <point x="842" y="421" type="curve" smooth="yes"/>
      <point x="915" y="421"/>
      <point x="937" y="501"/>
      <point x="1004" y="501" type="curve" smooth="yes"/>
      <point x="1040" y="501"/>
      <point x="1066" y="478"/>
      <point x="1066" y="438" type="curve" smooth="yes"/>
      <point x="1066" y="410"/>
      <point x="1055" y="389"/>
      <point x="1031" y="367" type="curve"/>
      <point x="1167" y="272" type="line"/>
      <point x="1224" y="329"/>
      <point x="1244" y="389"/>
    </contour>
  </outline>
</glyph>
<glyph name="ha_cham" format="2">
  <advance width="1282"/>
  <unicode hex="AA28"/>
  <note>
uniAA28
</note>
  <outline>
    <contour>
      <point x="1240" y="433" type="curve" smooth="yes"/>
      <point x="1240" y="565"/>
      <point x="1150" y="653"/>
      <point x="1020" y="653" type="curve" smooth="yes"/>
      <point x="879" y="653"/>
      <point x="785" y="560"/>
      <point x="785" y="414" type="curve"/>
      <point x="892" y="414" type="line"/>
      <point x="892" y="560"/>
      <point x="794" y="653"/>
      <point x="655" y="653" type="curve" smooth="yes"/>
      <point x="525" y="653"/>
      <point x="436" y="570"/>
      <point x="436" y="454" type="curve" smooth="yes"/>
      <point x="436" y="365"/>
      <point x="480" y="302"/>
      <point x="480" y="224" type="curve" smooth="yes"/>
      <point x="480" y="132"/>
      <point x="419" y="85"/>
      <point x="325" y="85" type="curve" smooth="yes"/>
      <point x="235" y="85"/>
      <point x="181" y="130"/>
      <point x="181" y="187" type="curve" smooth="yes"/>
      <point x="181" y="224"/>
      <point x="204" y="249"/>
      <point x="241" y="249" type="curve" smooth="yes"/>
      <point x="280" y="249"/>
      <point x="303" y="220"/>
      <point x="303" y="171" type="curve" smooth="yes"/>
      <point x="303" y="142"/>
      <point x="294" y="106"/>
      <point x="280" y="80" type="curve"/>
      <point x="393" y="80" type="line"/>
      <point x="407" y="102"/>
      <point x="426" y="145"/>
      <point x="426" y="196" type="curve" smooth="yes"/>
      <point x="426" y="298"/>
      <point x="347" y="361"/>
      <point x="236" y="361" type="curve" smooth="yes"/>
      <point x="112" y="361"/>
      <point x="42" y="284"/>
      <point x="42" y="184" type="curve" smooth="yes"/>
      <point x="42" y="58"/>
      <point x="159" y="-29"/>
      <point x="357" y="-29" type="curve" smooth="yes"/>
      <point x="545" y="-29"/>
      <point x="658" y="70"/>
      <point x="658" y="213" type="curve" smooth="yes"/>
      <point x="658" y="312"/>
      <point x="618" y="373"/>
      <point x="618" y="443" type="curve" smooth="yes"/>
      <point x="618" y="481"/>
      <point x="644" y="511"/>
      <point x="687" y="511" type="curve" smooth="yes"/>
      <point x="736" y="511"/>
      <point x="768" y="476"/>
      <point x="762" y="391" type="curve"/>
      <point x="915" y="391" type="line"/>
      <point x="908" y="481"/>
      <point x="950" y="511"/>
      <point x="1004" y="511" type="curve" smooth="yes"/>
      <point x="1054" y="511"/>
      <point x="1089" y="485"/>
      <point x="1089" y="419" type="curve" smooth="yes"/>
      <point x="1089" y="330"/>
      <point x="1063" y="294"/>
      <point x="1017" y="294" type="curve" smooth="yes"/>
      <point x="999" y="294"/>
      <point x="992" y="305"/>
      <point x="992" y="316" type="curve" smooth="yes"/>
      <point x="992" y="331"/>
      <point x="1005" y="341"/>
      <point x="1023" y="341" type="curve" smooth="yes"/>
      <point x="1061" y="341"/>
      <point x="1085" y="311"/>
      <point x="1100" y="264" type="curve"/>
      <point x="1179" y="315" type="line"/>
      <point x="1143" y="380"/>
      <point x="1087" y="419"/>
      <point x="1019" y="419" type="curve" smooth="yes"/>
      <point x="948" y="419"/>
      <point x="899" y="378"/>
      <point x="899" y="319" type="curve" smooth="yes"/>
      <point x="899" y="255"/>
      <point x="947" y="212"/>
      <point x="1036" y="212" type="curve" smooth="yes"/>
      <point x="1163" y="212"/>
      <point x="1240" y="304"/>
    </contour>
  </outline>
</glyph>
<glyph name="iSign_cham" format="2">
  <unicode hex="AA2A"/>
  <note>
uniAA2A
</note>
  <outline>
    <contour>
      <point x="87" y="868" type="curve" smooth="yes"/>
      <point x="87" y="1016"/>
      <point x="-25" y="1112"/>
      <point x="-168" y="1112" type="curve" smooth="yes"/>
      <point x="-323" y="1112"/>
      <point x="-418" y="1023"/>
      <point x="-418" y="897" type="curve" smooth="yes"/>
      <point x="-418" y="799"/>
      <point x="-347" y="730"/>
      <point x="-237" y="730" type="curve" smooth="yes"/>
      <point x="-204" y="730" type="line" smooth="yes"/>
      <point x="-156" y="730"/>
      <point x="-135" y="711"/>
      <point x="-135" y="681" type="curve" smooth="yes"/>
      <point x="-135" y="648"/>
      <point x="-146" y="629"/>
      <point x="-199" y="582" type="curve"/>
      <point x="-101" y="501" type="line"/>
      <point x="14" y="618"/>
      <point x="87" y="746"/>
    </contour>
    <contour>
      <point x="-61" y="863" type="curve" smooth="yes"/>
      <point x="-61" y="818"/>
      <point x="-74" y="759"/>
      <point x="-90" y="723" type="curve"/>
      <point x="-59" y="723" type="line"/>
      <point x="-59" y="734" type="line" smooth="yes"/>
      <point x="-59" y="806"/>
      <point x="-94" y="838"/>
      <point x="-154" y="838" type="curve" smooth="yes"/>
      <point x="-201" y="838" type="line" smooth="yes"/>
      <point x="-247" y="838"/>
      <point x="-276" y="868"/>
      <point x="-276" y="911" type="curve" smooth="yes"/>
      <point x="-276" y="959"/>
      <point x="-238" y="997"/>
      <point x="-173" y="997" type="curve" smooth="yes"/>
      <point x="-104" y="997"/>
      <point x="-61" y="950"/>
    </contour>
  </outline>
</glyph>
<glyph name="iiSign_cham" format="2">
  <unicode hex="AA2B"/>
  <note>
uniAA2B
</note>
  <outline>
    <contour>
      <point x="-169" y="856" type="curve" smooth="yes"/>
      <point x="-134" y="856"/>
      <point x="-112" y="878"/>
      <point x="-112" y="913" type="curve" smooth="yes"/>
      <point x="-112" y="948"/>
      <point x="-134" y="970"/>
      <point x="-169" y="970" type="curve" smooth="yes"/>
      <point x="-204" y="970"/>
      <point x="-226" y="948"/>
      <point x="-226" y="913" type="curve" smooth="yes"/>
      <point x="-226" y="878"/>
      <point x="-204" y="856"/>
    </contour>
    <contour>
      <point x="87" y="868" type="curve" smooth="yes"/>
      <point x="87" y="1016"/>
      <point x="-25" y="1112"/>
      <point x="-171" y="1112" type="curve" smooth="yes"/>
      <point x="-328" y="1112"/>
      <point x="-418" y="1023"/>
      <point x="-418" y="897" type="curve" smooth="yes"/>
      <point x="-418" y="799"/>
      <point x="-347" y="730"/>
      <point x="-237" y="730" type="curve" smooth="yes"/>
      <point x="-204" y="730" type="line" smooth="yes"/>
      <point x="-156" y="730"/>
      <point x="-135" y="711"/>
      <point x="-135" y="681" type="curve" smooth="yes"/>
      <point x="-135" y="648"/>
      <point x="-146" y="629"/>
      <point x="-199" y="582" type="curve"/>
      <point x="-101" y="501" type="line"/>
      <point x="14" y="618"/>
      <point x="87" y="746"/>
    </contour>
    <contour>
      <point x="-46" y="871" type="curve" smooth="yes"/>
      <point x="-46" y="813"/>
      <point x="-57" y="759"/>
      <point x="-80" y="723" type="curve"/>
      <point x="-59" y="711" type="line"/>
      <point x="-59" y="722" type="line" smooth="yes"/>
      <point x="-59" y="792"/>
      <point x="-88" y="823"/>
      <point x="-151" y="823" type="curve" smooth="yes"/>
      <point x="-209" y="823" type="line" smooth="yes"/>
      <point x="-265" y="823"/>
      <point x="-298" y="860"/>
      <point x="-298" y="913" type="curve" smooth="yes"/>
      <point x="-298" y="969"/>
      <point x="-257" y="1015"/>
      <point x="-177" y="1015" type="curve" smooth="yes"/>
      <point x="-96" y="1015"/>
      <point x="-46" y="967"/>
    </contour>
  </outline>
</glyph>
<glyph name="eiSign_cham" format="2">
  <unicode hex="AA2C"/>
  <note>
uniAA2C
</note>
  <outline>
    <contour>
      <point x="87" y="868" type="curve" smooth="yes"/>
      <point x="87" y="1016"/>
      <point x="-25" y="1112"/>
      <point x="-168" y="1112" type="curve" smooth="yes"/>
      <point x="-323" y="1112"/>
      <point x="-418" y="1023"/>
      <point x="-418" y="897" type="curve" smooth="yes"/>
      <point x="-418" y="799"/>
      <point x="-347" y="730"/>
      <point x="-237" y="730" type="curve" smooth="yes"/>
      <point x="-204" y="730" type="line" smooth="yes"/>
      <point x="-156" y="730"/>
      <point x="-135" y="711"/>
      <point x="-135" y="681" type="curve" smooth="yes"/>
      <point x="-135" y="648"/>
      <point x="-146" y="629"/>
      <point x="-199" y="582" type="curve"/>
      <point x="-101" y="501" type="line"/>
      <point x="14" y="618"/>
      <point x="87" y="746"/>
    </contour>
    <contour>
      <point x="-37" y="879" type="curve" smooth="yes"/>
      <point x="-37" y="814"/>
      <point x="-57" y="759"/>
      <point x="-80" y="723" type="curve"/>
      <point x="-59" y="711" type="line"/>
      <point x="-59" y="722" type="line" smooth="yes"/>
      <point x="-59" y="792"/>
      <point x="-92" y="823"/>
      <point x="-152" y="823" type="curve" smooth="yes"/>
      <point x="-209" y="823" type="line" smooth="yes"/>
      <point x="-265" y="823"/>
      <point x="-298" y="860"/>
      <point x="-298" y="913" type="curve" smooth="yes"/>
      <point x="-298" y="969"/>
      <point x="-257" y="1015"/>
      <point x="-177" y="1015" type="curve" smooth="yes"/>
      <point x="-96" y="1015"/>
      <point x="-37" y="978"/>
    </contour>
    <contour>
      <point x="-170" y="958" type="curve"/>
      <point x="-170" y="874" type="line"/>
      <point x="7" y="854"/>
      <point x="94" y="877"/>
      <point x="190" y="924" type="curve"/>
      <point x="157" y="1001" type="line"/>
      <point x="70" y="959"/>
      <point x="-21" y="939"/>
    </contour>
  </outline>
</glyph>
<glyph name="uSign_cham" format="2">
  <unicode hex="AA2D"/>
  <note>
Used with double marks below. Right side-bearing is increased and kerned with following bases to accommodate marks shifted right.
</note>
  <outline>
    <contour>
      <point x="3" y="139" type="curve"/>
      <point x="-86" y="139" type="line"/>
      <point x="-93" y="97"/>
      <point x="-109" y="91"/>
      <point x="-121" y="91" type="curve" smooth="yes"/>
      <point x="-171" y="91"/>
      <point x="-235" y="138"/>
      <point x="-285" y="138" type="curve" smooth="yes"/>
      <point x="-357" y="138"/>
      <point x="-400" y="93"/>
      <point x="-408" y="-29" type="curve"/>
      <point x="-320" y="-29" type="line"/>
      <point x="-312" y="14"/>
      <point x="-297" y="19"/>
      <point x="-285" y="19" type="curve" smooth="yes"/>
      <point x="-236" y="19"/>
      <point x="-176" y="-28"/>
      <point x="-117" y="-28" type="curve" smooth="yes"/>
      <point x="-53" y="-28"/>
      <point x="-5" y="19"/>
    </contour>
  </outline>
</glyph>
<glyph name="oeSign_cham" format="2">
  <unicode hex="AA2E"/>
  <note>
uniAA2E
</note>
  <outline>
    <contour>
      <point x="32" y="1000" type="curve"/>
      <point x="-130" y="1000" type="line"/>
      <point x="-130" y="918"/>
      <point x="-190" y="874"/>
      <point x="-266" y="874" type="curve" smooth="yes"/>
      <point x="-303" y="874"/>
      <point x="-339" y="885"/>
      <point x="-370" y="901" type="curve"/>
      <point x="-459" y="796" type="line"/>
      <point x="-414" y="758"/>
      <point x="-330" y="744"/>
      <point x="-258" y="744" type="curve" smooth="yes"/>
      <point x="-71" y="744"/>
      <point x="32" y="879"/>
    </contour>
  </outline>
</glyph>
<glyph name="oSign_cham" format="2">
  <advance width="629"/>
  <unicode hex="AA2F"/>
  <note>
uniAA2F
</note>
  <outline>
    <contour>
      <point x="606" y="456" type="line"/>
      <point x="583" y="580"/>
      <point x="484" y="653"/>
      <point x="343" y="653" type="curve" smooth="yes"/>
      <point x="169" y="653"/>
      <point x="54" y="538"/>
      <point x="54" y="367" type="curve" smooth="yes"/>
      <point x="54" y="193"/>
      <point x="185" y="92"/>
      <point x="325" y="92" type="curve" smooth="yes"/>
      <point x="423" y="92"/>
      <point x="481" y="149"/>
      <point x="481" y="229" type="curve" smooth="yes"/>
      <point x="481" y="307"/>
      <point x="427" y="356"/>
      <point x="346" y="356" type="curve" smooth="yes"/>
      <point x="255" y="356"/>
      <point x="195" y="285"/>
      <point x="185" y="185" type="curve"/>
      <point x="257" y="185" type="line"/>
      <point x="261" y="226"/>
      <point x="287" y="272"/>
      <point x="336" y="272" type="curve" smooth="yes"/>
      <point x="360" y="272"/>
      <point x="388" y="262"/>
      <point x="388" y="226" type="curve" smooth="yes"/>
      <point x="388" y="200"/>
      <point x="366" y="182"/>
      <point x="334" y="182" type="curve" smooth="yes"/>
      <point x="274" y="182"/>
      <point x="221" y="234"/>
      <point x="221" y="359" type="curve" smooth="yes"/>
      <point x="221" y="456"/>
      <point x="269" y="511"/>
      <point x="343" y="511" type="curve" smooth="yes"/>
      <point x="402" y="511"/>
      <point x="439" y="478"/>
      <point x="451" y="413" type="curve"/>
    </contour>
  </outline>
</glyph>
<glyph name="auSign_cham" format="2">
  <unicode hex="AA31"/>
  <outline>
    <contour>
      <point x="209" y="1049" type="curve"/>
      <point x="74" y="1097" type="line"/>
      <point x="58" y="1052"/>
      <point x="39" y="1019"/>
      <point x="11" y="1019" type="curve" smooth="yes"/>
      <point x="-27" y="1019"/>
      <point x="-107" y="1077"/>
      <point x="-176" y="1077" type="curve" smooth="yes"/>
      <point x="-276" y="1077"/>
      <point x="-353" y="1000"/>
      <point x="-353" y="918" type="curve" smooth="yes"/>
      <point x="-353" y="835"/>
      <point x="-300" y="791"/>
      <point x="-230" y="744" type="curve" smooth="yes"/>
      <point x="-169" y="703"/>
      <point x="-148" y="685"/>
      <point x="-148" y="659" type="curve" smooth="yes"/>
      <point x="-148" y="635"/>
      <point x="-165" y="610"/>
      <point x="-217" y="582" type="curve"/>
      <point x="-124" y="477" type="line"/>
      <point x="-42" y="522"/>
      <point x="8" y="585"/>
      <point x="8" y="661" type="curve" smooth="yes"/>
      <point x="8" y="743"/>
      <point x="-47" y="788"/>
      <point x="-119" y="835" type="curve" smooth="yes"/>
      <point x="-180" y="875"/>
      <point x="-203" y="892"/>
      <point x="-203" y="914" type="curve" smooth="yes"/>
      <point x="-203" y="928"/>
      <point x="-191" y="944"/>
      <point x="-164" y="944" type="curve" smooth="yes"/>
      <point x="-120" y="944"/>
      <point x="-49" y="883"/>
      <point x="33" y="883" type="curve" smooth="yes"/>
      <point x="107" y="883"/>
      <point x="180" y="945"/>
    </contour>
  </outline>
</glyph>
<glyph name="ueSign_cham" format="2">
  <unicode hex="AA32"/>
  <note>
uniAA32
</note>
  <outline>
    <contour>
      <point x="-102" y="161" type="curve"/>
      <point x="-252" y="107" type="line"/>
      <point x="-235" y="75"/>
      <point x="-225" y="35"/>
      <point x="-225" y="-7" type="curve" smooth="yes"/>
      <point x="-225" y="-57"/>
      <point x="-239" y="-111"/>
      <point x="-262" y="-170" type="curve"/>
      <point x="-115" y="-216" type="line"/>
      <point x="-83" y="-150"/>
      <point x="-62" y="-70"/>
      <point x="-62" y="4" type="curve" smooth="yes"/>
      <point x="-62" y="67"/>
      <point x="-77" y="121"/>
    </contour>
  </outline>
</glyph>
<glyph name="yaMedial_cham" format="2">
  <advance width="651"/>
  <unicode hex="AA33"/>
  <note>
uniAA33
</note>
  <outline>
    <contour>
      <point x="609" y="443" type="curve" smooth="yes"/>
      <point x="609" y="567"/>
      <point x="509" y="653"/>
      <point x="356" y="653" type="curve" smooth="yes"/>
      <point x="204" y="653"/>
      <point x="110" y="577"/>
      <point x="110" y="465" type="curve" smooth="yes"/>
      <point x="110" y="421"/>
      <point x="128" y="365"/>
      <point x="128" y="333" type="curve" smooth="yes"/>
      <point x="128" y="301"/>
      <point x="115" y="282"/>
      <point x="71" y="262" type="curve"/>
      <point x="87" y="252" type="line"/>
      <point x="97" y="354"/>
      <point x="32" y="467"/>
      <point x="-100" y="487" type="curve"/>
      <point x="-90" y="331" type="line"/>
      <point x="-53" y="329"/>
      <point x="-16" y="287"/>
      <point x="-16" y="232" type="curve" smooth="yes"/>
      <point x="-16" y="213"/>
      <point x="-18" y="194"/>
      <point x="-23" y="178" type="curve"/>
      <point x="3" y="122" type="line"/>
      <point x="185" y="163"/>
      <point x="296" y="231"/>
      <point x="296" y="329" type="curve" smooth="yes"/>
      <point x="296" y="374"/>
      <point x="284" y="412"/>
      <point x="284" y="445" type="curve" smooth="yes"/>
      <point x="284" y="485"/>
      <point x="311" y="511"/>
      <point x="356" y="511" type="curve" smooth="yes"/>
      <point x="398" y="511"/>
      <point x="431" y="488"/>
      <point x="431" y="442" type="curve" smooth="yes"/>
      <point x="431" y="414"/>
      <point x="420" y="390"/>
      <point x="396" y="367" type="curve"/>
      <point x="534" y="272" type="line"/>
      <point x="590" y="334"/>
      <point x="609" y="380"/>
    </contour>
  </outline>
</glyph>
<glyph name="laMedial_cham" format="2">
  <unicode hex="AA35"/>
  <note>
uniAA35
</note>
  <outline>
    <contour>
      <point x="30" y="164" type="curve"/>
      <point x="-70" y="200" type="line"/>
      <point x="-78" y="169"/>
      <point x="-92" y="149"/>
      <point x="-124" y="149" type="curve" smooth="yes"/>
      <point x="-153" y="149"/>
      <point x="-199" y="165"/>
      <point x="-243" y="165" type="curve" smooth="yes"/>
      <point x="-356" y="165"/>
      <point x="-415" y="71"/>
      <point x="-415" y="-39" type="curve" smooth="yes"/>
      <point x="-415" y="-166"/>
      <point x="-337" y="-219"/>
      <point x="-255" y="-219" type="curve" smooth="yes"/>
      <point x="-184" y="-219"/>
      <point x="-129" y="-174"/>
      <point x="-129" y="-100" type="curve" smooth="yes"/>
      <point x="-129" y="-17"/>
      <point x="-201" y="29"/>
      <point x="-303" y="29" type="curve" smooth="yes"/>
      <point x="-329" y="29"/>
      <point x="-353" y="25"/>
      <point x="-376" y="19" type="curve"/>
      <point x="-364" y="-73" type="line"/>
      <point x="-343" y="-59"/>
      <point x="-319" y="-52"/>
      <point x="-296" y="-52" type="curve" smooth="yes"/>
      <point x="-253" y="-52"/>
      <point x="-231" y="-69"/>
      <point x="-231" y="-97" type="curve" smooth="yes"/>
      <point x="-231" y="-116"/>
      <point x="-242" y="-129"/>
      <point x="-260" y="-129" type="curve" smooth="yes"/>
      <point x="-285" y="-129"/>
      <point x="-313" y="-107"/>
      <point x="-313" y="-41" type="curve" smooth="yes"/>
      <point x="-313" y="17"/>
      <point x="-280" y="55"/>
      <point x="-224" y="55" type="curve" smooth="yes"/>
      <point x="-183" y="55"/>
      <point x="-147" y="34"/>
      <point x="-88" y="34" type="curve" smooth="yes"/>
      <point x="-26" y="34"/>
      <point x="15" y="82"/>
    </contour>
  </outline>
</glyph>
<glyph name="waMedial_cham" format="2">
  <unicode hex="AA36"/>
  <note>
uniAA36
</note>
  <outline>
    <contour>
      <point x="-64" y="203" type="line"/>
      <point x="-235" y="143"/>
      <point x="-327" y="35"/>
      <point x="-327" y="-64" type="curve" smooth="yes"/>
      <point x="-327" y="-153"/>
      <point x="-267" y="-219"/>
      <point x="-174" y="-219" type="curve" smooth="yes"/>
      <point x="-82" y="-219"/>
      <point x="-22" y="-153"/>
      <point x="-22" y="-64" type="curve" smooth="yes"/>
      <point x="-22" y="35"/>
      <point x="-113" y="143"/>
      <point x="-284" y="203" type="curve"/>
      <point x="-321" y="115" type="line"/>
      <point x="-178" y="58"/>
      <point x="-132" y="-12"/>
      <point x="-132" y="-63" type="curve" smooth="yes"/>
      <point x="-132" y="-96"/>
      <point x="-148" y="-122"/>
      <point x="-174" y="-122" type="curve" smooth="yes"/>
      <point x="-201" y="-122"/>
      <point x="-217" y="-96"/>
      <point x="-217" y="-63" type="curve" smooth="yes"/>
      <point x="-217" y="-12"/>
      <point x="-171" y="58"/>
      <point x="-28" y="114" type="curve"/>
    </contour>
  </outline>
</glyph>
<glyph name="kFinal_cham" format="2">
  <advance width="999"/>
  <unicode hex="AA40"/>
  <note>
uniAA40
</note>
  <outline>
    <contour>
      <point x="934" y="351" type="curve" smooth="yes"/>
      <point x="934" y="537"/>
      <point x="842" y="653"/>
      <point x="689" y="653" type="curve" smooth="yes"/>
      <point x="552" y="653"/>
      <point x="457" y="560"/>
      <point x="457" y="414" type="curve"/>
      <point x="564" y="414" type="line"/>
      <point x="564" y="560"/>
      <point x="466" y="653"/>
      <point x="327" y="653" type="curve" smooth="yes"/>
      <point x="197" y="653"/>
      <point x="108" y="569"/>
      <point x="108" y="454" type="curve" smooth="yes"/>
      <point x="108" y="353"/>
      <point x="170" y="272"/>
      <point x="170" y="207" type="curve" smooth="yes"/>
      <point x="170" y="138"/>
      <point x="119" y="104"/>
      <point x="45" y="84" type="curve"/>
      <point x="76" y="-64" type="line"/>
      <point x="249" y="-36"/>
      <point x="352" y="60"/>
      <point x="352" y="195" type="curve" smooth="yes"/>
      <point x="352" y="295"/>
      <point x="290" y="378"/>
      <point x="290" y="443" type="curve" smooth="yes"/>
      <point x="290" y="481"/>
      <point x="316" y="511"/>
      <point x="359" y="511" type="curve" smooth="yes"/>
      <point x="408" y="511"/>
      <point x="440" y="476"/>
      <point x="434" y="391" type="curve"/>
      <point x="587" y="391" type="line"/>
      <point x="582" y="480"/>
      <point x="622" y="511"/>
      <point x="666" y="511" type="curve" smooth="yes"/>
      <point x="722" y="511"/>
      <point x="752" y="453"/>
      <point x="752" y="353" type="curve" smooth="yes"/>
      <point x="752" y="215"/>
      <point x="680" y="78"/>
      <point x="565" y="-18" type="curve"/>
      <point x="695" y="-134" type="line"/>
      <point x="840" y="-9"/>
      <point x="934" y="174"/>
    </contour>
  </outline>
</glyph>
<glyph name="gFinal_cham" format="2">
  <advance width="999"/>
  <unicode hex="AA41"/>
  <note>
uniAA41
</note>
  <outline>
    <contour>
      <point x="934" y="351" type="curve" smooth="yes"/>
      <point x="934" y="537"/>
      <point x="840" y="653"/>
      <point x="684" y="653" type="curve" smooth="yes"/>
      <point x="544" y="653"/>
      <point x="447" y="560"/>
      <point x="447" y="414" type="curve"/>
      <point x="554" y="414" type="line"/>
      <point x="554" y="560"/>
      <point x="467" y="653"/>
      <point x="331" y="653" type="curve" smooth="yes"/>
      <point x="169" y="653"/>
      <point x="65" y="529"/>
      <point x="65" y="330" type="curve" smooth="yes"/>
      <point x="65" y="107"/>
      <point x="197" y="-29"/>
      <point x="377" y="-29" type="curve" smooth="yes"/>
      <point x="477" y="-29"/>
      <point x="534" y="26"/>
      <point x="534" y="104" type="curve" smooth="yes"/>
      <point x="534" y="184"/>
      <point x="475" y="234"/>
      <point x="392" y="234" type="curve" smooth="yes"/>
      <point x="302" y="234"/>
      <point x="238" y="164"/>
      <point x="227" y="64" type="curve"/>
      <point x="309" y="64" type="line"/>
      <point x="314" y="104"/>
      <point x="340" y="151"/>
      <point x="390" y="151" type="curve" smooth="yes"/>
      <point x="414" y="151"/>
      <point x="440" y="140"/>
      <point x="440" y="104" type="curve" smooth="yes"/>
      <point x="440" y="78"/>
      <point x="423" y="61"/>
      <point x="395" y="61" type="curve" smooth="yes"/>
      <point x="312" y="61"/>
      <point x="247" y="147"/>
      <point x="247" y="334" type="curve" smooth="yes"/>
      <point x="247" y="445"/>
      <point x="287" y="511"/>
      <point x="349" y="511" type="curve" smooth="yes"/>
      <point x="397" y="511"/>
      <point x="430" y="474"/>
      <point x="424" y="391" type="curve"/>
      <point x="577" y="391" type="line"/>
      <point x="572" y="480"/>
      <point x="615" y="511"/>
      <point x="661" y="511" type="curve" smooth="yes"/>
      <point x="720" y="511"/>
      <point x="752" y="453"/>
      <point x="752" y="353" type="curve" smooth="yes"/>
      <point x="752" y="215"/>
      <point x="680" y="78"/>
      <point x="565" y="-18" type="curve"/>
      <point x="695" y="-134" type="line"/>
      <point x="840" y="-9"/>
      <point x="934" y="174"/>
    </contour>
  </outline>
</glyph>
<glyph name="ngFinal_cham" format="2">
  <advance width="1297"/>
  <unicode hex="AA42"/>
  <note>
uniAA42
</note>
  <outline>
    <contour>
      <point x="1255" y="407" type="curve" smooth="yes"/>
      <point x="1255" y="564"/>
      <point x="1127" y="653"/>
      <point x="960" y="653" type="curve" smooth="yes"/>
      <point x="781" y="653"/>
      <point x="662" y="558"/>
      <point x="662" y="415" type="curve" smooth="yes"/>
      <point x="662" y="293"/>
      <point x="745" y="212"/>
      <point x="855" y="212" type="curve" smooth="yes"/>
      <point x="937" y="212"/>
      <point x="980" y="252"/>
      <point x="980" y="320" type="curve" smooth="yes"/>
      <point x="980" y="380"/>
      <point x="939" y="421"/>
      <point x="870" y="421" type="curve" smooth="yes"/>
      <point x="763" y="421"/>
      <point x="700" y="370"/>
      <point x="700" y="282" type="curve" smooth="yes"/>
      <point x="700" y="257"/>
      <point x="699" y="222"/>
      <point x="697" y="211" type="curve" smooth="yes"/>
      <point x="687" y="144"/>
      <point x="630" y="121"/>
      <point x="504" y="104" type="curve"/>
      <point x="490" y="5" type="line"/>
      <point x="582" y="66"/>
      <point x="616" y="138"/>
      <point x="616" y="207" type="curve" smooth="yes"/>
      <point x="616" y="310"/>
      <point x="532" y="363"/>
      <point x="428" y="363" type="curve" smooth="yes"/>
      <point x="404" y="363"/>
      <point x="379" y="360"/>
      <point x="354" y="355" type="curve"/>
      <point x="399" y="256" type="line"/>
      <point x="496" y="289"/>
      <point x="551" y="368"/>
      <point x="551" y="449" type="curve" smooth="yes"/>
      <point x="551" y="573"/>
      <point x="446" y="653"/>
      <point x="299" y="653" type="curve" smooth="yes"/>
      <point x="145" y="653"/>
      <point x="42" y="567"/>
      <point x="42" y="437" type="curve" smooth="yes"/>
      <point x="42" y="381"/>
      <point x="63" y="320"/>
      <point x="121" y="269" type="curve"/>
      <point x="254" y="368" type="line"/>
      <point x="233" y="387"/>
      <point x="220" y="413"/>
      <point x="220" y="441" type="curve" smooth="yes"/>
      <point x="220" y="485"/>
      <point x="251" y="511"/>
      <point x="296" y="511" type="curve" smooth="yes"/>
      <point x="344" y="511"/>
      <point x="369" y="476"/>
      <point x="369" y="437" type="curve" smooth="yes"/>
      <point x="369" y="390"/>
      <point x="337" y="355"/>
      <point x="278" y="336" type="curve"/>
      <point x="312" y="236" type="line"/>
      <point x="328" y="243"/>
      <point x="346" y="247"/>
      <point x="363" y="247" type="curve" smooth="yes"/>
      <point x="400" y="247"/>
      <point x="438" y="227"/>
      <point x="438" y="175" type="curve" smooth="yes"/>
      <point x="438" y="125"/>
      <point x="420" y="92"/>
      <point x="367" y="24" type="curve"/>
      <point x="396" y="-61" type="line"/>
      <point x="736" y="-3"/>
      <point x="828" y="49"/>
      <point x="833" y="220" type="curve" smooth="yes"/>
      <point x="834" y="254"/>
      <point x="832" y="281"/>
      <point x="832" y="304" type="curve"/>
      <point x="832" y="328"/>
      <point x="848" y="343"/>
      <point x="867" y="343" type="curve" smooth="yes"/>
      <point x="884" y="343"/>
      <point x="897" y="333"/>
      <point x="897" y="317" type="curve" smooth="yes"/>
      <point x="897" y="302"/>
      <point x="887" y="289"/>
      <point x="867" y="289" type="curve" smooth="yes"/>
      <point x="842" y="289"/>
      <point x="821" y="324"/>
      <point x="821" y="406" type="curve" smooth="yes"/>
      <point x="821" y="478"/>
      <point x="873" y="511"/>
      <point x="949" y="511" type="curve" smooth="yes"/>
      <point x="1015" y="511"/>
      <point x="1073" y="478"/>
      <point x="1073" y="397" type="curve" smooth="yes"/>
      <point x="1073" y="341"/>
      <point x="1046" y="289"/>
      <point x="974" y="242" type="curve" smooth="yes"/>
      <point x="923" y="209" type="line" smooth="yes"/>
      <point x="879" y="181"/>
      <point x="873" y="164"/>
      <point x="873" y="111" type="curve" smooth="yes"/>
      <point x="873" y="-335" type="line"/>
      <point x="1060" y="-335" type="line"/>
      <point x="1060" y="87" type="line" smooth="yes"/>
      <point x="1060" y="122"/>
      <point x="1067" y="127"/>
      <point x="1096" y="147" type="curve" smooth="yes"/>
      <point x="1137" y="176" type="line" smooth="yes"/>
      <point x="1213" y="230"/>
      <point x="1255" y="308"/>
    </contour>
  </outline>
</glyph>
<glyph name="ngSignFinal_cham" format="2">
  <unicode hex="AA43"/>
  <note>
uniAA43
</note>
  <outline>
    <contour>
      <point x="-37" y="902" type="line"/>
      <point x="-78" y="993" type="line"/>
      <point x="-475" y="825" type="line"/>
      <point x="-410" y="700" type="line"/>
    </contour>
  </outline>
</glyph>
<glyph name="chFinal_cham" format="2">
  <advance width="1148"/>
  <unicode hex="AA44"/>
  <note>
uniAA44
</note>
  <outline>
    <contour>
      <point x="1083" y="351" type="curve" smooth="yes"/>
      <point x="1083" y="537"/>
      <point x="984" y="653"/>
      <point x="820" y="653" type="curve" smooth="yes"/>
      <point x="717" y="653"/>
      <point x="636" y="608"/>
      <point x="611" y="490" type="curve" smooth="yes"/>
      <point x="586" y="374"/>
      <point x="540" y="359"/>
      <point x="439" y="352" type="curve" smooth="yes"/>
      <point x="271" y="340"/>
      <point x="147" y="267"/>
      <point x="147" y="143" type="curve" smooth="yes"/>
      <point x="147" y="34"/>
      <point x="222" y="-29"/>
      <point x="330" y="-29" type="curve" smooth="yes"/>
      <point x="475" y="-29"/>
      <point x="577" y="101"/>
      <point x="577" y="296" type="curve" smooth="yes"/>
      <point x="577" y="524"/>
      <point x="463" y="653"/>
      <point x="286" y="653" type="curve" smooth="yes"/>
      <point x="147" y="653"/>
      <point x="56" y="578"/>
      <point x="56" y="470" type="curve" smooth="yes"/>
      <point x="56" y="395"/>
      <point x="91" y="339"/>
      <point x="137" y="309" type="curve"/>
      <point x="251" y="404" type="line"/>
      <point x="241" y="411"/>
      <point x="228" y="429"/>
      <point x="228" y="455" type="curve" smooth="yes"/>
      <point x="228" y="494"/>
      <point x="259" y="511"/>
      <point x="290" y="511" type="curve" smooth="yes"/>
      <point x="359" y="511"/>
      <point x="400" y="443"/>
      <point x="400" y="305" type="curve" smooth="yes"/>
      <point x="400" y="179"/>
      <point x="369" y="109"/>
      <point x="333" y="109" type="curve" smooth="yes"/>
      <point x="312" y="109"/>
      <point x="301" y="125"/>
      <point x="301" y="149" type="curve" smooth="yes"/>
      <point x="301" y="187"/>
      <point x="333" y="228"/>
      <point x="512" y="255" type="curve" smooth="yes"/>
      <point x="658" y="277"/>
      <point x="712" y="310"/>
      <point x="733" y="415" type="curve" smooth="yes"/>
      <point x="746" y="479"/>
      <point x="759" y="511"/>
      <point x="810" y="511" type="curve" smooth="yes"/>
      <point x="870" y="511"/>
      <point x="901" y="453"/>
      <point x="901" y="353" type="curve" smooth="yes"/>
      <point x="901" y="215"/>
      <point x="829" y="78"/>
      <point x="714" y="-18" type="curve"/>
      <point x="844" y="-134" type="line"/>
      <point x="989" y="-9"/>
      <point x="1083" y="174"/>
    </contour>
  </outline>
</glyph>
<glyph name="tFinal_cham" format="2">
  <advance width="999"/>
  <unicode hex="AA45"/>
  <note>
uniAA45
</note>
  <outline>
    <contour>
      <point x="934" y="351" type="curve" smooth="yes"/>
      <point x="934" y="537"/>
      <point x="840" y="653"/>
      <point x="684" y="653" type="curve" smooth="yes"/>
      <point x="544" y="653"/>
      <point x="447" y="560"/>
      <point x="447" y="414" type="curve"/>
      <point x="554" y="414" type="line"/>
      <point x="554" y="560"/>
      <point x="467" y="653"/>
      <point x="331" y="653" type="curve" smooth="yes"/>
      <point x="169" y="653"/>
      <point x="65" y="529"/>
      <point x="65" y="330" type="curve" smooth="yes"/>
      <point x="65" y="107"/>
      <point x="182" y="-29"/>
      <point x="355" y="-29" type="curve" smooth="yes"/>
      <point x="487" y="-29"/>
      <point x="563" y="48"/>
      <point x="563" y="154" type="curve" smooth="yes"/>
      <point x="563" y="268"/>
      <point x="475" y="337"/>
      <point x="365" y="337" type="curve" smooth="yes"/>
      <point x="277" y="337"/>
      <point x="205" y="291"/>
      <point x="158" y="214" type="curve"/>
      <point x="233" y="126" type="line"/>
      <point x="256" y="192"/>
      <point x="298" y="225"/>
      <point x="354" y="225" type="curve" smooth="yes"/>
      <point x="387" y="225"/>
      <point x="424" y="208"/>
      <point x="424" y="152" type="curve" smooth="yes"/>
      <point x="424" y="112"/>
      <point x="398" y="85"/>
      <point x="356" y="85" type="curve" smooth="yes"/>
      <point x="286" y="85"/>
      <point x="247" y="168"/>
      <point x="247" y="334" type="curve" smooth="yes"/>
      <point x="247" y="445"/>
      <point x="287" y="511"/>
      <point x="349" y="511" type="curve" smooth="yes"/>
      <point x="397" y="511"/>
      <point x="430" y="474"/>
      <point x="424" y="391" type="curve"/>
      <point x="577" y="391" type="line"/>
      <point x="572" y="480"/>
      <point x="615" y="511"/>
      <point x="661" y="511" type="curve" smooth="yes"/>
      <point x="720" y="511"/>
      <point x="752" y="453"/>
      <point x="752" y="353" type="curve" smooth="yes"/>
      <point x="752" y="215"/>
      <point x="680" y="78"/>
      <point x="565" y="-18" type="curve"/>
      <point x="695" y="-134" type="line"/>
      <point x="840" y="-9"/>
      <point x="934" y="174"/>
    </contour>
  </outline>
</glyph>
<glyph name="nFinal_cham" format="2">
  <advance width="1244"/>
  <unicode hex="AA46"/>
  <note>
uniAA46
</note>
  <outline>
    <contour>
      <point x="1179" y="351" type="curve" smooth="yes"/>
      <point x="1179" y="537"/>
      <point x="1085" y="653"/>
      <point x="904" y="653" type="curve" smooth="yes"/>
      <point x="750" y="653"/>
      <point x="658" y="567"/>
      <point x="658" y="448" type="curve" smooth="yes"/>
      <point x="658" y="365"/>
      <point x="696" y="299"/>
      <point x="696" y="230" type="curve" smooth="yes"/>
      <point x="696" y="182"/>
      <point x="673" y="124"/>
      <point x="656" y="105" type="curve"/>
      <point x="714" y="23" type="line"/>
      <point x="748" y="209"/>
      <point x="617" y="362"/>
      <point x="415" y="362" type="curve" smooth="yes"/>
      <point x="272" y="362"/>
      <point x="147" y="280"/>
      <point x="147" y="143" type="curve" smooth="yes"/>
      <point x="147" y="34"/>
      <point x="222" y="-29"/>
      <point x="330" y="-29" type="curve" smooth="yes"/>
      <point x="475" y="-29"/>
      <point x="577" y="101"/>
      <point x="577" y="296" type="curve" smooth="yes"/>
      <point x="577" y="524"/>
      <point x="463" y="653"/>
      <point x="286" y="653" type="curve" smooth="yes"/>
      <point x="147" y="653"/>
      <point x="56" y="578"/>
      <point x="56" y="470" type="curve" smooth="yes"/>
      <point x="56" y="395"/>
      <point x="91" y="339"/>
      <point x="137" y="309" type="curve"/>
      <point x="251" y="404" type="line"/>
      <point x="241" y="411"/>
      <point x="228" y="429"/>
      <point x="228" y="455" type="curve" smooth="yes"/>
      <point x="228" y="494"/>
      <point x="259" y="511"/>
      <point x="290" y="511" type="curve" smooth="yes"/>
      <point x="359" y="511"/>
      <point x="400" y="443"/>
      <point x="400" y="305" type="curve" smooth="yes"/>
      <point x="400" y="179"/>
      <point x="369" y="109"/>
      <point x="333" y="109" type="curve" smooth="yes"/>
      <point x="312" y="109"/>
      <point x="301" y="125"/>
      <point x="301" y="149" type="curve" smooth="yes"/>
      <point x="301" y="197"/>
      <point x="348" y="249"/>
      <point x="439" y="249" type="curve" smooth="yes"/>
      <point x="521" y="249"/>
      <point x="621" y="182"/>
      <point x="618" y="24" type="curve"/>
      <point x="685" y="-29" type="line"/>
      <point x="799" y="30"/>
      <point x="868" y="128"/>
      <point x="868" y="245" type="curve" smooth="yes"/>
      <point x="868" y="342"/>
      <point x="840" y="386"/>
      <point x="840" y="441" type="curve" smooth="yes"/>
      <point x="840" y="485"/>
      <point x="863" y="511"/>
      <point x="906" y="511" type="curve" smooth="yes"/>
      <point x="965" y="511"/>
      <point x="997" y="453"/>
      <point x="997" y="353" type="curve" smooth="yes"/>
      <point x="997" y="215"/>
      <point x="925" y="78"/>
      <point x="810" y="-18" type="curve"/>
      <point x="940" y="-134" type="line"/>
      <point x="1085" y="-9"/>
      <point x="1179" y="174"/>
    </contour>
  </outline>
</glyph>
<glyph name="pFinal_cham" format="2">
  <advance width="1327"/>
  <unicode hex="AA47"/>
  <note>
uniAA47
</note>
  <outline>
    <contour>
      <point x="1262" y="351" type="curve" smooth="yes"/>
      <point x="1262" y="537"/>
      <point x="1170" y="653"/>
      <point x="1017" y="653" type="curve" smooth="yes"/>
      <point x="880" y="653"/>
      <point x="785" y="560"/>
      <point x="785" y="414" type="curve"/>
      <point x="892" y="414" type="line"/>
      <point x="892" y="560"/>
      <point x="794" y="653"/>
      <point x="655" y="653" type="curve" smooth="yes"/>
      <point x="525" y="653"/>
      <point x="436" y="570"/>
      <point x="436" y="454" type="curve" smooth="yes"/>
      <point x="436" y="365"/>
      <point x="480" y="302"/>
      <point x="480" y="224" type="curve" smooth="yes"/>
      <point x="480" y="132"/>
      <point x="419" y="85"/>
      <point x="325" y="85" type="curve" smooth="yes"/>
      <point x="235" y="85"/>
      <point x="181" y="130"/>
      <point x="181" y="187" type="curve" smooth="yes"/>
      <point x="181" y="224"/>
      <point x="204" y="249"/>
      <point x="241" y="249" type="curve" smooth="yes"/>
      <point x="280" y="249"/>
      <point x="303" y="220"/>
      <point x="303" y="171" type="curve" smooth="yes"/>
      <point x="303" y="142"/>
      <point x="294" y="106"/>
      <point x="280" y="80" type="curve"/>
      <point x="393" y="80" type="line"/>
      <point x="407" y="102"/>
      <point x="426" y="145"/>
      <point x="426" y="196" type="curve" smooth="yes"/>
      <point x="426" y="298"/>
      <point x="347" y="361"/>
      <point x="236" y="361" type="curve" smooth="yes"/>
      <point x="112" y="361"/>
      <point x="42" y="284"/>
      <point x="42" y="184" type="curve" smooth="yes"/>
      <point x="42" y="58"/>
      <point x="159" y="-29"/>
      <point x="357" y="-29" type="curve" smooth="yes"/>
      <point x="545" y="-29"/>
      <point x="658" y="70"/>
      <point x="658" y="213" type="curve" smooth="yes"/>
      <point x="658" y="312"/>
      <point x="618" y="373"/>
      <point x="618" y="443" type="curve" smooth="yes"/>
      <point x="618" y="481"/>
      <point x="644" y="511"/>
      <point x="687" y="511" type="curve" smooth="yes"/>
      <point x="736" y="511"/>
      <point x="768" y="476"/>
      <point x="762" y="391" type="curve"/>
      <point x="915" y="391" type="line"/>
      <point x="910" y="480"/>
      <point x="950" y="511"/>
      <point x="994" y="511" type="curve" smooth="yes"/>
      <point x="1050" y="511"/>
      <point x="1080" y="453"/>
      <point x="1080" y="353" type="curve" smooth="yes"/>
      <point x="1080" y="215"/>
      <point x="1008" y="78"/>
      <point x="893" y="-18" type="curve"/>
      <point x="1023" y="-134" type="line"/>
      <point x="1168" y="-9"/>
      <point x="1262" y="174"/>
    </contour>
  </outline>
</glyph>
<glyph name="yFinal_cham" format="2">
  <advance width="1524"/>
  <unicode hex="AA48"/>
  <note>
uniAA48
</note>
  <outline>
    <contour>
      <point x="1459" y="351" type="curve" smooth="yes"/>
      <point x="1459" y="537"/>
      <point x="1365" y="653"/>
      <point x="1209" y="653" type="curve" smooth="yes"/>
      <point x="1069" y="653"/>
      <point x="972" y="560"/>
      <point x="972" y="414" type="curve"/>
      <point x="1079" y="414" type="line"/>
      <point x="1079" y="560"/>
      <point x="981" y="653"/>
      <point x="842" y="653" type="curve" smooth="yes"/>
      <point x="712" y="653"/>
      <point x="623" y="572"/>
      <point x="623" y="451" type="curve" smooth="yes"/>
      <point x="623" y="358"/>
      <point x="662" y="294"/>
      <point x="662" y="247" type="curve" smooth="yes"/>
      <point x="662" y="181"/>
      <point x="609" y="153"/>
      <point x="492" y="119" type="curve"/>
      <point x="486" y="71" type="line"/>
      <point x="535" y="186"/>
      <point x="558" y="296"/>
      <point x="558" y="383" type="curve" smooth="yes"/>
      <point x="558" y="554"/>
      <point x="449" y="653"/>
      <point x="292" y="653" type="curve" smooth="yes"/>
      <point x="143" y="653"/>
      <point x="42" y="567"/>
      <point x="42" y="437" type="curve" smooth="yes"/>
      <point x="42" y="381"/>
      <point x="63" y="320"/>
      <point x="121" y="269" type="curve"/>
      <point x="254" y="368" type="line"/>
      <point x="233" y="387"/>
      <point x="220" y="413"/>
      <point x="220" y="441" type="curve" smooth="yes"/>
      <point x="220" y="485"/>
      <point x="248" y="511"/>
      <point x="289" y="511" type="curve" smooth="yes"/>
      <point x="347" y="511"/>
      <point x="376" y="448"/>
      <point x="376" y="374" type="curve" smooth="yes"/>
      <point x="376" y="269"/>
      <point x="337" y="123"/>
      <point x="283" y="21" type="curve"/>
      <point x="311" y="-61" type="line"/>
      <point x="639" y="-6"/>
      <point x="846" y="78"/>
      <point x="846" y="239" type="curve" smooth="yes"/>
      <point x="846" y="318"/>
      <point x="805" y="380"/>
      <point x="805" y="445" type="curve" smooth="yes"/>
      <point x="805" y="480"/>
      <point x="831" y="511"/>
      <point x="874" y="511" type="curve" smooth="yes"/>
      <point x="923" y="511"/>
      <point x="955" y="476"/>
      <point x="949" y="391" type="curve"/>
      <point x="1102" y="391" type="line"/>
      <point x="1097" y="480"/>
      <point x="1140" y="511"/>
      <point x="1186" y="511" type="curve" smooth="yes"/>
      <point x="1245" y="511"/>
      <point x="1277" y="453"/>
      <point x="1277" y="353" type="curve" smooth="yes"/>
      <point x="1277" y="215"/>
      <point x="1205" y="78"/>
      <point x="1090" y="-18" type="curve"/>
      <point x="1220" y="-134" type="line"/>
      <point x="1365" y="-9"/>
      <point x="1459" y="174"/>
    </contour>
  </outline>
</glyph>
<glyph name="lFinal_cham" format="2">
  <advance width="998"/>
  <unicode hex="AA4A"/>
  <note>
uniAA4A
</note>
  <outline>
    <contour>
      <point x="933" y="352" type="curve" smooth="yes"/>
      <point x="933" y="538"/>
      <point x="829" y="653"/>
      <point x="699" y="653" type="curve" smooth="yes"/>
      <point x="577" y="653"/>
      <point x="558" y="574"/>
      <point x="499" y="574" type="curve" smooth="yes"/>
      <point x="440" y="574"/>
      <point x="421" y="653"/>
      <point x="299" y="653" type="curve" smooth="yes"/>
      <point x="162" y="653"/>
      <point x="65" y="530"/>
      <point x="65" y="331" type="curve" smooth="yes"/>
      <point x="65" y="107"/>
      <point x="197" y="-29"/>
      <point x="377" y="-29" type="curve" smooth="yes"/>
      <point x="477" y="-29"/>
      <point x="534" y="26"/>
      <point x="534" y="104" type="curve" smooth="yes"/>
      <point x="534" y="184"/>
      <point x="475" y="234"/>
      <point x="392" y="234" type="curve" smooth="yes"/>
      <point x="302" y="234"/>
      <point x="238" y="164"/>
      <point x="227" y="64" type="curve"/>
      <point x="309" y="64" type="line"/>
      <point x="314" y="104"/>
      <point x="340" y="151"/>
      <point x="390" y="151" type="curve" smooth="yes"/>
      <point x="414" y="151"/>
      <point x="440" y="140"/>
      <point x="440" y="104" type="curve" smooth="yes"/>
      <point x="440" y="78"/>
      <point x="423" y="61"/>
      <point x="395" y="61" type="curve" smooth="yes"/>
      <point x="312" y="61"/>
      <point x="247" y="147"/>
      <point x="247" y="333" type="curve" smooth="yes"/>
      <point x="247" y="439"/>
      <point x="287" y="502"/>
      <point x="341" y="502" type="curve" smooth="yes"/>
      <point x="404" y="502"/>
      <point x="426" y="422"/>
      <point x="499" y="422" type="curve" smooth="yes"/>
      <point x="572" y="422"/>
      <point x="594" y="502"/>
      <point x="657" y="502" type="curve" smooth="yes"/>
      <point x="708" y="502"/>
      <point x="751" y="448"/>
      <point x="751" y="354" type="curve" smooth="yes"/>
      <point x="751" y="216"/>
      <point x="679" y="79"/>
      <point x="564" y="-17" type="curve"/>
      <point x="694" y="-133" type="line"/>
      <point x="839" y="-8"/>
      <point x="933" y="175"/>
    </contour>
  </outline>
</glyph>
<glyph name="mSignFinal_cham" format="2">
  <unicode hex="AA4C"/>
  <note>
uniAA4C
</note>
  <outline>
    <contour>
      <point x="-256" y="756" type="curve" smooth="yes"/>
      <point x="-198" y="756"/>
      <point x="-163" y="791"/>
      <point x="-163" y="849" type="curve" smooth="yes"/>
      <point x="-163" y="907"/>
      <point x="-198" y="942"/>
      <point x="-256" y="942" type="curve" smooth="yes"/>
      <point x="-314" y="942"/>
      <point x="-349" y="907"/>
      <point x="-349" y="849" type="curve" smooth="yes"/>
      <point x="-349" y="791"/>
      <point x="-314" y="756"/>
    </contour>
  </outline>
</glyph>
<glyph name="hSignFinal_cham" format="2">
  <advance width="677"/>
  <unicode hex="AA4D"/>
  <note>
uniAA4D
</note>
  <outline>
    <contour>
      <point x="635" y="407" type="curve" smooth="yes"/>
      <point x="635" y="564"/>
      <point x="507" y="653"/>
      <point x="340" y="653" type="curve" smooth="yes"/>
      <point x="161" y="653"/>
      <point x="42" y="560"/>
      <point x="42" y="418" type="curve" smooth="yes"/>
      <point x="42" y="290"/>
      <point x="125" y="219"/>
      <point x="232" y="219" type="curve" smooth="yes"/>
      <point x="305" y="219"/>
      <point x="351" y="262"/>
      <point x="351" y="320" type="curve" smooth="yes"/>
      <point x="351" y="378"/>
      <point x="310" y="413"/>
      <point x="252" y="413" type="curve" smooth="yes"/>
      <point x="193" y="413"/>
      <point x="149" y="378"/>
      <point x="130" y="327" type="curve"/>
      <point x="186" y="270" type="line"/>
      <point x="191" y="316"/>
      <point x="213" y="346"/>
      <point x="244" y="346" type="curve" smooth="yes"/>
      <point x="257" y="346"/>
      <point x="274" y="338"/>
      <point x="274" y="319" type="curve" smooth="yes"/>
      <point x="274" y="306"/>
      <point x="270" y="291"/>
      <point x="247" y="291" type="curve" smooth="yes"/>
      <point x="214" y="291"/>
      <point x="201" y="324"/>
      <point x="201" y="405" type="curve" smooth="yes"/>
      <point x="201" y="478"/>
      <point x="253" y="511"/>
      <point x="329" y="511" type="curve" smooth="yes"/>
      <point x="395" y="511"/>
      <point x="453" y="478"/>
      <point x="453" y="397" type="curve" smooth="yes"/>
      <point x="453" y="341"/>
      <point x="426" y="289"/>
      <point x="354" y="242" type="curve" smooth="yes"/>
      <point x="303" y="209" type="line" smooth="yes"/>
      <point x="259" y="181"/>
      <point x="253" y="164"/>
      <point x="253" y="111" type="curve" smooth="yes"/>
      <point x="253" y="-335" type="line"/>
      <point x="440" y="-335" type="line"/>
      <point x="440" y="87" type="line" smooth="yes"/>
      <point x="440" y="122"/>
      <point x="447" y="127"/>
      <point x="476" y="147" type="curve" smooth="yes"/>
      <point x="517" y="176" type="line" smooth="yes"/>
      <point x="593" y="230"/>
      <point x="635" y="308"/>
    </contour>
  </outline>
</glyph>
<glyph name="zero_cham" format="2">
  <advance width="717"/>
  <unicode hex="AA50"/>
  <note>
uniAA50
</note>
  <outline>
    <contour>
      <point x="674" y="313" type="curve" smooth="yes"/>
      <point x="674" y="531"/>
      <point x="542" y="653"/>
      <point x="360" y="653" type="curve" smooth="yes"/>
      <point x="162" y="653"/>
      <point x="42" y="531"/>
      <point x="42" y="313" type="curve" smooth="yes"/>
      <point x="42" y="93"/>
      <point x="174" y="-29"/>
      <point x="357" y="-29" type="curve" smooth="yes"/>
      <point x="554" y="-29"/>
      <point x="674" y="93"/>
    </contour>
    <contour>
      <point x="230" y="313" type="curve" smooth="yes"/>
      <point x="230" y="443"/>
      <point x="267" y="511"/>
      <point x="358" y="511" type="curve" smooth="yes"/>
      <point x="452" y="511"/>
      <point x="486" y="443"/>
      <point x="486" y="313" type="curve" smooth="yes"/>
      <point x="486" y="183"/>
      <point x="452" y="113"/>
      <point x="359" y="113" type="curve" smooth="yes"/>
      <point x="266" y="113"/>
      <point x="230" y="183"/>
    </contour>
  </outline>
</glyph>
<glyph name="two_cham" format="2">
  <advance width="1051"/>
  <unicode hex="AA52"/>
  <note>
uniAA52
</note>
  <outline>
    <contour>
      <point x="986" y="317" type="curve" smooth="yes"/>
      <point x="986" y="448" type="line" smooth="yes"/>
      <point x="986" y="573"/>
      <point x="917" y="653"/>
      <point x="815" y="653" type="curve" smooth="yes"/>
      <point x="762" y="653"/>
      <point x="742" y="640"/>
      <point x="712" y="619" type="curve" smooth="yes"/>
      <point x="684" y="600"/>
      <point x="670" y="588"/>
      <point x="643" y="588" type="curve" smooth="yes"/>
      <point x="617" y="588"/>
      <point x="601" y="600"/>
      <point x="574" y="619" type="curve" smooth="yes"/>
      <point x="543" y="641"/>
      <point x="521" y="653"/>
      <point x="474" y="653" type="curve" smooth="yes"/>
      <point x="363" y="653"/>
      <point x="307" y="558"/>
      <point x="307" y="436" type="curve" smooth="yes"/>
      <point x="307" y="274"/>
      <point x="399" y="189"/>
      <point x="522" y="189" type="curve" smooth="yes"/>
      <point x="604" y="189"/>
      <point x="663" y="242"/>
      <point x="663" y="317" type="curve" smooth="yes"/>
      <point x="663" y="394"/>
      <point x="607" y="442"/>
      <point x="528" y="442" type="curve" smooth="yes"/>
      <point x="440" y="442"/>
      <point x="377" y="372"/>
      <point x="366" y="272" type="curve"/>
      <point x="438" y="272" type="line"/>
      <point x="443" y="312"/>
      <point x="471" y="359"/>
      <point x="524" y="359" type="curve" smooth="yes"/>
      <point x="546" y="359"/>
      <point x="569" y="348"/>
      <point x="569" y="312" type="curve" smooth="yes"/>
      <point x="569" y="286"/>
      <point x="554" y="269"/>
      <point x="530" y="269" type="curve" smooth="yes"/>
      <point x="501" y="269"/>
      <point x="479" y="291"/>
      <point x="479" y="393" type="curve" smooth="yes"/>
      <point x="479" y="463"/>
      <point x="496" y="498"/>
      <point x="527" y="498" type="curve" smooth="yes"/>
      <point x="541" y="498"/>
      <point x="555" y="490"/>
      <point x="574" y="477" type="curve" smooth="yes"/>
      <point x="596" y="462"/>
      <point x="616" y="451"/>
      <point x="644" y="451" type="curve" smooth="yes"/>
      <point x="671" y="451"/>
      <point x="690" y="461"/>
      <point x="712" y="477" type="curve" smooth="yes"/>
      <point x="731" y="491"/>
      <point x="745" y="498"/>
      <point x="761" y="498" type="curve" smooth="yes"/>
      <point x="794" y="498"/>
      <point x="807" y="476"/>
      <point x="807" y="428" type="curve" smooth="yes"/>
      <point x="807" y="321" type="line" smooth="yes"/>
      <point x="807" y="184"/>
      <point x="724" y="122"/>
      <point x="535" y="122" type="curve" smooth="yes"/>
      <point x="362" y="122"/>
      <point x="244" y="171"/>
      <point x="244" y="291" type="curve" smooth="yes"/>
      <point x="244" y="673" type="line" smooth="yes"/>
      <point x="244" y="792"/>
      <point x="312" y="840"/>
      <point x="396" y="840" type="curve" smooth="yes"/>
      <point x="492" y="840"/>
      <point x="554" y="778"/>
      <point x="673" y="778" type="curve" smooth="yes"/>
      <point x="777" y="778"/>
      <point x="893" y="825"/>
      <point x="953" y="996" type="curve"/>
      <point x="802" y="1060" type="line"/>
      <point x="759" y="956"/>
      <point x="707" y="931"/>
      <point x="652" y="931" type="curve" smooth="yes"/>
      <point x="566" y="931"/>
      <point x="506" y="993"/>
      <point x="372" y="993" type="curve" smooth="yes"/>
      <point x="194" y="993"/>
      <point x="65" y="884"/>
      <point x="65" y="677" type="curve" smooth="yes"/>
      <point x="65" y="287" type="line" smooth="yes"/>
      <point x="65" y="90"/>
      <point x="244" y="-29"/>
      <point x="533" y="-29" type="curve" smooth="yes"/>
      <point x="832" y="-29"/>
      <point x="986" y="103"/>
    </contour>
  </outline>
</glyph>
<glyph name="four_cham" format="2">
  <advance width="911"/>
  <unicode hex="AA54"/>
  <note>
uniAA54
</note>
  <outline>
    <contour>
      <point x="879" y="664" type="curve"/>
      <point x="745" y="720" type="line"/>
      <point x="704" y="616"/>
      <point x="660" y="592"/>
      <point x="606" y="592" type="curve" smooth="yes"/>
      <point x="522" y="592"/>
      <point x="456" y="653"/>
      <point x="340" y="653" type="curve" smooth="yes"/>
      <point x="171" y="653"/>
      <point x="65" y="519"/>
      <point x="65" y="322" type="curve" smooth="yes"/>
      <point x="65" y="97"/>
      <point x="182" y="-29"/>
      <point x="355" y="-29" type="curve" smooth="yes"/>
      <point x="487" y="-29"/>
      <point x="563" y="48"/>
      <point x="563" y="154" type="curve" smooth="yes"/>
      <point x="563" y="268"/>
      <point x="475" y="337"/>
      <point x="365" y="337" type="curve" smooth="yes"/>
      <point x="280" y="337"/>
      <point x="211" y="295"/>
      <point x="164" y="223" type="curve"/>
      <point x="235" y="134" type="line"/>
      <point x="259" y="195"/>
      <point x="301" y="225"/>
      <point x="354" y="225" type="curve" smooth="yes"/>
      <point x="387" y="225"/>
      <point x="424" y="208"/>
      <point x="424" y="152" type="curve" smooth="yes"/>
      <point x="424" y="112"/>
      <point x="398" y="85"/>
      <point x="356" y="85" type="curve" smooth="yes"/>
      <point x="286" y="85"/>
      <point x="247" y="168"/>
      <point x="247" y="334" type="curve" smooth="yes"/>
      <point x="247" y="446"/>
      <point x="295" y="502"/>
      <point x="376" y="502" type="curve" smooth="yes"/>
      <point x="453" y="502"/>
      <point x="523" y="441"/>
      <point x="636" y="441" type="curve" smooth="yes"/>
      <point x="724" y="441"/>
      <point x="823" y="497"/>
    </contour>
  </outline>
</glyph>
<glyph name="five_cham" format="2">
  <advance width="686"/>
  <unicode hex="AA55"/>
  <note>
uniAA55
</note>
  <outline>
    <contour>
      <point x="629" y="423" type="curve" smooth="yes"/>
      <point x="629" y="563"/>
      <point x="508" y="653"/>
      <point x="340" y="653" type="curve" smooth="yes"/>
      <point x="166" y="653"/>
      <point x="49" y="556"/>
      <point x="49" y="409" type="curve" smooth="yes"/>
      <point x="49" y="357"/>
      <point x="70" y="293"/>
      <point x="118" y="241" type="curve"/>
      <point x="261" y="329" type="line"/>
      <point x="241" y="351"/>
      <point x="227" y="380"/>
      <point x="227" y="413" type="curve" smooth="yes"/>
      <point x="227" y="472"/>
      <point x="273" y="511"/>
      <point x="338" y="511" type="curve" smooth="yes"/>
      <point x="411" y="511"/>
      <point x="447" y="463"/>
      <point x="447" y="410" type="curve" smooth="yes"/>
      <point x="447" y="368"/>
      <point x="428" y="334"/>
      <point x="392" y="309" type="curve"/>
      <point x="392" y="238" type="line"/>
      <point x="449" y="218"/>
      <point x="484" y="182"/>
      <point x="484" y="135" type="curve" smooth="yes"/>
      <point x="484" y="81"/>
      <point x="439" y="53"/>
      <point x="381" y="53" type="curve" smooth="yes"/>
      <point x="301" y="53"/>
      <point x="279" y="69"/>
      <point x="279" y="91" type="curve" smooth="yes"/>
      <point x="279" y="107"/>
      <point x="292" y="116"/>
      <point x="312" y="116" type="curve" smooth="yes"/>
      <point x="344" y="116"/>
      <point x="364" y="94"/>
      <point x="364" y="57" type="curve" smooth="yes"/>
      <point x="364" y="40"/>
      <point x="361" y="21"/>
      <point x="356" y="3" type="curve"/>
      <point x="442" y="14" type="line"/>
      <point x="444" y="28"/>
      <point x="445" y="43"/>
      <point x="445" y="53" type="curve" smooth="yes"/>
      <point x="445" y="120"/>
      <point x="400" y="193"/>
      <point x="307" y="193" type="curve" smooth="yes"/>
      <point x="239" y="193"/>
      <point x="186" y="153"/>
      <point x="186" y="96" type="curve" smooth="yes"/>
      <point x="186" y="18"/>
      <point x="258" y="-29"/>
      <point x="381" y="-29" type="curve" smooth="yes"/>
      <point x="549" y="-29"/>
      <point x="623" y="54"/>
      <point x="623" y="142" type="curve" smooth="yes"/>
      <point x="623" y="200"/>
      <point x="593" y="270"/>
      <point x="478" y="303" type="curve"/>
      <point x="456" y="213" type="line"/>
      <point x="566" y="248"/>
      <point x="629" y="334"/>
    </contour>
  </outline>
</glyph>
<glyph name="seven_cham" format="2">
  <advance width="1022"/>
  <unicode hex="AA57"/>
  <note>
uniAA57
</note>
  <outline>
    <contour>
      <point x="973" y="351" type="curve" smooth="yes"/>
      <point x="973" y="537"/>
      <point x="881" y="653"/>
      <point x="690" y="653" type="curve" smooth="yes"/>
      <point x="541" y="653"/>
      <point x="436" y="573"/>
      <point x="436" y="454" type="curve" smooth="yes"/>
      <point x="436" y="365"/>
      <point x="480" y="302"/>
      <point x="480" y="224" type="curve" smooth="yes"/>
      <point x="480" y="132"/>
      <point x="419" y="85"/>
      <point x="325" y="85" type="curve" smooth="yes"/>
      <point x="235" y="85"/>
      <point x="181" y="130"/>
      <point x="181" y="187" type="curve" smooth="yes"/>
      <point x="181" y="224"/>
      <point x="204" y="249"/>
      <point x="241" y="249" type="curve" smooth="yes"/>
      <point x="280" y="249"/>
      <point x="303" y="220"/>
      <point x="303" y="171" type="curve" smooth="yes"/>
      <point x="303" y="142"/>
      <point x="294" y="106"/>
      <point x="280" y="80" type="curve"/>
      <point x="393" y="80" type="line"/>
      <point x="407" y="102"/>
      <point x="426" y="145"/>
      <point x="426" y="196" type="curve" smooth="yes"/>
      <point x="426" y="298"/>
      <point x="347" y="361"/>
      <point x="236" y="361" type="curve" smooth="yes"/>
      <point x="112" y="361"/>
      <point x="42" y="284"/>
      <point x="42" y="184" type="curve" smooth="yes"/>
      <point x="42" y="58"/>
      <point x="159" y="-29"/>
      <point x="357" y="-29" type="curve" smooth="yes"/>
      <point x="545" y="-29"/>
      <point x="658" y="70"/>
      <point x="658" y="213" type="curve" smooth="yes"/>
      <point x="658" y="312"/>
      <point x="618" y="373"/>
      <point x="618" y="438" type="curve" smooth="yes"/>
      <point x="618" y="479"/>
      <point x="645" y="511"/>
      <point x="695" y="511" type="curve" smooth="yes"/>
      <point x="766" y="511"/>
      <point x="791" y="453"/>
      <point x="791" y="344" type="curve" smooth="yes"/>
      <point x="791" y="175"/>
      <point x="743" y="111"/>
      <point x="635" y="28" type="curve" smooth="yes"/>
      <point x="512" y="-66"/>
      <point x="479" y="-131"/>
      <point x="479" y="-195" type="curve" smooth="yes"/>
      <point x="479" y="-286"/>
      <point x="554" y="-346"/>
      <point x="638" y="-346" type="curve" smooth="yes"/>
      <point x="772" y="-346"/>
      <point x="802" y="-215"/>
      <point x="847" y="-215" type="curve" smooth="yes"/>
      <point x="863" y="-215"/>
      <point x="872" y="-223"/>
      <point x="872" y="-238" type="curve" smooth="yes"/>
      <point x="872" y="-248"/>
      <point x="869" y="-258"/>
      <point x="862" y="-269" type="curve"/>
      <point x="983" y="-320" type="line"/>
      <point x="1007" y="-288"/>
      <point x="1015" y="-242"/>
      <point x="1015" y="-215" type="curve" smooth="yes"/>
      <point x="1015" y="-144"/>
      <point x="957" y="-84"/>
      <point x="874" y="-84" type="curve" smooth="yes"/>
      <point x="758" y="-84"/>
      <point x="700" y="-214"/>
      <point x="657" y="-214" type="curve" smooth="yes"/>
      <point x="640" y="-214"/>
      <point x="627" y="-199"/>
      <point x="627" y="-181" type="curve" smooth="yes"/>
      <point x="627" y="-152"/>
      <point x="645" y="-121"/>
      <point x="773" y="-33" type="curve" smooth="yes"/>
      <point x="922" y="69"/>
      <point x="973" y="184"/>
    </contour>
  </outline>
</glyph>
<glyph name="eight_cham" format="2">
  <advance width="1137"/>
  <unicode hex="AA58"/>
  <note>
uniAA58
</note>
  <outline>
    <contour>
      <point x="1072" y="396" type="curve" smooth="yes"/>
      <point x="1072" y="554"/>
      <point x="980" y="653"/>
      <point x="835" y="653" type="curve" smooth="yes"/>
      <point x="723" y="653"/>
      <point x="636" y="607"/>
      <point x="610" y="488" type="curve" smooth="yes"/>
      <point x="585" y="374"/>
      <point x="540" y="359"/>
      <point x="439" y="352" type="curve" smooth="yes"/>
      <point x="271" y="340"/>
      <point x="147" y="267"/>
      <point x="147" y="143" type="curve" smooth="yes"/>
      <point x="147" y="34"/>
      <point x="222" y="-29"/>
      <point x="330" y="-29" type="curve" smooth="yes"/>
      <point x="475" y="-29"/>
      <point x="577" y="101"/>
      <point x="577" y="296" type="curve" smooth="yes"/>
      <point x="577" y="524"/>
      <point x="463" y="653"/>
      <point x="286" y="653" type="curve" smooth="yes"/>
      <point x="147" y="653"/>
      <point x="56" y="578"/>
      <point x="56" y="470" type="curve" smooth="yes"/>
      <point x="56" y="395"/>
      <point x="91" y="339"/>
      <point x="137" y="309" type="curve"/>
      <point x="251" y="404" type="line"/>
      <point x="241" y="411"/>
      <point x="228" y="429"/>
      <point x="228" y="455" type="curve" smooth="yes"/>
      <point x="228" y="494"/>
      <point x="259" y="511"/>
      <point x="290" y="511" type="curve" smooth="yes"/>
      <point x="359" y="511"/>
      <point x="400" y="443"/>
      <point x="400" y="305" type="curve" smooth="yes"/>
      <point x="400" y="179"/>
      <point x="369" y="109"/>
      <point x="333" y="109" type="curve" smooth="yes"/>
      <point x="312" y="109"/>
      <point x="301" y="125"/>
      <point x="301" y="149" type="curve" smooth="yes"/>
      <point x="301" y="187"/>
      <point x="333" y="228"/>
      <point x="512" y="255" type="curve" smooth="yes"/>
      <point x="658" y="277"/>
      <point x="712" y="310"/>
      <point x="733" y="415" type="curve" smooth="yes"/>
      <point x="746" y="479"/>
      <point x="767" y="511"/>
      <point x="817" y="511" type="curve" smooth="yes"/>
      <point x="862" y="511"/>
      <point x="890" y="471"/>
      <point x="890" y="397" type="curve" smooth="yes"/>
      <point x="890" y="238"/>
      <point x="850" y="159"/>
      <point x="702" y="69" type="curve" smooth="yes"/>
      <point x="549" y="-24"/>
      <point x="514" y="-108"/>
      <point x="514" y="-190" type="curve" smooth="yes"/>
      <point x="514" y="-282"/>
      <point x="589" y="-346"/>
      <point x="673" y="-346" type="curve" smooth="yes"/>
      <point x="807" y="-346"/>
      <point x="837" y="-215"/>
      <point x="882" y="-215" type="curve" smooth="yes"/>
      <point x="898" y="-215"/>
      <point x="907" y="-223"/>
      <point x="907" y="-238" type="curve" smooth="yes"/>
      <point x="907" y="-248"/>
      <point x="904" y="-258"/>
      <point x="897" y="-269" type="curve"/>
      <point x="1018" y="-320" type="line"/>
      <point x="1042" y="-288"/>
      <point x="1050" y="-242"/>
      <point x="1050" y="-215" type="curve" smooth="yes"/>
      <point x="1050" y="-144"/>
      <point x="992" y="-84"/>
      <point x="909" y="-84" type="curve" smooth="yes"/>
      <point x="793" y="-84"/>
      <point x="735" y="-214"/>
      <point x="692" y="-214" type="curve" smooth="yes"/>
      <point x="675" y="-214"/>
      <point x="662" y="-198"/>
      <point x="662" y="-175" type="curve" smooth="yes"/>
      <point x="662" y="-131"/>
      <point x="708" y="-87"/>
      <point x="809" y="-27" type="curve" smooth="yes"/>
      <point x="987" y="79"/>
      <point x="1072" y="196"/>
    </contour>
  </outline>
</glyph>
<glyph name="nine_cham" format="2">
  <advance width="1186"/>
  <unicode hex="AA59"/>
  <note>
uniAA59
</note>
  <outline>
    <contour>
      <point x="1137" y="351" type="curve" smooth="yes"/>
      <point x="1137" y="537"/>
      <point x="1045" y="653"/>
      <point x="854" y="653" type="curve" smooth="yes"/>
      <point x="708" y="653"/>
      <point x="603" y="573"/>
      <point x="603" y="455" type="curve" smooth="yes"/>
      <point x="603" y="338"/>
      <point x="660" y="265"/>
      <point x="660" y="195" type="curve" smooth="yes"/>
      <point x="660" y="145"/>
      <point x="633" y="113"/>
      <point x="575" y="113" type="curve" smooth="yes"/>
      <point x="519" y="113"/>
      <point x="489" y="145"/>
      <point x="489" y="195" type="curve" smooth="yes"/>
      <point x="489" y="265"/>
      <point x="551" y="338"/>
      <point x="551" y="455" type="curve" smooth="yes"/>
      <point x="551" y="573"/>
      <point x="446" y="653"/>
      <point x="300" y="653" type="curve" smooth="yes"/>
      <point x="147" y="653"/>
      <point x="42" y="564"/>
      <point x="42" y="434" type="curve" smooth="yes"/>
      <point x="42" y="377"/>
      <point x="64" y="307"/>
      <point x="120" y="266" type="curve"/>
      <point x="253" y="366" type="line"/>
      <point x="237" y="380"/>
      <point x="220" y="410"/>
      <point x="220" y="440" type="curve" smooth="yes"/>
      <point x="220" y="481"/>
      <point x="249" y="511"/>
      <point x="295" y="511" type="curve" smooth="yes"/>
      <point x="342" y="511"/>
      <point x="369" y="479"/>
      <point x="369" y="438" type="curve" smooth="yes"/>
      <point x="369" y="364"/>
      <point x="307" y="289"/>
      <point x="307" y="188" type="curve" smooth="yes"/>
      <point x="307" y="59"/>
      <point x="408" y="-29"/>
      <point x="575" y="-29" type="curve" smooth="yes"/>
      <point x="747" y="-29"/>
      <point x="842" y="63"/>
      <point x="842" y="189" type="curve" smooth="yes"/>
      <point x="842" y="293"/>
      <point x="785" y="364"/>
      <point x="785" y="438" type="curve" smooth="yes"/>
      <point x="785" y="479"/>
      <point x="812" y="511"/>
      <point x="859" y="511" type="curve" smooth="yes"/>
      <point x="930" y="511"/>
      <point x="955" y="453"/>
      <point x="955" y="344" type="curve" smooth="yes"/>
      <point x="955" y="175"/>
      <point x="907" y="111"/>
      <point x="799" y="28" type="curve" smooth="yes"/>
      <point x="676" y="-66"/>
      <point x="643" y="-131"/>
      <point x="643" y="-195" type="curve" smooth="yes"/>
      <point x="643" y="-286"/>
      <point x="718" y="-346"/>
      <point x="802" y="-346" type="curve" smooth="yes"/>
      <point x="936" y="-346"/>
      <point x="966" y="-215"/>
      <point x="1011" y="-215" type="curve" smooth="yes"/>
      <point x="1027" y="-215"/>
      <point x="1036" y="-223"/>
      <point x="1036" y="-238" type="curve" smooth="yes"/>
      <point x="1036" y="-248"/>
      <point x="1033" y="-258"/>
      <point x="1026" y="-269" type="curve"/>
      <point x="1147" y="-320" type="line"/>
      <point x="1171" y="-288"/>
      <point x="1179" y="-242"/>
      <point x="1179" y="-215" type="curve" smooth="yes"/>
      <point x="1179" y="-144"/>
      <point x="1121" y="-84"/>
      <point x="1038" y="-84" type="curve" smooth="yes"/>
      <point x="922" y="-84"/>
      <point x="864" y="-214"/>
      <point x="821" y="-214" type="curve" smooth="yes"/>
      <point x="804" y="-214"/>
      <point x="791" y="-199"/>
      <point x="791" y="-181" type="curve" smooth="yes"/>
      <point x="791" y="-152"/>
      <point x="809" y="-121"/>
      <point x="937" y="-33" type="curve" smooth="yes"/>
      <point x="1086" y="69"/>
      <point x="1137" y="184"/>
    </contour>
  </outline>
</glyph>
<glyph name="spiral_cham" format="2">
  <advance width="1109"/>
  <unicode hex="AA5C"/>
  <note>
uniAA5C
</note>
  <outline>
    <contour>
      <point x="1066" y="330" type="curve" smooth="yes"/>
      <point x="1066" y="598"/>
      <point x="899" y="761"/>
      <point x="626" y="761" type="curve" smooth="yes"/>
      <point x="372" y="761"/>
      <point x="218" y="620"/>
      <point x="218" y="387" type="curve" smooth="yes"/>
      <point x="218" y="173"/>
      <point x="345" y="44"/>
      <point x="555" y="44" type="curve" smooth="yes"/>
      <point x="747" y="44"/>
      <point x="863" y="151"/>
      <point x="863" y="330" type="curve" smooth="yes"/>
      <point x="863" y="487"/>
      <point x="773" y="581"/>
      <point x="626" y="581" type="curve" smooth="yes"/>
      <point x="492" y="581"/>
      <point x="412" y="504"/>
      <point x="412" y="376" type="curve" smooth="yes"/>
      <point x="412" y="268"/>
      <point x="470" y="203"/>
      <point x="564" y="203" type="curve" smooth="yes"/>
      <point x="643" y="203"/>
      <point x="692" y="248"/>
      <point x="692" y="321" type="curve" smooth="yes"/>
      <point x="692" y="389"/>
      <point x="651" y="430"/>
      <point x="582" y="430" type="curve" smooth="yes"/>
      <point x="516" y="430"/>
      <point x="461" y="390"/>
      <point x="438" y="324" type="curve"/>
      <point x="501" y="262" type="line"/>
      <point x="506" y="319"/>
      <point x="532" y="355"/>
      <point x="569" y="355" type="curve" smooth="yes"/>
      <point x="592" y="355"/>
      <point x="606" y="341"/>
      <point x="606" y="318" type="curve" smooth="yes"/>
      <point x="606" y="297"/>
      <point x="592" y="284"/>
      <point x="570" y="284" type="curve" smooth="yes"/>
      <point x="535" y="284"/>
      <point x="512" y="314"/>
      <point x="512" y="363" type="curve" smooth="yes"/>
      <point x="512" y="424"/>
      <point x="549" y="460"/>
      <point x="608" y="460" type="curve" smooth="yes"/>
      <point x="680" y="460"/>
      <point x="723" y="409"/>
      <point x="723" y="326" type="curve" smooth="yes"/>
      <point x="723" y="225"/>
      <point x="662" y="165"/>
      <point x="560" y="165" type="curve" smooth="yes"/>
      <point x="444" y="165"/>
      <point x="374" y="246"/>
      <point x="374" y="381" type="curve" smooth="yes"/>
      <point x="374" y="534"/>
      <point x="468" y="626"/>
      <point x="623" y="626" type="curve" smooth="yes"/>
      <point x="797" y="626"/>
      <point x="902" y="513"/>
      <point x="902" y="328" type="curve" smooth="yes"/>
      <point x="902" y="123"/>
      <point x="770" y="0"/>
      <point x="553" y="0" type="curve" smooth="yes"/>
      <point x="320" y="0"/>
      <point x="179" y="140"/>
      <point x="179" y="369" type="curve"/>
      <point x="12" y="369" type="line"/>
      <point x="12" y="54"/>
      <point x="215" y="-136"/>
      <point x="551" y="-136" type="curve" smooth="yes"/>
      <point x="872" y="-136"/>
      <point x="1066" y="40"/>
    </contour>
  </outline>
</glyph>
<glyph name="danda_cham" format="2">
  <advance width="457"/>
  <unicode hex="AA5D"/>
  <note>
uniAA5D
</note>
  <outline>
    <contour>
      <point x="324" y="348" type="curve" smooth="yes"/>
      <point x="324" y="463"/>
      <point x="303" y="567"/>
      <point x="265" y="638" type="curve"/>
      <point x="92" y="565" type="line"/>
      <point x="116" y="503"/>
      <point x="130" y="421"/>
      <point x="130" y="333" type="curve" smooth="yes"/>
      <point x="130" y="214"/>
      <point x="104" y="60"/>
      <point x="57" y="-90" type="curve"/>
      <point x="240" y="-134" type="line"/>
      <point x="294" y="36"/>
      <point x="324" y="210"/>
    </contour>
  </outline>
</glyph>
<glyph name="doubleDanda_cham" format="2">
  <advance width="722"/>
  <unicode hex="AA5E"/>
  <note>
uniAA5E
</note>
  <outline>
    <contour>
      <point x="297" y="349" type="curve" smooth="yes"/>
      <point x="297" y="440"/>
      <point x="279" y="528"/>
      <point x="248" y="595" type="curve"/>
      <point x="85" y="526" type="line"/>
      <point x="105" y="479"/>
      <point x="116" y="413"/>
      <point x="116" y="342" type="curve" smooth="yes"/>
      <point x="116" y="242"/>
      <point x="95" y="120"/>
      <point x="57" y="5" type="curve"/>
      <point x="231" y="-37" type="line"/>
      <point x="273" y="105"/>
      <point x="297" y="244"/>
    </contour>
    <contour>
      <point x="589" y="348" type="curve" smooth="yes"/>
      <point x="589" y="463"/>
      <point x="568" y="567"/>
      <point x="530" y="638" type="curve"/>
      <point x="357" y="565" type="line"/>
      <point x="381" y="503"/>
      <point x="395" y="421"/>
      <point x="395" y="333" type="curve" smooth="yes"/>
      <point x="395" y="214"/>
      <point x="369" y="60"/>
      <point x="322" y="-90" type="curve"/>
      <point x="505" y="-134" type="line"/>
      <point x="559" y="36"/>
      <point x="589" y="210"/>
    </contour>
    <contour>
      <point x="135" y="625" type="curve" smooth="yes"/>
      <point x="199" y="625"/>
      <point x="235" y="663"/>
      <point x="235" y="725" type="curve" smooth="yes"/>
      <point x="235" y="787"/>
      <point x="199" y="824"/>
      <point x="135" y="824" type="curve" smooth="yes"/>
      <point x="73" y="824"/>
      <point x="36" y="787"/>
      <point x="36" y="725" type="curve" smooth="yes"/>
      <point x="36" y="663"/>
      <point x="73" y="625"/>
    </contour>
    <contour>
      <point x="422" y="677" type="curve" smooth="yes"/>
      <point x="485" y="677"/>
      <point x="523" y="715"/>
      <point x="523" y="778" type="curve" smooth="yes"/>
      <point x="523" y="840"/>
      <point x="485" y="877"/>
      <point x="422" y="877" type="curve" smooth="yes"/>
      <point x="359" y="877"/>
      <point x="322" y="840"/>
      <point x="322" y="778" type="curve" smooth="yes"/>
      <point x="322" y="715"/>
      <point x="359" y="677"/>
    </contour>
    <contour>
      <point x="225" y="902" type="curve" smooth="yes"/>
      <point x="288" y="902"/>
      <point x="325" y="940"/>
      <point x="325" y="1002" type="curve" smooth="yes"/>
      <point x="325" y="1064"/>
      <point x="288" y="1101"/>
      <point x="225" y="1101" type="curve" smooth="yes"/>
      <point x="163" y="1101"/>
      <point x="126" y="1064"/>
      <point x="126" y="1002" type="curve" smooth="yes"/>
      <point x="126" y="940"/>
      <point x="163" y="902"/>
    </contour>
  </outline>
</glyph>
<glyph name="tripleDanda_cham" format="2">
  <advance width="980"/>
  <unicode hex="AA5F"/>
  <note>
uniAA5F
</note>
  <outline>
    <contour>
      <point x="271" y="358" type="curve" smooth="yes"/>
      <point x="271" y="433"/>
      <point x="257" y="505"/>
      <point x="231" y="552" type="curve"/>
      <point x="78" y="486" type="line"/>
      <point x="94" y="449"/>
      <point x="103" y="399"/>
      <point x="103" y="348" type="curve" smooth="yes"/>
      <point x="103" y="278"/>
      <point x="86" y="188"/>
      <point x="57" y="97" type="curve"/>
      <point x="222" y="58" type="line"/>
      <point x="253" y="165"/>
      <point x="271" y="272"/>
    </contour>
    <contour>
      <point x="555" y="349" type="curve" smooth="yes"/>
      <point x="555" y="440"/>
      <point x="537" y="528"/>
      <point x="506" y="595" type="curve"/>
      <point x="343" y="526" type="line"/>
      <point x="363" y="479"/>
      <point x="374" y="413"/>
      <point x="374" y="342" type="curve" smooth="yes"/>
      <point x="374" y="242"/>
      <point x="353" y="120"/>
      <point x="315" y="5" type="curve"/>
      <point x="489" y="-37" type="line"/>
      <point x="531" y="105"/>
      <point x="555" y="244"/>
    </contour>
    <contour>
      <point x="847" y="348" type="curve" smooth="yes"/>
      <point x="847" y="463"/>
      <point x="826" y="567"/>
      <point x="788" y="638" type="curve"/>
      <point x="615" y="565" type="line"/>
      <point x="639" y="503"/>
      <point x="653" y="421"/>
      <point x="653" y="333" type="curve" smooth="yes"/>
      <point x="653" y="214"/>
      <point x="627" y="60"/>
      <point x="580" y="-90" type="curve"/>
      <point x="763" y="-134" type="line"/>
      <point x="817" y="36"/>
      <point x="847" y="210"/>
    </contour>
  </outline>
</glyph>
<glyph name="aaSign_oeSign_cham" format="2">
  <note>
g126
</note>
  <outline>
    <contour>
      <point x="185" y="934" type="curve" smooth="yes"/>
      <point x="185" y="1041"/>
      <point x="91" y="1112"/>
      <point x="-30" y="1112" type="curve" smooth="yes"/>
      <point x="-164" y="1112"/>
      <point x="-249" y="1037"/>
      <point x="-249" y="942" type="curve" smooth="yes"/>
      <point x="-249" y="807"/>
      <point x="-83" y="742"/>
      <point x="-83" y="658" type="curve" smooth="yes"/>
      <point x="-83" y="628"/>
      <point x="-105" y="604"/>
      <point x="-154" y="599" type="curve"/>
      <point x="-128" y="475" type="line"/>
      <point x="17" y="487"/>
      <point x="66" y="571"/>
      <point x="66" y="650" type="curve" smooth="yes"/>
      <point x="66" y="782"/>
      <point x="-100" y="847"/>
      <point x="-100" y="934" type="curve" smooth="yes"/>
      <point x="-100" y="969"/>
      <point x="-72" y="988"/>
      <point x="-30" y="988" type="curve" smooth="yes"/>
      <point x="9" y="988"/>
      <point x="36" y="968"/>
      <point x="36" y="934" type="curve" smooth="yes"/>
      <point x="36" y="919"/>
      <point x="29" y="903"/>
      <point x="20" y="892" type="curve"/>
      <point x="111" y="811" type="line"/>
      <point x="170" y="851"/>
      <point x="185" y="895"/>
    </contour>
    <contour>
      <point x="412" y="1112" type="curve"/>
      <point x="260" y="1112" type="line"/>
      <point x="270" y="985"/>
      <point x="202" y="916"/>
      <point x="151" y="916" type="curve" smooth="yes"/>
      <point x="117" y="916" type="line"/>
      <point x="111" y="811" type="line"/>
      <point x="151" y="812" type="line" smooth="yes"/>
      <point x="324" y="817"/>
      <point x="416" y="972"/>
    </contour>
  </outline>
</glyph>
